<?xml version="1.0" encoding="UTF-8"?>
<!DOCTYPE svg PUBLIC "-//W3C//DTD SVG 1.1//EN"
    "http://www.w3.org/Graphics/SVG/1.1/DTD/svg11.dtd">
<svg xmlns="http://www.w3.org/2000/svg" xmlns:xlink="http://www.w3.org/1999/xlink" version="1.1" width="300.0" height="107.31758228717159" font-size="1" viewBox="0 0 300 107" stroke="rgb(0,0,0)" stroke-opacity="1"><g><g fill="rgb(0,0,0)" fill-opacity="0.0"><g stroke="rgb(0,0,0)" stroke-opacity="1.0" stroke-width="0.7177216695756257" stroke-linecap="butt" stroke-linejoin="miter" font-size="1.0em" stroke-miterlimit="10.0"><path d="M 150.0,12.3827979562121 l 69.61346620130519,41.27599318737369 " /><path d="M 150.0,12.3827979562121 l -69.61346620130522,41.27599318737369 " /><path d="M 219.6134662013052,53.658791143585795 l 68.00373584248271,41.27599318737369 " /><path d="M 219.6134662013052,53.658791143585795 l -28.39959400504041,41.27599318737369 " /><g><g fill="rgb(255,255,255)" fill-opacity="1.0"><g fill="rgb(255,255,255)" fill-opacity="1.0"><g fill="rgb(255,255,255)" fill-opacity="1.0"><path d="M 300.00000000000006,94.93478433095949 c 0.0,-6.838830471451864 -5.543967484760241,-12.382797956212107 -12.382797956212103 -12.382797956212107c -6.838830471451864,-4.1875759233874546e-16 -12.382797956212107,5.543967484760241 -12.382797956212107 12.382797956212103c -8.375151846774909e-16,6.838830471451864 5.54396748476024,12.382797956212107 12.382797956212102 12.382797956212107c 6.838830471451864,1.2562727770162365e-15 12.382797956212107,-5.543967484760239 12.382797956212109 -12.382797956212103Z" /></g></g></g><g fill="rgb(0,0,0)" fill-opacity="1.0" font-size="20.637996593686847em"><g fill="rgb(0,0,0)" fill-opacity="1.0"><text transform="matrix(1.0,0.0,0.0,1.0,287.6172020437879,94.93478433095949)" dominant-baseline="middle" text-anchor="middle" stroke="none">4</text></g></g></g><g><g fill="rgb(255,255,255)" fill-opacity="1.0"><g fill="rgb(255,255,255)" fill-opacity="1.0"><g fill="rgb(255,255,255)" fill-opacity="1.0"><path d="M 203.5966701524769,94.93478433095949 c 0.0,-6.838830471451864 -5.543967484760241,-12.382797956212107 -12.382797956212103 -12.382797956212107c -6.838830471451864,-4.1875759233874546e-16 -12.382797956212107,5.543967484760241 -12.382797956212107 12.382797956212103c -8.375151846774909e-16,6.838830471451864 5.54396748476024,12.382797956212107 12.382797956212102 12.382797956212107c 6.838830471451864,1.2562727770162365e-15 12.382797956212107,-5.543967484760239 12.382797956212109 -12.382797956212103Z" /></g></g></g><g fill="rgb(0,0,0)" fill-opacity="1.0" font-size="20.637996593686847em"><g fill="rgb(0,0,0)" fill-opacity="1.0"><text transform="matrix(1.0,0.0,0.0,1.0,191.2138721962648,94.93478433095949)" dominant-baseline="middle" text-anchor="middle" stroke="none">3</text></g></g></g><g><g fill="rgb(255,255,255)" fill-opacity="1.0"><g fill="rgb(255,255,255)" fill-opacity="1.0"><g fill="rgb(255,255,255)" fill-opacity="1.0"><path d="M 231.9962641575173,53.658791143585795 c 0.0,-6.838830471451864 -5.543967484760241,-12.382797956212107 -12.382797956212103 -12.382797956212107c -6.838830471451864,-4.1875759233874546e-16 -12.382797956212107,5.543967484760241 -12.382797956212107 12.382797956212103c -8.375151846774909e-16,6.838830471451864 5.54396748476024,12.382797956212107 12.382797956212102 12.382797956212107c 6.838830471451864,1.2562727770162365e-15 12.382797956212107,-5.543967484760239 12.382797956212109 -12.382797956212103Z" /></g></g></g><g fill="rgb(0,0,0)" fill-opacity="1.0" font-size="20.637996593686847em"><g fill="rgb(0,0,0)" fill-opacity="1.0"><text transform="matrix(1.0,0.0,0.0,1.0,219.6134662013052,53.658791143585795)" dominant-baseline="middle" text-anchor="middle" stroke="none">6</text></g></g></g><path d="M 80.38653379869478,53.658791143585795 l 28.399594005040434,41.27599318737369 " /><path d="M 80.38653379869478,53.658791143585795 l -68.0037358424827,41.27599318737369 " /><g><g fill="rgb(255,255,255)" fill-opacity="1.0"><g fill="rgb(255,255,255)" fill-opacity="1.0"><g fill="rgb(255,255,255)" fill-opacity="1.0"><path d="M 121.16892575994733,94.93478433095949 c 0.0,-6.838830471451864 -5.543967484760241,-12.382797956212107 -12.382797956212103 -12.382797956212107c -6.838830471451864,-4.1875759233874546e-16 -12.382797956212107,5.543967484760241 -12.382797956212107 12.382797956212103c -8.375151846774909e-16,6.838830471451864 5.54396748476024,12.382797956212107 12.382797956212102 12.382797956212107c 6.838830471451864,1.2562727770162365e-15 12.382797956212107,-5.543967484760239 12.382797956212109 -12.382797956212103Z" /></g></g></g><g fill="rgb(0,0,0)" fill-opacity="1.0" font-size="20.637996593686847em"><g fill="rgb(0,0,0)" fill-opacity="1.0"><text transform="matrix(1.0,0.0,0.0,1.0,108.78612780373523,94.93478433095949)" dominant-baseline="middle" text-anchor="middle" stroke="none">2</text></g></g></g><g><g fill="rgb(255,255,255)" fill-opacity="1.0"><g fill="rgb(255,255,255)" fill-opacity="1.0"><g fill="rgb(255,255,255)" fill-opacity="1.0"><path d="M 24.765595912424196,94.93478433095949 c 0.0,-6.838830471451864 -5.543967484760241,-12.382797956212107 -12.382797956212103 -12.382797956212107c -6.838830471451864,-4.1875759233874546e-16 -12.382797956212107,5.543967484760241 -12.382797956212107 12.382797956212103c -8.375151846774909e-16,6.838830471451864 5.54396748476024,12.382797956212107 12.382797956212102 12.382797956212107c 6.838830471451864,1.2562727770162365e-15 12.382797956212107,-5.543967484760239 12.382797956212109 -12.382797956212103Z" /></g></g></g><g fill="rgb(0,0,0)" fill-opacity="1.0" font-size="20.637996593686847em"><g fill="rgb(0,0,0)" fill-opacity="1.0"><text transform="matrix(1.0,0.0,0.0,1.0,12.38279795621209,94.93478433095949)" dominant-baseline="middle" text-anchor="middle" stroke="none">7</text></g></g></g><g><g fill="rgb(255,255,255)" fill-opacity="1.0"><g fill="rgb(255,255,255)" fill-opacity="1.0"><g fill="rgb(255,255,255)" fill-opacity="1.0"><path d="M 92.76933175490689,53.658791143585795 c 0.0,-6.838830471451864 -5.543967484760241,-12.382797956212107 -12.382797956212103 -12.382797956212107c -6.838830471451864,-4.1875759233874546e-16 -12.382797956212107,5.543967484760241 -12.382797956212107 12.382797956212103c -8.375151846774909e-16,6.838830471451864 5.54396748476024,12.382797956212107 12.382797956212102 12.382797956212107c 6.838830471451864,1.2562727770162365e-15 12.382797956212107,-5.543967484760239 12.382797956212109 -12.382797956212103Z" /></g></g></g><g fill="rgb(0,0,0)" fill-opacity="1.0" font-size="20.637996593686847em"><g fill="rgb(0,0,0)" fill-opacity="1.0"><text transform="matrix(1.0,0.0,0.0,1.0,80.38653379869478,53.658791143585795)" dominant-baseline="middle" text-anchor="middle" stroke="none">8</text></g></g></g><g><g fill="rgb(255,255,255)" fill-opacity="1.0"><g fill="rgb(255,255,255)" fill-opacity="1.0"><g fill="rgb(255,255,255)" fill-opacity="1.0"><path d="M 162.3827979562121,12.3827979562121 c 0.0,-6.838830471451864 -5.543967484760241,-12.382797956212107 -12.382797956212103 -12.382797956212107c -6.838830471451864,-4.1875759233874546e-16 -12.382797956212107,5.543967484760241 -12.382797956212107 12.382797956212103c -8.375151846774909e-16,6.838830471451864 5.54396748476024,12.382797956212107 12.382797956212102 12.382797956212107c 6.838830471451864,1.2562727770162365e-15 12.382797956212107,-5.543967484760239 12.382797956212109 -12.382797956212103Z" /></g></g></g><g fill="rgb(0,0,0)" fill-opacity="1.0" font-size="20.637996593686847em"><g fill="rgb(0,0,0)" fill-opacity="1.0"><text transform="matrix(1.0,0.0,0.0,1.0,150.0,12.3827979562121)" dominant-baseline="middle" text-anchor="middle" stroke="none">1</text></g></g></g></g></g></g></svg>