<?xml version="1.0" encoding="UTF-8"?>
<!DOCTYPE svg PUBLIC "-//W3C//DTD SVG 1.1//EN"
    "http://www.w3.org/Graphics/SVG/1.1/DTD/svg11.dtd">
<svg xmlns="http://www.w3.org/2000/svg" xmlns:xlink="http://www.w3.org/1999/xlink" version="1.1" width="600.0" height="629.2872127852205" font-size="1" viewBox="0 0 600 629" stroke="rgb(0,0,0)" stroke-opacity="1"><g><g fill="rgb(0,0,0)" fill-opacity="0.0"><g stroke="rgb(0,0,0)" stroke-opacity="1.0" stroke-width="2.457876571908792" stroke-linecap="butt" stroke-linejoin="miter" font-size="1.0em" stroke-miterlimit="10.0"><g><path d="M 358.86200130804434,301.1425068617201 l 98.10333551340749,-169.91996150119775 " /><path d="M 358.86200130804434,301.1425068617201 l 98.10333551340736,169.91996150119786 " /><path d="M 358.86200130804434,301.1425068617201 h -196.20667102681483 " /><path d="M 456.96533682145184,131.22254536052242 l -49.05166775670368,-84.959980750599 " /><path d="M 456.96533682145184,131.22254536052242 l 49.05166775670381,-84.95998075059887 " /><path d="M 456.96533682145184,131.22254536052242 h 98.10333551340749 " /><path d="M 456.96533682145184,131.22254536052242 l 49.05166775670368,84.959980750599 " /><path d="M 456.96533682145184,131.22254536052242 l -49.05166775670368,84.959980750599 " /><path d="M 456.96533682145184,131.22254536052242 h -98.10333551340749 " /><g><g fill="rgb(255,255,255)" fill-opacity="1.0"><g fill="rgb(255,255,255)" fill-opacity="1.0"><g fill="rgb(255,255,255)" fill-opacity="1.0"><path d="M 425.57226945716155,46.2625646099234 c 0.0,-9.752575700085954 -7.906024692327386,-17.65860039241334 -17.658600392413337 -17.65860039241334c -9.752575700085954,-5.971730307276259e-16 -17.65860039241334,7.906024692327385 -17.65860039241334 17.658600392413334c -1.1943460614552518e-15,9.752575700085954 7.906024692327384,17.65860039241334 17.658600392413334 17.65860039241334c 9.752575700085954,1.791519092182878e-15 17.65860039241334,-7.9060246923273825 17.658600392413348 -17.658600392413334Z" /></g></g></g><g fill="rgb(0,0,0)" fill-opacity="1.0" font-size="17.65860039241334em"><g fill="rgb(0,0,0)" fill-opacity="1.0"><text transform="matrix(1.0,0.0,0.0,1.0,407.9136690647482,46.2625646099234)" dominant-baseline="middle" text-anchor="middle" stroke="none">&#39;H&#39;</text></g></g></g><g><g fill="rgb(255,255,255)" fill-opacity="1.0"><g fill="rgb(255,255,255)" fill-opacity="1.0"><g fill="rgb(255,255,255)" fill-opacity="1.0"><path d="M 523.6756049705689,46.262564609923515 c 0.0,-9.752575700085954 -7.906024692327386,-17.65860039241334 -17.658600392413337 -17.65860039241334c -9.752575700085954,-5.971730307276259e-16 -17.65860039241334,7.906024692327385 -17.65860039241334 17.658600392413334c -1.1943460614552518e-15,9.752575700085954 7.906024692327384,17.65860039241334 17.658600392413334 17.65860039241334c 9.752575700085954,1.791519092182878e-15 17.65860039241334,-7.9060246923273825 17.658600392413348 -17.658600392413334Z" /></g></g></g><g fill="rgb(0,0,0)" fill-opacity="1.0" font-size="17.65860039241334em"><g fill="rgb(0,0,0)" fill-opacity="1.0"><text transform="matrix(1.0,0.0,0.0,1.0,506.0170045781556,46.262564609923515)" dominant-baseline="middle" text-anchor="middle" stroke="none">&#39;G&#39;</text></g></g></g><g><g fill="rgb(255,255,255)" fill-opacity="1.0"><g fill="rgb(255,255,255)" fill-opacity="1.0"><g fill="rgb(255,255,255)" fill-opacity="1.0"><path d="M 572.7272727272726,131.22254536052242 c 0.0,-9.752575700085954 -7.906024692327386,-17.65860039241334 -17.658600392413337 -17.65860039241334c -9.752575700085954,-5.971730307276259e-16 -17.65860039241334,7.906024692327385 -17.65860039241334 17.658600392413334c -1.1943460614552518e-15,9.752575700085954 7.906024692327384,17.65860039241334 17.658600392413334 17.65860039241334c 9.752575700085954,1.791519092182878e-15 17.65860039241334,-7.9060246923273825 17.658600392413348 -17.658600392413334Z" /></g></g></g><g fill="rgb(0,0,0)" fill-opacity="1.0" font-size="17.65860039241334em"><g fill="rgb(0,0,0)" fill-opacity="1.0"><text transform="matrix(1.0,0.0,0.0,1.0,555.0686723348593,131.22254536052242)" dominant-baseline="middle" text-anchor="middle" stroke="none">&#39;F&#39;</text></g></g></g><g><g fill="rgb(255,255,255)" fill-opacity="1.0"><g fill="rgb(255,255,255)" fill-opacity="1.0"><g fill="rgb(255,255,255)" fill-opacity="1.0"><path d="M 523.6756049705688,216.18252611112132 c 0.0,-9.752575700085954 -7.906024692327386,-17.65860039241334 -17.658600392413337 -17.65860039241334c -9.752575700085954,-5.971730307276259e-16 -17.65860039241334,7.906024692327385 -17.65860039241334 17.658600392413334c -1.1943460614552518e-15,9.752575700085954 7.906024692327384,17.65860039241334 17.658600392413334 17.65860039241334c 9.752575700085954,1.791519092182878e-15 17.65860039241334,-7.9060246923273825 17.658600392413348 -17.658600392413334Z" /></g></g></g><g fill="rgb(0,0,0)" fill-opacity="1.0" font-size="17.65860039241334em"><g fill="rgb(0,0,0)" fill-opacity="1.0"><text transform="matrix(1.0,0.0,0.0,1.0,506.0170045781555,216.18252611112132)" dominant-baseline="middle" text-anchor="middle" stroke="none">&#39;N&#39;</text></g></g></g><g><g fill="rgb(255,255,255)" fill-opacity="1.0"><g fill="rgb(255,255,255)" fill-opacity="1.0"><g fill="rgb(255,255,255)" fill-opacity="1.0"><path d="M 425.57226945716155,216.18252611112132 c 0.0,-9.752575700085954 -7.906024692327386,-17.65860039241334 -17.658600392413337 -17.65860039241334c -9.752575700085954,-5.971730307276259e-16 -17.65860039241334,7.906024692327385 -17.65860039241334 17.658600392413334c -1.1943460614552518e-15,9.752575700085954 7.906024692327384,17.65860039241334 17.658600392413334 17.65860039241334c 9.752575700085954,1.791519092182878e-15 17.65860039241334,-7.9060246923273825 17.658600392413348 -17.658600392413334Z" /></g></g></g><g fill="rgb(0,0,0)" fill-opacity="1.0" font-size="17.65860039241334em"><g fill="rgb(0,0,0)" fill-opacity="1.0"><text transform="matrix(1.0,0.0,0.0,1.0,407.9136690647482,216.18252611112132)" dominant-baseline="middle" text-anchor="middle" stroke="none">&#39;M&#39;</text></g></g></g><g><g fill="rgb(255,255,255)" fill-opacity="1.0"><g fill="rgb(255,255,255)" fill-opacity="1.0"><g fill="rgb(255,255,255)" fill-opacity="1.0"><path d="M 376.5206017004577,131.22254536052242 c 0.0,-9.752575700085954 -7.906024692327386,-17.65860039241334 -17.658600392413337 -17.65860039241334c -9.752575700085954,-5.971730307276259e-16 -17.65860039241334,7.906024692327385 -17.65860039241334 17.658600392413334c -1.1943460614552518e-15,9.752575700085954 7.906024692327384,17.65860039241334 17.658600392413334 17.65860039241334c 9.752575700085954,1.791519092182878e-15 17.65860039241334,-7.9060246923273825 17.658600392413348 -17.658600392413334Z" /></g></g></g><g fill="rgb(0,0,0)" fill-opacity="1.0" font-size="17.65860039241334em"><g fill="rgb(0,0,0)" fill-opacity="1.0"><text transform="matrix(1.0,0.0,0.0,1.0,358.86200130804434,131.22254536052242)" dominant-baseline="middle" text-anchor="middle" stroke="none">&#39;L&#39;</text></g></g></g><g><g fill="rgb(255,255,255)" fill-opacity="1.0"><g fill="rgb(255,255,255)" fill-opacity="1.0"><g fill="rgb(255,255,255)" fill-opacity="1.0"><path d="M 474.6239372138652,131.22254536052242 c 0.0,-9.752575700085954 -7.906024692327386,-17.65860039241334 -17.658600392413337 -17.65860039241334c -9.752575700085954,-5.971730307276259e-16 -17.65860039241334,7.906024692327385 -17.65860039241334 17.658600392413334c -1.1943460614552518e-15,9.752575700085954 7.906024692327384,17.65860039241334 17.658600392413334 17.65860039241334c 9.752575700085954,1.791519092182878e-15 17.65860039241334,-7.9060246923273825 17.658600392413348 -17.658600392413334Z" /></g></g></g><g fill="rgb(0,0,0)" fill-opacity="1.0" font-size="17.65860039241334em"><g fill="rgb(0,0,0)" fill-opacity="1.0"><text transform="matrix(1.0,0.0,0.0,1.0,456.96533682145184,131.22254536052242)" dominant-baseline="middle" text-anchor="middle" stroke="none">&#39;K&#39;</text></g></g></g><path d="M 456.96533682145173,471.06246836291797 l -36.37871745421228,-111.96217981237906 " /><path d="M 456.96533682145173,471.06246836291797 l 95.24071876225666,-69.1964325785776 " /><path d="M 456.96533682145173,471.06246836291797 l 95.24071876225666,69.1964325785776 " /><path d="M 456.96533682145173,471.06246836291797 l -36.37871745421228,111.96217981237906 " /><path d="M 456.96533682145173,471.06246836291797 h -117.72400261608891 " /><g><g fill="rgb(255,255,255)" fill-opacity="1.0"><g fill="rgb(255,255,255)" fill-opacity="1.0"><g fill="rgb(255,255,255)" fill-opacity="1.0"><path d="M 438.2452197596528,359.10028855053895 c 0.0,-9.752575700085954 -7.906024692327386,-17.65860039241334 -17.658600392413337 -17.65860039241334c -9.752575700085954,-5.971730307276259e-16 -17.65860039241334,7.906024692327385 -17.65860039241334 17.658600392413334c -1.1943460614552518e-15,9.752575700085954 7.906024692327384,17.65860039241334 17.658600392413334 17.65860039241334c 9.752575700085954,1.791519092182878e-15 17.65860039241334,-7.9060246923273825 17.658600392413348 -17.658600392413334Z" /></g></g></g><g fill="rgb(0,0,0)" fill-opacity="1.0" font-size="17.65860039241334em"><g fill="rgb(0,0,0)" fill-opacity="1.0"><text transform="matrix(1.0,0.0,0.0,1.0,420.58661936723945,359.10028855053895)" dominant-baseline="middle" text-anchor="middle" stroke="none">&#39;G&#39;</text></g></g></g><g><g fill="rgb(255,255,255)" fill-opacity="1.0"><g fill="rgb(255,255,255)" fill-opacity="1.0"><g fill="rgb(255,255,255)" fill-opacity="1.0"><path d="M 569.8646559761216,401.8660357843404 c 0.0,-9.752575700085954 -7.906024692327386,-17.65860039241334 -17.658600392413337 -17.65860039241334c -9.752575700085954,-5.971730307276259e-16 -17.65860039241334,7.906024692327385 -17.65860039241334 17.658600392413334c -1.1943460614552518e-15,9.752575700085954 7.906024692327384,17.65860039241334 17.658600392413334 17.65860039241334c 9.752575700085954,1.791519092182878e-15 17.65860039241334,-7.9060246923273825 17.658600392413348 -17.658600392413334Z" /></g></g></g><g fill="rgb(0,0,0)" fill-opacity="1.0" font-size="17.65860039241334em"><g fill="rgb(0,0,0)" fill-opacity="1.0"><text transform="matrix(1.0,0.0,0.0,1.0,552.2060555837083,401.8660357843404)" dominant-baseline="middle" text-anchor="middle" stroke="none">&#39;F&#39;</text></g></g></g><g><g fill="rgb(255,255,255)" fill-opacity="1.0"><g fill="rgb(255,255,255)" fill-opacity="1.0"><g fill="rgb(255,255,255)" fill-opacity="1.0"><path d="M 569.8646559761216,540.2589009414955 c 0.0,-9.752575700085954 -7.906024692327386,-17.65860039241334 -17.658600392413337 -17.65860039241334c -9.752575700085954,-5.971730307276259e-16 -17.65860039241334,7.906024692327385 -17.65860039241334 17.658600392413334c -1.1943460614552518e-15,9.752575700085954 7.906024692327384,17.65860039241334 17.658600392413334 17.65860039241334c 9.752575700085954,1.791519092182878e-15 17.65860039241334,-7.9060246923273825 17.658600392413348 -17.658600392413334Z" /></g></g></g><g fill="rgb(0,0,0)" fill-opacity="1.0" font-size="17.65860039241334em"><g fill="rgb(0,0,0)" fill-opacity="1.0"><text transform="matrix(1.0,0.0,0.0,1.0,552.2060555837083,540.2589009414955)" dominant-baseline="middle" text-anchor="middle" stroke="none">&#39;J&#39;</text></g></g></g><g><g fill="rgb(255,255,255)" fill-opacity="1.0"><g fill="rgb(255,255,255)" fill-opacity="1.0"><g fill="rgb(255,255,255)" fill-opacity="1.0"><path d="M 438.2452197596528,583.024648175297 c 0.0,-9.752575700085954 -7.906024692327386,-17.65860039241334 -17.658600392413337 -17.65860039241334c -9.752575700085954,-5.971730307276259e-16 -17.65860039241334,7.906024692327385 -17.65860039241334 17.658600392413334c -1.1943460614552518e-15,9.752575700085954 7.906024692327384,17.65860039241334 17.658600392413334 17.65860039241334c 9.752575700085954,1.791519092182878e-15 17.65860039241334,-7.9060246923273825 17.658600392413348 -17.658600392413334Z" /></g></g></g><g fill="rgb(0,0,0)" fill-opacity="1.0" font-size="17.65860039241334em"><g fill="rgb(0,0,0)" fill-opacity="1.0"><text transform="matrix(1.0,0.0,0.0,1.0,420.58661936723945,583.024648175297)" dominant-baseline="middle" text-anchor="middle" stroke="none">&#39;I&#39;</text></g></g></g><g><g fill="rgb(255,255,255)" fill-opacity="1.0"><g fill="rgb(255,255,255)" fill-opacity="1.0"><g fill="rgb(255,255,255)" fill-opacity="1.0"><path d="M 356.89993459777617,471.06246836291797 c 0.0,-9.752575700085954 -7.906024692327386,-17.65860039241334 -17.658600392413337 -17.65860039241334c -9.752575700085954,-5.971730307276259e-16 -17.65860039241334,7.906024692327385 -17.65860039241334 17.658600392413334c -1.1943460614552518e-15,9.752575700085954 7.906024692327384,17.65860039241334 17.658600392413334 17.65860039241334c 9.752575700085954,1.791519092182878e-15 17.65860039241334,-7.9060246923273825 17.658600392413348 -17.658600392413334Z" /></g></g></g><g fill="rgb(0,0,0)" fill-opacity="1.0" font-size="17.65860039241334em"><g fill="rgb(0,0,0)" fill-opacity="1.0"><text transform="matrix(1.0,0.0,0.0,1.0,339.2413342053628,471.06246836291797)" dominant-baseline="middle" text-anchor="middle" stroke="none">&#39;H&#39;</text></g></g></g><g><g fill="rgb(255,255,255)" fill-opacity="1.0"><g fill="rgb(255,255,255)" fill-opacity="1.0"><g fill="rgb(255,255,255)" fill-opacity="1.0"><path d="M 474.6239372138651,471.06246836291797 c 0.0,-9.752575700085954 -7.906024692327386,-17.65860039241334 -17.658600392413337 -17.65860039241334c -9.752575700085954,-5.971730307276259e-16 -17.65860039241334,7.906024692327385 -17.65860039241334 17.658600392413334c -1.1943460614552518e-15,9.752575700085954 7.906024692327384,17.65860039241334 17.658600392413334 17.65860039241334c 9.752575700085954,1.791519092182878e-15 17.65860039241334,-7.9060246923273825 17.658600392413348 -17.658600392413334Z" /></g></g></g><g fill="rgb(0,0,0)" fill-opacity="1.0" font-size="17.65860039241334em"><g fill="rgb(0,0,0)" fill-opacity="1.0"><text transform="matrix(1.0,0.0,0.0,1.0,456.96533682145173,471.06246836291797)" dominant-baseline="middle" text-anchor="middle" stroke="none">&#39;G&#39;</text></g></g></g><path d="M 162.6553302812295,301.1425068617201 l -36.378717454212214,-111.96217981237906 " /><path d="M 162.6553302812295,301.1425068617201 l 95.24071876225673,-69.1964325785776 " /><path d="M 162.6553302812295,301.1425068617201 l 95.24071876225673,69.1964325785776 " /><path d="M 162.6553302812295,301.1425068617201 l -36.37871745421228,111.96217981237906 " /><path d="M 162.6553302812295,301.1425068617201 h -117.72400261608894 " /><g><g fill="rgb(255,255,255)" fill-opacity="1.0"><g fill="rgb(255,255,255)" fill-opacity="1.0"><g fill="rgb(255,255,255)" fill-opacity="1.0"><path d="M 143.93521321943064,189.18032704934103 c 0.0,-9.752575700085954 -7.906024692327386,-17.65860039241334 -17.658600392413337 -17.65860039241334c -9.752575700085954,-5.971730307276259e-16 -17.65860039241334,7.906024692327385 -17.65860039241334 17.658600392413334c -1.1943460614552518e-15,9.752575700085954 7.906024692327384,17.65860039241334 17.658600392413334 17.65860039241334c 9.752575700085954,1.791519092182878e-15 17.65860039241334,-7.9060246923273825 17.658600392413348 -17.658600392413334Z" /></g></g></g><g fill="rgb(0,0,0)" fill-opacity="1.0" font-size="17.65860039241334em"><g fill="rgb(0,0,0)" fill-opacity="1.0"><text transform="matrix(1.0,0.0,0.0,1.0,126.27661282701729,189.18032704934103)" dominant-baseline="middle" text-anchor="middle" stroke="none">&#39;G&#39;</text></g></g></g><g><g fill="rgb(255,255,255)" fill-opacity="1.0"><g fill="rgb(255,255,255)" fill-opacity="1.0"><g fill="rgb(255,255,255)" fill-opacity="1.0"><path d="M 275.5546494358996,231.94607428314248 c 0.0,-9.752575700085954 -7.906024692327386,-17.65860039241334 -17.658600392413337 -17.65860039241334c -9.752575700085954,-5.971730307276259e-16 -17.65860039241334,7.906024692327385 -17.65860039241334 17.658600392413334c -1.1943460614552518e-15,9.752575700085954 7.906024692327384,17.65860039241334 17.658600392413334 17.65860039241334c 9.752575700085954,1.791519092182878e-15 17.65860039241334,-7.9060246923273825 17.658600392413348 -17.658600392413334Z" /></g></g></g><g fill="rgb(0,0,0)" fill-opacity="1.0" font-size="17.65860039241334em"><g fill="rgb(0,0,0)" fill-opacity="1.0"><text transform="matrix(1.0,0.0,0.0,1.0,257.89604904348624,231.94607428314248)" dominant-baseline="middle" text-anchor="middle" stroke="none">&#39;F&#39;</text></g></g></g><g><g fill="rgb(255,255,255)" fill-opacity="1.0"><g fill="rgb(255,255,255)" fill-opacity="1.0"><g fill="rgb(255,255,255)" fill-opacity="1.0"><path d="M 275.5546494358996,370.33893944029774 c 0.0,-9.752575700085954 -7.906024692327386,-17.65860039241334 -17.658600392413337 -17.65860039241334c -9.752575700085954,-5.971730307276259e-16 -17.65860039241334,7.906024692327385 -17.65860039241334 17.658600392413334c -1.1943460614552518e-15,9.752575700085954 7.906024692327384,17.65860039241334 17.658600392413334 17.65860039241334c 9.752575700085954,1.791519092182878e-15 17.65860039241334,-7.9060246923273825 17.658600392413348 -17.658600392413334Z" /></g></g></g><g fill="rgb(0,0,0)" fill-opacity="1.0" font-size="17.65860039241334em"><g fill="rgb(0,0,0)" fill-opacity="1.0"><text transform="matrix(1.0,0.0,0.0,1.0,257.89604904348624,370.33893944029774)" dominant-baseline="middle" text-anchor="middle" stroke="none">&#39;E&#39;</text></g></g></g><g><g fill="rgb(255,255,255)" fill-opacity="1.0"><g fill="rgb(255,255,255)" fill-opacity="1.0"><g fill="rgb(255,255,255)" fill-opacity="1.0"><path d="M 143.93521321943058,413.1046866740992 c 0.0,-9.752575700085954 -7.906024692327386,-17.65860039241334 -17.658600392413337 -17.65860039241334c -9.752575700085954,-5.971730307276259e-16 -17.65860039241334,7.906024692327385 -17.65860039241334 17.658600392413334c -1.1943460614552518e-15,9.752575700085954 7.906024692327384,17.65860039241334 17.658600392413334 17.65860039241334c 9.752575700085954,1.791519092182878e-15 17.65860039241334,-7.9060246923273825 17.658600392413348 -17.658600392413334Z" /></g></g></g><g fill="rgb(0,0,0)" fill-opacity="1.0" font-size="17.65860039241334em"><g fill="rgb(0,0,0)" fill-opacity="1.0"><text transform="matrix(1.0,0.0,0.0,1.0,126.27661282701723,413.1046866740992)" dominant-baseline="middle" text-anchor="middle" stroke="none">&#39;D&#39;</text></g></g></g><g><g fill="rgb(255,255,255)" fill-opacity="1.0"><g fill="rgb(255,255,255)" fill-opacity="1.0"><g fill="rgb(255,255,255)" fill-opacity="1.0"><path d="M 62.589928057553884,301.1425068617201 c 0.0,-9.752575700085954 -7.906024692327386,-17.65860039241334 -17.658600392413337 -17.65860039241334c -9.752575700085954,-5.971730307276259e-16 -17.65860039241334,7.906024692327385 -17.65860039241334 17.658600392413334c -1.1943460614552518e-15,9.752575700085954 7.906024692327384,17.65860039241334 17.658600392413334 17.65860039241334c 9.752575700085954,1.791519092182878e-15 17.65860039241334,-7.9060246923273825 17.658600392413348 -17.658600392413334Z" /></g></g></g><g fill="rgb(0,0,0)" fill-opacity="1.0" font-size="17.65860039241334em"><g fill="rgb(0,0,0)" fill-opacity="1.0"><text transform="matrix(1.0,0.0,0.0,1.0,44.93132766514054,301.1425068617201)" dominant-baseline="middle" text-anchor="middle" stroke="none">&#39;C&#39;</text></g></g></g><g><g fill="rgb(255,255,255)" fill-opacity="1.0"><g fill="rgb(255,255,255)" fill-opacity="1.0"><g fill="rgb(255,255,255)" fill-opacity="1.0"><path d="M 180.31393067364286,301.1425068617201 c 0.0,-9.752575700085954 -7.906024692327386,-17.65860039241334 -17.658600392413337 -17.65860039241334c -9.752575700085954,-5.971730307276259e-16 -17.65860039241334,7.906024692327385 -17.65860039241334 17.658600392413334c -1.1943460614552518e-15,9.752575700085954 7.906024692327384,17.65860039241334 17.658600392413334 17.65860039241334c 9.752575700085954,1.791519092182878e-15 17.65860039241334,-7.9060246923273825 17.658600392413348 -17.658600392413334Z" /></g></g></g><g fill="rgb(0,0,0)" fill-opacity="1.0" font-size="17.65860039241334em"><g fill="rgb(0,0,0)" fill-opacity="1.0"><text transform="matrix(1.0,0.0,0.0,1.0,162.6553302812295,301.1425068617201)" dominant-baseline="middle" text-anchor="middle" stroke="none">&#39;B&#39;</text></g></g></g><g><g fill="rgb(255,255,255)" fill-opacity="1.0"><g fill="rgb(255,255,255)" fill-opacity="1.0"><g fill="rgb(255,255,255)" fill-opacity="1.0"><path d="M 376.5206017004577,301.1425068617201 c 0.0,-9.752575700085954 -7.906024692327386,-17.65860039241334 -17.658600392413337 -17.65860039241334c -9.752575700085954,-5.971730307276259e-16 -17.65860039241334,7.906024692327385 -17.65860039241334 17.658600392413334c -1.1943460614552518e-15,9.752575700085954 7.906024692327384,17.65860039241334 17.658600392413334 17.65860039241334c 9.752575700085954,1.791519092182878e-15 17.65860039241334,-7.9060246923273825 17.658600392413348 -17.658600392413334Z" /></g></g></g><g fill="rgb(0,0,0)" fill-opacity="1.0" font-size="17.65860039241334em"><g fill="rgb(0,0,0)" fill-opacity="1.0"><text transform="matrix(1.0,0.0,0.0,1.0,358.86200130804434,301.1425068617201)" dominant-baseline="middle" text-anchor="middle" stroke="none">&#39;A&#39;</text></g></g></g></g></g></g></g></svg>