<?xml version="1.0" encoding="UTF-8"?>
<!DOCTYPE svg PUBLIC "-//W3C//DTD SVG 1.1//EN"
    "http://www.w3.org/Graphics/SVG/1.1/DTD/svg11.dtd">
<svg xmlns="http://www.w3.org/2000/svg" xmlns:xlink="http://www.w3.org/1999/xlink" version="1.1" width="600.0" height="621.9573607507423" font-size="1" viewBox="0 0 600 622" stroke="rgb(0,0,0)" stroke-opacity="1"><g><g fill="rgb(0,0,0)" fill-opacity="0.0"><g stroke="rgb(0,0,0)" stroke-opacity="1.0" stroke-width="2.4435201376717006" stroke-linecap="butt" stroke-linejoin="miter" font-size="1.0em" stroke-miterlimit="10.0"><g><path d="M 350.8819538670284,310.97868037537114 l 101.76390773405703,-176.26025857213796 " /><path d="M 350.8819538670284,310.97868037537114 l 101.76390773405689,176.2602585721381 " /><path d="M 350.8819538670284,310.97868037537114 h -203.52781546811391 " /><path d="M 452.64586160108547,134.71842180323313 l -50.88195386702844,-88.13012928606912 " /><path d="M 452.64586160108547,134.71842180323313 l 50.88195386702858,-88.13012928606898 " /><path d="M 452.64586160108547,134.71842180323313 h 101.76390773405703 " /><path d="M 452.64586160108547,134.71842180323313 l 50.88195386702844,88.13012928606912 " /><path d="M 452.64586160108547,134.71842180323313 l -50.88195386702844,88.13012928606912 " /><path d="M 452.64586160108547,134.71842180323313 h -101.76390773405703 " /><g><g fill="rgb(255,255,255)" fill-opacity="1.0"><g fill="rgb(255,255,255)" fill-opacity="1.0"><g fill="rgb(255,255,255)" fill-opacity="1.0"><path d="M 420.0814111261872,46.588292517164064 c 0.0,-10.116477778447369 -8.201025613682885,-18.317503392130256 -18.317503392130252 -18.317503392130256c -10.116477778447369,-6.194556065010448e-16 -18.317503392130256,8.201025613682884 -18.317503392130256 18.31750339213025c -1.2389112130020897e-15,10.116477778447369 8.201025613682884,18.317503392130256 18.31750339213025 18.317503392130256c 10.116477778447369,1.8583668195031344e-15 18.317503392130256,-8.201025613682882 18.317503392130263 -18.31750339213025Z" /></g></g></g><g fill="rgb(0,0,0)" fill-opacity="1.0" font-size="18.317503392130256em"><g fill="rgb(0,0,0)" fill-opacity="1.0"><text transform="matrix(1.0,0.0,0.0,1.0,401.76390773405694,46.588292517164064)" dominant-baseline="middle" text-anchor="middle" stroke="none">&#39;V&#39;</text></g></g></g><g><g fill="rgb(255,255,255)" fill-opacity="1.0"><g fill="rgb(255,255,255)" fill-opacity="1.0"><g fill="rgb(255,255,255)" fill-opacity="1.0"><path d="M 521.8453188602442,46.58829251716418 c 0.0,-10.116477778447369 -8.201025613682885,-18.317503392130256 -18.317503392130252 -18.317503392130256c -10.116477778447369,-6.194556065010448e-16 -18.317503392130256,8.201025613682884 -18.317503392130256 18.31750339213025c -1.2389112130020897e-15,10.116477778447369 8.201025613682884,18.317503392130256 18.31750339213025 18.317503392130256c 10.116477778447369,1.8583668195031344e-15 18.317503392130256,-8.201025613682882 18.317503392130263 -18.31750339213025Z" /></g></g></g><g fill="rgb(0,0,0)" fill-opacity="1.0" font-size="18.317503392130256em"><g fill="rgb(0,0,0)" fill-opacity="1.0"><text transform="matrix(1.0,0.0,0.0,1.0,503.527815468114,46.58829251716418)" dominant-baseline="middle" text-anchor="middle" stroke="none">&#39;U&#39;</text></g></g></g><g><g fill="rgb(255,255,255)" fill-opacity="1.0"><g fill="rgb(255,255,255)" fill-opacity="1.0"><g fill="rgb(255,255,255)" fill-opacity="1.0"><path d="M 572.7272727272726,134.71842180323313 c 0.0,-10.116477778447369 -8.201025613682885,-18.317503392130256 -18.317503392130252 -18.317503392130256c -10.116477778447369,-6.194556065010448e-16 -18.317503392130256,8.201025613682884 -18.317503392130256 18.31750339213025c -1.2389112130020897e-15,10.116477778447369 8.201025613682884,18.317503392130256 18.31750339213025 18.317503392130256c 10.116477778447369,1.8583668195031344e-15 18.317503392130256,-8.201025613682882 18.317503392130263 -18.31750339213025Z" /></g></g></g><g fill="rgb(0,0,0)" fill-opacity="1.0" font-size="18.317503392130256em"><g fill="rgb(0,0,0)" fill-opacity="1.0"><text transform="matrix(1.0,0.0,0.0,1.0,554.4097693351424,134.71842180323313)" dominant-baseline="middle" text-anchor="middle" stroke="none">&#39;T&#39;</text></g></g></g><g><g fill="rgb(255,255,255)" fill-opacity="1.0"><g fill="rgb(255,255,255)" fill-opacity="1.0"><g fill="rgb(255,255,255)" fill-opacity="1.0"><path d="M 521.8453188602441,222.8485510893023 c 0.0,-10.116477778447369 -8.201025613682885,-18.317503392130256 -18.317503392130252 -18.317503392130256c -10.116477778447369,-6.194556065010448e-16 -18.317503392130256,8.201025613682884 -18.317503392130256 18.31750339213025c -1.2389112130020897e-15,10.116477778447369 8.201025613682884,18.317503392130256 18.31750339213025 18.317503392130256c 10.116477778447369,1.8583668195031344e-15 18.317503392130256,-8.201025613682882 18.317503392130263 -18.31750339213025Z" /></g></g></g><g fill="rgb(0,0,0)" fill-opacity="1.0" font-size="18.317503392130256em"><g fill="rgb(0,0,0)" fill-opacity="1.0"><text transform="matrix(1.0,0.0,0.0,1.0,503.5278154681139,222.8485510893023)" dominant-baseline="middle" text-anchor="middle" stroke="none">&#39;S&#39;</text></g></g></g><g><g fill="rgb(255,255,255)" fill-opacity="1.0"><g fill="rgb(255,255,255)" fill-opacity="1.0"><g fill="rgb(255,255,255)" fill-opacity="1.0"><path d="M 420.0814111261872,222.8485510893023 c 0.0,-10.116477778447369 -8.201025613682885,-18.317503392130256 -18.317503392130252 -18.317503392130256c -10.116477778447369,-6.194556065010448e-16 -18.317503392130256,8.201025613682884 -18.317503392130256 18.31750339213025c -1.2389112130020897e-15,10.116477778447369 8.201025613682884,18.317503392130256 18.31750339213025 18.317503392130256c 10.116477778447369,1.8583668195031344e-15 18.317503392130256,-8.201025613682882 18.317503392130263 -18.31750339213025Z" /></g></g></g><g fill="rgb(0,0,0)" fill-opacity="1.0" font-size="18.317503392130256em"><g fill="rgb(0,0,0)" fill-opacity="1.0"><text transform="matrix(1.0,0.0,0.0,1.0,401.76390773405694,222.8485510893023)" dominant-baseline="middle" text-anchor="middle" stroke="none">&#39;R&#39;</text></g></g></g><g><g fill="rgb(255,255,255)" fill-opacity="1.0"><g fill="rgb(255,255,255)" fill-opacity="1.0"><g fill="rgb(255,255,255)" fill-opacity="1.0"><path d="M 369.1994572591587,134.71842180323313 c 0.0,-10.116477778447369 -8.201025613682885,-18.317503392130256 -18.317503392130252 -18.317503392130256c -10.116477778447369,-6.194556065010448e-16 -18.317503392130256,8.201025613682884 -18.317503392130256 18.31750339213025c -1.2389112130020897e-15,10.116477778447369 8.201025613682884,18.317503392130256 18.31750339213025 18.317503392130256c 10.116477778447369,1.8583668195031344e-15 18.317503392130256,-8.201025613682882 18.317503392130263 -18.31750339213025Z" /></g></g></g><g fill="rgb(0,0,0)" fill-opacity="1.0" font-size="18.317503392130256em"><g fill="rgb(0,0,0)" fill-opacity="1.0"><text transform="matrix(1.0,0.0,0.0,1.0,350.8819538670284,134.71842180323313)" dominant-baseline="middle" text-anchor="middle" stroke="none">&#39;Q&#39;</text></g></g></g><g><g fill="rgb(255,255,255)" fill-opacity="1.0"><g fill="rgb(255,255,255)" fill-opacity="1.0"><g fill="rgb(255,255,255)" fill-opacity="1.0"><path d="M 470.96336499321575,134.71842180323313 c 0.0,-10.116477778447369 -8.201025613682885,-18.317503392130256 -18.317503392130252 -18.317503392130256c -10.116477778447369,-6.194556065010448e-16 -18.317503392130256,8.201025613682884 -18.317503392130256 18.31750339213025c -1.2389112130020897e-15,10.116477778447369 8.201025613682884,18.317503392130256 18.31750339213025 18.317503392130256c 10.116477778447369,1.8583668195031344e-15 18.317503392130256,-8.201025613682882 18.317503392130263 -18.31750339213025Z" /></g></g></g><g fill="rgb(0,0,0)" fill-opacity="1.0" font-size="18.317503392130256em"><g fill="rgb(0,0,0)" fill-opacity="1.0"><text transform="matrix(1.0,0.0,0.0,1.0,452.64586160108547,134.71842180323313)" dominant-baseline="middle" text-anchor="middle" stroke="none">&#39;P&#39;</text></g></g></g><path d="M 452.64586160108536,487.23893894750927 l -50.88195386702844,-88.13012928606912 " /><path d="M 452.64586160108536,487.23893894750927 l 50.88195386702858,-88.13012928606898 " /><path d="M 452.64586160108536,487.23893894750927 l 101.76390773405703,6.778838006530806e-14 " /><path d="M 452.64586160108536,487.23893894750927 l 50.88195386702844,88.13012928606905 " /><path d="M 452.64586160108536,487.23893894750927 l -50.88195386702844,88.13012928606905 " /><path d="M 452.64586160108536,487.23893894750927 h -101.76390773405696 " /><g><g fill="rgb(255,255,255)" fill-opacity="1.0"><g fill="rgb(255,255,255)" fill-opacity="1.0"><g fill="rgb(255,255,255)" fill-opacity="1.0"><path d="M 420.0814111261871,399.1088096614401 c 0.0,-10.116477778447369 -8.201025613682885,-18.317503392130256 -18.317503392130252 -18.317503392130256c -10.116477778447369,-6.194556065010448e-16 -18.317503392130256,8.201025613682884 -18.317503392130256 18.31750339213025c -1.2389112130020897e-15,10.116477778447369 8.201025613682884,18.317503392130256 18.31750339213025 18.317503392130256c 10.116477778447369,1.8583668195031344e-15 18.317503392130256,-8.201025613682882 18.317503392130263 -18.31750339213025Z" /></g></g></g><g fill="rgb(0,0,0)" fill-opacity="1.0" font-size="18.317503392130256em"><g fill="rgb(0,0,0)" fill-opacity="1.0"><text transform="matrix(1.0,0.0,0.0,1.0,401.76390773405683,399.1088096614401)" dominant-baseline="middle" text-anchor="middle" stroke="none">&#39;O&#39;</text></g></g></g><g><g fill="rgb(255,255,255)" fill-opacity="1.0"><g fill="rgb(255,255,255)" fill-opacity="1.0"><g fill="rgb(255,255,255)" fill-opacity="1.0"><path d="M 521.8453188602441,399.1088096614402 c 0.0,-10.116477778447369 -8.201025613682885,-18.317503392130256 -18.317503392130252 -18.317503392130256c -10.116477778447369,-6.194556065010448e-16 -18.317503392130256,8.201025613682884 -18.317503392130256 18.31750339213025c -1.2389112130020897e-15,10.116477778447369 8.201025613682884,18.317503392130256 18.31750339213025 18.317503392130256c 10.116477778447369,1.8583668195031344e-15 18.317503392130256,-8.201025613682882 18.317503392130263 -18.31750339213025Z" /></g></g></g><g fill="rgb(0,0,0)" fill-opacity="1.0" font-size="18.317503392130256em"><g fill="rgb(0,0,0)" fill-opacity="1.0"><text transform="matrix(1.0,0.0,0.0,1.0,503.5278154681139,399.1088096614402)" dominant-baseline="middle" text-anchor="middle" stroke="none">&#39;N&#39;</text></g></g></g><g><g fill="rgb(255,255,255)" fill-opacity="1.0"><g fill="rgb(255,255,255)" fill-opacity="1.0"><g fill="rgb(255,255,255)" fill-opacity="1.0"><path d="M 572.7272727272725,487.2389389475093 c 0.0,-10.116477778447369 -8.201025613682885,-18.317503392130256 -18.317503392130252 -18.317503392130256c -10.116477778447369,-6.194556065010448e-16 -18.317503392130256,8.201025613682884 -18.317503392130256 18.31750339213025c -1.2389112130020897e-15,10.116477778447369 8.201025613682884,18.317503392130256 18.31750339213025 18.317503392130256c 10.116477778447369,1.8583668195031344e-15 18.317503392130256,-8.201025613682882 18.317503392130263 -18.31750339213025Z" /></g></g></g><g fill="rgb(0,0,0)" fill-opacity="1.0" font-size="18.317503392130256em"><g fill="rgb(0,0,0)" fill-opacity="1.0"><text transform="matrix(1.0,0.0,0.0,1.0,554.4097693351423,487.2389389475093)" dominant-baseline="middle" text-anchor="middle" stroke="none">&#39;M&#39;</text></g></g></g><g><g fill="rgb(255,255,255)" fill-opacity="1.0"><g fill="rgb(255,255,255)" fill-opacity="1.0"><g fill="rgb(255,255,255)" fill-opacity="1.0"><path d="M 521.845318860244,575.3690682335782 c 0.0,-10.116477778447369 -8.201025613682885,-18.317503392130256 -18.317503392130252 -18.317503392130256c -10.116477778447369,-6.194556065010448e-16 -18.317503392130256,8.201025613682884 -18.317503392130256 18.31750339213025c -1.2389112130020897e-15,10.116477778447369 8.201025613682884,18.317503392130256 18.31750339213025 18.317503392130256c 10.116477778447369,1.8583668195031344e-15 18.317503392130256,-8.201025613682882 18.317503392130263 -18.31750339213025Z" /></g></g></g><g fill="rgb(0,0,0)" fill-opacity="1.0" font-size="18.317503392130256em"><g fill="rgb(0,0,0)" fill-opacity="1.0"><text transform="matrix(1.0,0.0,0.0,1.0,503.5278154681138,575.3690682335782)" dominant-baseline="middle" text-anchor="middle" stroke="none">&#39;L&#39;</text></g></g></g><g><g fill="rgb(255,255,255)" fill-opacity="1.0"><g fill="rgb(255,255,255)" fill-opacity="1.0"><g fill="rgb(255,255,255)" fill-opacity="1.0"><path d="M 420.0814111261871,575.3690682335782 c 0.0,-10.116477778447369 -8.201025613682885,-18.317503392130256 -18.317503392130252 -18.317503392130256c -10.116477778447369,-6.194556065010448e-16 -18.317503392130256,8.201025613682884 -18.317503392130256 18.31750339213025c -1.2389112130020897e-15,10.116477778447369 8.201025613682884,18.317503392130256 18.31750339213025 18.317503392130256c 10.116477778447369,1.8583668195031344e-15 18.317503392130256,-8.201025613682882 18.317503392130263 -18.31750339213025Z" /></g></g></g><g fill="rgb(0,0,0)" fill-opacity="1.0" font-size="18.317503392130256em"><g fill="rgb(0,0,0)" fill-opacity="1.0"><text transform="matrix(1.0,0.0,0.0,1.0,401.76390773405683,575.3690682335782)" dominant-baseline="middle" text-anchor="middle" stroke="none">&#39;K&#39;</text></g></g></g><g><g fill="rgb(255,255,255)" fill-opacity="1.0"><g fill="rgb(255,255,255)" fill-opacity="1.0"><g fill="rgb(255,255,255)" fill-opacity="1.0"><path d="M 369.1994572591586,487.23893894750927 c 0.0,-10.116477778447369 -8.201025613682885,-18.317503392130256 -18.317503392130252 -18.317503392130256c -10.116477778447369,-6.194556065010448e-16 -18.317503392130256,8.201025613682884 -18.317503392130256 18.31750339213025c -1.2389112130020897e-15,10.116477778447369 8.201025613682884,18.317503392130256 18.31750339213025 18.317503392130256c 10.116477778447369,1.8583668195031344e-15 18.317503392130256,-8.201025613682882 18.317503392130263 -18.31750339213025Z" /></g></g></g><g fill="rgb(0,0,0)" fill-opacity="1.0" font-size="18.317503392130256em"><g fill="rgb(0,0,0)" fill-opacity="1.0"><text transform="matrix(1.0,0.0,0.0,1.0,350.8819538670283,487.23893894750927)" dominant-baseline="middle" text-anchor="middle" stroke="none">&#39;J&#39;</text></g></g></g><g><g fill="rgb(255,255,255)" fill-opacity="1.0"><g fill="rgb(255,255,255)" fill-opacity="1.0"><g fill="rgb(255,255,255)" fill-opacity="1.0"><path d="M 470.96336499321563,487.23893894750927 c 0.0,-10.116477778447369 -8.201025613682885,-18.317503392130256 -18.317503392130252 -18.317503392130256c -10.116477778447369,-6.194556065010448e-16 -18.317503392130256,8.201025613682884 -18.317503392130256 18.31750339213025c -1.2389112130020897e-15,10.116477778447369 8.201025613682884,18.317503392130256 18.31750339213025 18.317503392130256c 10.116477778447369,1.8583668195031344e-15 18.317503392130256,-8.201025613682882 18.317503392130263 -18.31750339213025Z" /></g></g></g><g fill="rgb(0,0,0)" fill-opacity="1.0" font-size="18.317503392130256em"><g fill="rgb(0,0,0)" fill-opacity="1.0"><text transform="matrix(1.0,0.0,0.0,1.0,452.64586160108536,487.23893894750927)" dominant-baseline="middle" text-anchor="middle" stroke="none">&#39;I&#39;</text></g></g></g><path d="M 147.35413839891447,310.97868037537114 l -50.88195386702844,-88.13012928606912 " /><path d="M 147.35413839891447,310.97868037537114 l 50.881953867028514,-88.13012928606898 " /><path d="M 147.35413839891447,310.97868037537114 l 101.76390773405696,6.778838006530806e-14 " /><path d="M 147.35413839891447,310.97868037537114 l 50.88195386702844,88.13012928606905 " /><path d="M 147.35413839891447,310.97868037537114 l -50.881953867028514,88.13012928606905 " /><path d="M 147.35413839891447,310.97868037537114 h -101.76390773405696 " /><g><g fill="rgb(255,255,255)" fill-opacity="1.0"><g fill="rgb(255,255,255)" fill-opacity="1.0"><g fill="rgb(255,255,255)" fill-opacity="1.0"><path d="M 114.7896879240163,222.84855108930208 c 0.0,-10.116477778447369 -8.201025613682885,-18.317503392130256 -18.317503392130252 -18.317503392130256c -10.116477778447369,-6.194556065010448e-16 -18.317503392130256,8.201025613682884 -18.317503392130256 18.31750339213025c -1.2389112130020897e-15,10.116477778447369 8.201025613682884,18.317503392130256 18.31750339213025 18.317503392130256c 10.116477778447369,1.8583668195031344e-15 18.317503392130256,-8.201025613682882 18.317503392130263 -18.31750339213025Z" /></g></g></g><g fill="rgb(0,0,0)" fill-opacity="1.0" font-size="18.317503392130256em"><g fill="rgb(0,0,0)" fill-opacity="1.0"><text transform="matrix(1.0,0.0,0.0,1.0,96.47218453188606,222.84855108930208)" dominant-baseline="middle" text-anchor="middle" stroke="none">&#39;H&#39;</text></g></g></g><g><g fill="rgb(255,255,255)" fill-opacity="1.0"><g fill="rgb(255,255,255)" fill-opacity="1.0"><g fill="rgb(255,255,255)" fill-opacity="1.0"><path d="M 216.55359565807325,222.8485510893022 c 0.0,-10.116477778447369 -8.201025613682885,-18.317503392130256 -18.317503392130252 -18.317503392130256c -10.116477778447369,-6.194556065010448e-16 -18.317503392130256,8.201025613682884 -18.317503392130256 18.31750339213025c -1.2389112130020897e-15,10.116477778447369 8.201025613682884,18.317503392130256 18.31750339213025 18.317503392130256c 10.116477778447369,1.8583668195031344e-15 18.317503392130256,-8.201025613682882 18.317503392130263 -18.31750339213025Z" /></g></g></g><g fill="rgb(0,0,0)" fill-opacity="1.0" font-size="18.317503392130256em"><g fill="rgb(0,0,0)" fill-opacity="1.0"><text transform="matrix(1.0,0.0,0.0,1.0,198.236092265943,222.8485510893022)" dominant-baseline="middle" text-anchor="middle" stroke="none">&#39;G&#39;</text></g></g></g><g><g fill="rgb(255,255,255)" fill-opacity="1.0"><g fill="rgb(255,255,255)" fill-opacity="1.0"><g fill="rgb(255,255,255)" fill-opacity="1.0"><path d="M 267.43554952510175,310.97868037537125 c 0.0,-10.116477778447369 -8.201025613682885,-18.317503392130256 -18.317503392130252 -18.317503392130256c -10.116477778447369,-6.194556065010448e-16 -18.317503392130256,8.201025613682884 -18.317503392130256 18.31750339213025c -1.2389112130020897e-15,10.116477778447369 8.201025613682884,18.317503392130256 18.31750339213025 18.317503392130256c 10.116477778447369,1.8583668195031344e-15 18.317503392130256,-8.201025613682882 18.317503392130263 -18.31750339213025Z" /></g></g></g><g fill="rgb(0,0,0)" fill-opacity="1.0" font-size="18.317503392130256em"><g fill="rgb(0,0,0)" fill-opacity="1.0"><text transform="matrix(1.0,0.0,0.0,1.0,249.11804613297147,310.97868037537125)" dominant-baseline="middle" text-anchor="middle" stroke="none">&#39;F&#39;</text></g></g></g><g><g fill="rgb(255,255,255)" fill-opacity="1.0"><g fill="rgb(255,255,255)" fill-opacity="1.0"><g fill="rgb(255,255,255)" fill-opacity="1.0"><path d="M 216.5535956580732,399.1088096614402 c 0.0,-10.116477778447369 -8.201025613682885,-18.317503392130256 -18.317503392130252 -18.317503392130256c -10.116477778447369,-6.194556065010448e-16 -18.317503392130256,8.201025613682884 -18.317503392130256 18.31750339213025c -1.2389112130020897e-15,10.116477778447369 8.201025613682884,18.317503392130256 18.31750339213025 18.317503392130256c 10.116477778447369,1.8583668195031344e-15 18.317503392130256,-8.201025613682882 18.317503392130263 -18.31750339213025Z" /></g></g></g><g fill="rgb(0,0,0)" fill-opacity="1.0" font-size="18.317503392130256em"><g fill="rgb(0,0,0)" fill-opacity="1.0"><text transform="matrix(1.0,0.0,0.0,1.0,198.23609226594294,399.1088096614402)" dominant-baseline="middle" text-anchor="middle" stroke="none">&#39;E&#39;</text></g></g></g><g><g fill="rgb(255,255,255)" fill-opacity="1.0"><g fill="rgb(255,255,255)" fill-opacity="1.0"><g fill="rgb(255,255,255)" fill-opacity="1.0"><path d="M 114.78968792401625,399.1088096614402 c 0.0,-10.116477778447369 -8.201025613682885,-18.317503392130256 -18.317503392130252 -18.317503392130256c -10.116477778447369,-6.194556065010448e-16 -18.317503392130256,8.201025613682884 -18.317503392130256 18.31750339213025c -1.2389112130020897e-15,10.116477778447369 8.201025613682884,18.317503392130256 18.31750339213025 18.317503392130256c 10.116477778447369,1.8583668195031344e-15 18.317503392130256,-8.201025613682882 18.317503392130263 -18.31750339213025Z" /></g></g></g><g fill="rgb(0,0,0)" fill-opacity="1.0" font-size="18.317503392130256em"><g fill="rgb(0,0,0)" fill-opacity="1.0"><text transform="matrix(1.0,0.0,0.0,1.0,96.472184531886,399.1088096614402)" dominant-baseline="middle" text-anchor="middle" stroke="none">&#39;D&#39;</text></g></g></g><g><g fill="rgb(255,255,255)" fill-opacity="1.0"><g fill="rgb(255,255,255)" fill-opacity="1.0"><g fill="rgb(255,255,255)" fill-opacity="1.0"><path d="M 63.907734056987785,310.97868037537114 c 0.0,-10.116477778447369 -8.201025613682885,-18.317503392130256 -18.317503392130252 -18.317503392130256c -10.116477778447369,-6.194556065010448e-16 -18.317503392130256,8.201025613682884 -18.317503392130256 18.31750339213025c -1.2389112130020897e-15,10.116477778447369 8.201025613682884,18.317503392130256 18.31750339213025 18.317503392130256c 10.116477778447369,1.8583668195031344e-15 18.317503392130256,-8.201025613682882 18.317503392130263 -18.31750339213025Z" /></g></g></g><g fill="rgb(0,0,0)" fill-opacity="1.0" font-size="18.317503392130256em"><g fill="rgb(0,0,0)" fill-opacity="1.0"><text transform="matrix(1.0,0.0,0.0,1.0,45.59023066485753,310.97868037537114)" dominant-baseline="middle" text-anchor="middle" stroke="none">&#39;C&#39;</text></g></g></g><g><g fill="rgb(255,255,255)" fill-opacity="1.0"><g fill="rgb(255,255,255)" fill-opacity="1.0"><g fill="rgb(255,255,255)" fill-opacity="1.0"><path d="M 165.67164179104472,310.97868037537114 c 0.0,-10.116477778447369 -8.201025613682885,-18.317503392130256 -18.317503392130252 -18.317503392130256c -10.116477778447369,-6.194556065010448e-16 -18.317503392130256,8.201025613682884 -18.317503392130256 18.31750339213025c -1.2389112130020897e-15,10.116477778447369 8.201025613682884,18.317503392130256 18.31750339213025 18.317503392130256c 10.116477778447369,1.8583668195031344e-15 18.317503392130256,-8.201025613682882 18.317503392130263 -18.31750339213025Z" /></g></g></g><g fill="rgb(0,0,0)" fill-opacity="1.0" font-size="18.317503392130256em"><g fill="rgb(0,0,0)" fill-opacity="1.0"><text transform="matrix(1.0,0.0,0.0,1.0,147.35413839891447,310.97868037537114)" dominant-baseline="middle" text-anchor="middle" stroke="none">&#39;B&#39;</text></g></g></g><g><g fill="rgb(255,255,255)" fill-opacity="1.0"><g fill="rgb(255,255,255)" fill-opacity="1.0"><g fill="rgb(255,255,255)" fill-opacity="1.0"><path d="M 369.1994572591587,310.97868037537114 c 0.0,-10.116477778447369 -8.201025613682885,-18.317503392130256 -18.317503392130252 -18.317503392130256c -10.116477778447369,-6.194556065010448e-16 -18.317503392130256,8.201025613682884 -18.317503392130256 18.31750339213025c -1.2389112130020897e-15,10.116477778447369 8.201025613682884,18.317503392130256 18.31750339213025 18.317503392130256c 10.116477778447369,1.8583668195031344e-15 18.317503392130256,-8.201025613682882 18.317503392130263 -18.31750339213025Z" /></g></g></g><g fill="rgb(0,0,0)" fill-opacity="1.0" font-size="18.317503392130256em"><g fill="rgb(0,0,0)" fill-opacity="1.0"><text transform="matrix(1.0,0.0,0.0,1.0,350.8819538670284,310.97868037537114)" dominant-baseline="middle" text-anchor="middle" stroke="none">&#39;A&#39;</text></g></g></g></g></g></g></g></svg>