<?xml version="1.0" encoding="UTF-8"?>
<!DOCTYPE svg PUBLIC "-//W3C//DTD SVG 1.1//EN"
    "http://www.w3.org/Graphics/SVG/1.1/DTD/svg11.dtd">
<svg xmlns="http://www.w3.org/2000/svg" xmlns:xlink="http://www.w3.org/1999/xlink" version="1.1" width="600.0" height="600.0" font-size="1" viewBox="0 0 600 600" stroke="rgb(0,0,0)" stroke-opacity="1"><g><g fill="rgb(0,0,0)" fill-opacity="0.0"><g stroke="rgb(0,0,0)" stroke-opacity="1.0" stroke-width="2.400000000000001" stroke-linecap="butt" stroke-linejoin="miter" font-size="1.0em" stroke-miterlimit="10.0"><g><path d="M 300.0,300.0 l -155.52201932255429,-155.52201932255448 " /><path d="M 300.0,300.0 v -219.94134897360698 " /><path d="M 300.0,300.0 l 155.52201932255448,-155.52201932255448 " /><path d="M 300.0,300.0 h 219.94134897360698 " /><path d="M 300.0,300.0 l 155.52201932255448,155.52201932255448 " /><path d="M 300.0,300.0 v 219.94134897360698 " /><path d="M 300.0,300.0 l -155.52201932255448,155.52201932255448 " /><path d="M 300.0,300.0 h -219.94134897360698 " /><g><g fill="rgb(255,255,255)" fill-opacity="1.0"><g fill="rgb(255,255,255)" fill-opacity="1.0"><g fill="rgb(255,255,255)" fill-opacity="1.0"><path d="M 197.2639044311113,144.47798067744543 c 0.0,-29.152860694880584 -23.633063058785083,-52.78592375366567 -52.78592375366566 -52.78592375366567c -29.152860694880584,-1.7850978767987095e-15 -52.78592375366567,23.63306305878508 -52.78592375366567 52.78592375366566c -3.570195753597419e-15,29.152860694880584 23.633063058785076,52.78592375366567 52.78592375366565 52.78592375366567c 29.152860694880584,5.3552936303961285e-15 52.78592375366567,-23.633063058785073 52.78592375366568 -52.78592375366566Z" /></g></g></g><g fill="rgb(0,0,0)" fill-opacity="1.0" font-size="52.78592375366567em"><g fill="rgb(0,0,0)" fill-opacity="1.0"><text transform="matrix(0.9999999999999999,0.0,0.0,0.9999999999999999,144.47798067744566,144.47798067744543)" dominant-baseline="middle" text-anchor="middle" stroke="none">&#39;I&#39;</text></g></g></g><g><g fill="rgb(255,255,255)" fill-opacity="1.0"><g fill="rgb(255,255,255)" fill-opacity="1.0"><g fill="rgb(255,255,255)" fill-opacity="1.0"><path d="M 352.78592375366566,80.05865102639291 c 0.0,-29.152860694880584 -23.633063058785083,-52.78592375366567 -52.78592375366566 -52.78592375366567c -29.152860694880584,-1.7850978767987095e-15 -52.78592375366567,23.63306305878508 -52.78592375366567 52.78592375366566c -3.570195753597419e-15,29.152860694880584 23.633063058785076,52.78592375366567 52.78592375366565 52.78592375366567c 29.152860694880584,5.3552936303961285e-15 52.78592375366567,-23.633063058785073 52.78592375366568 -52.78592375366566Z" /></g></g></g><g fill="rgb(0,0,0)" fill-opacity="1.0" font-size="52.78592375366567em"><g fill="rgb(0,0,0)" fill-opacity="1.0"><text transform="matrix(0.9999999999999999,0.0,0.0,0.9999999999999999,300.0,80.05865102639291)" dominant-baseline="middle" text-anchor="middle" stroke="none">&#39;H&#39;</text></g></g></g><g><g fill="rgb(255,255,255)" fill-opacity="1.0"><g fill="rgb(255,255,255)" fill-opacity="1.0"><g fill="rgb(255,255,255)" fill-opacity="1.0"><path d="M 508.3079430762202,144.47798067744543 c 0.0,-29.152860694880584 -23.633063058785083,-52.78592375366567 -52.78592375366566 -52.78592375366567c -29.152860694880584,-1.7850978767987095e-15 -52.78592375366567,23.63306305878508 -52.78592375366567 52.78592375366566c -3.570195753597419e-15,29.152860694880584 23.633063058785076,52.78592375366567 52.78592375366565 52.78592375366567c 29.152860694880584,5.3552936303961285e-15 52.78592375366567,-23.633063058785073 52.78592375366568 -52.78592375366566Z" /></g></g></g><g fill="rgb(0,0,0)" fill-opacity="1.0" font-size="52.78592375366567em"><g fill="rgb(0,0,0)" fill-opacity="1.0"><text transform="matrix(0.9999999999999999,0.0,0.0,0.9999999999999999,455.52201932255457,144.47798067744543)" dominant-baseline="middle" text-anchor="middle" stroke="none">&#39;G&#39;</text></g></g></g><g><g fill="rgb(255,255,255)" fill-opacity="1.0"><g fill="rgb(255,255,255)" fill-opacity="1.0"><g fill="rgb(255,255,255)" fill-opacity="1.0"><path d="M 572.7272727272727,300.0 c 0.0,-29.152860694880584 -23.633063058785083,-52.78592375366567 -52.78592375366566 -52.78592375366567c -29.152860694880584,-1.7850978767987095e-15 -52.78592375366567,23.63306305878508 -52.78592375366567 52.78592375366566c -3.570195753597419e-15,29.152860694880584 23.633063058785076,52.78592375366567 52.78592375366565 52.78592375366567c 29.152860694880584,5.3552936303961285e-15 52.78592375366567,-23.633063058785073 52.78592375366568 -52.78592375366566Z" /></g></g></g><g fill="rgb(0,0,0)" fill-opacity="1.0" font-size="52.78592375366567em"><g fill="rgb(0,0,0)" fill-opacity="1.0"><text transform="matrix(0.9999999999999999,0.0,0.0,0.9999999999999999,519.9413489736071,300.0)" dominant-baseline="middle" text-anchor="middle" stroke="none">&#39;F&#39;</text></g></g></g><g><g fill="rgb(255,255,255)" fill-opacity="1.0"><g fill="rgb(255,255,255)" fill-opacity="1.0"><g fill="rgb(255,255,255)" fill-opacity="1.0"><path d="M 508.3079430762202,455.52201932255457 c 0.0,-29.152860694880584 -23.633063058785083,-52.78592375366567 -52.78592375366566 -52.78592375366567c -29.152860694880584,-1.7850978767987095e-15 -52.78592375366567,23.63306305878508 -52.78592375366567 52.78592375366566c -3.570195753597419e-15,29.152860694880584 23.633063058785076,52.78592375366567 52.78592375366565 52.78592375366567c 29.152860694880584,5.3552936303961285e-15 52.78592375366567,-23.633063058785073 52.78592375366568 -52.78592375366566Z" /></g></g></g><g fill="rgb(0,0,0)" fill-opacity="1.0" font-size="52.78592375366567em"><g fill="rgb(0,0,0)" fill-opacity="1.0"><text transform="matrix(0.9999999999999999,0.0,0.0,0.9999999999999999,455.52201932255457,455.52201932255457)" dominant-baseline="middle" text-anchor="middle" stroke="none">&#39;E&#39;</text></g></g></g><g><g fill="rgb(255,255,255)" fill-opacity="1.0"><g fill="rgb(255,255,255)" fill-opacity="1.0"><g fill="rgb(255,255,255)" fill-opacity="1.0"><path d="M 352.78592375366566,519.9413489736071 c 0.0,-29.152860694880584 -23.633063058785083,-52.78592375366567 -52.78592375366566 -52.78592375366567c -29.152860694880584,-1.7850978767987095e-15 -52.78592375366567,23.63306305878508 -52.78592375366567 52.78592375366566c -3.570195753597419e-15,29.152860694880584 23.633063058785076,52.78592375366567 52.78592375366565 52.78592375366567c 29.152860694880584,5.3552936303961285e-15 52.78592375366567,-23.633063058785073 52.78592375366568 -52.78592375366566Z" /></g></g></g><g fill="rgb(0,0,0)" fill-opacity="1.0" font-size="52.78592375366567em"><g fill="rgb(0,0,0)" fill-opacity="1.0"><text transform="matrix(0.9999999999999999,0.0,0.0,0.9999999999999999,300.0,519.9413489736071)" dominant-baseline="middle" text-anchor="middle" stroke="none">&#39;D&#39;</text></g></g></g><g><g fill="rgb(255,255,255)" fill-opacity="1.0"><g fill="rgb(255,255,255)" fill-opacity="1.0"><g fill="rgb(255,255,255)" fill-opacity="1.0"><path d="M 197.2639044311111,455.52201932255457 c 0.0,-29.152860694880584 -23.633063058785083,-52.78592375366567 -52.78592375366566 -52.78592375366567c -29.152860694880584,-1.7850978767987095e-15 -52.78592375366567,23.63306305878508 -52.78592375366567 52.78592375366566c -3.570195753597419e-15,29.152860694880584 23.633063058785076,52.78592375366567 52.78592375366565 52.78592375366567c 29.152860694880584,5.3552936303961285e-15 52.78592375366567,-23.633063058785073 52.78592375366568 -52.78592375366566Z" /></g></g></g><g fill="rgb(0,0,0)" fill-opacity="1.0" font-size="52.78592375366567em"><g fill="rgb(0,0,0)" fill-opacity="1.0"><text transform="matrix(0.9999999999999999,0.0,0.0,0.9999999999999999,144.47798067744543,455.52201932255457)" dominant-baseline="middle" text-anchor="middle" stroke="none">&#39;C&#39;</text></g></g></g><g><g fill="rgb(255,255,255)" fill-opacity="1.0"><g fill="rgb(255,255,255)" fill-opacity="1.0"><g fill="rgb(255,255,255)" fill-opacity="1.0"><path d="M 132.84457478005857,300.0 c 0.0,-29.152860694880584 -23.633063058785083,-52.78592375366567 -52.78592375366566 -52.78592375366567c -29.152860694880584,-1.7850978767987095e-15 -52.78592375366567,23.63306305878508 -52.78592375366567 52.78592375366566c -3.570195753597419e-15,29.152860694880584 23.633063058785076,52.78592375366567 52.78592375366565 52.78592375366567c 29.152860694880584,5.3552936303961285e-15 52.78592375366567,-23.633063058785073 52.78592375366568 -52.78592375366566Z" /></g></g></g><g fill="rgb(0,0,0)" fill-opacity="1.0" font-size="52.78592375366567em"><g fill="rgb(0,0,0)" fill-opacity="1.0"><text transform="matrix(0.9999999999999999,0.0,0.0,0.9999999999999999,80.05865102639291,300.0)" dominant-baseline="middle" text-anchor="middle" stroke="none">&#39;B&#39;</text></g></g></g><g><g fill="rgb(255,255,255)" fill-opacity="1.0"><g fill="rgb(255,255,255)" fill-opacity="1.0"><g fill="rgb(255,255,255)" fill-opacity="1.0"><path d="M 352.78592375366566,300.0 c 0.0,-29.152860694880584 -23.633063058785083,-52.78592375366567 -52.78592375366566 -52.78592375366567c -29.152860694880584,-1.7850978767987095e-15 -52.78592375366567,23.63306305878508 -52.78592375366567 52.78592375366566c -3.570195753597419e-15,29.152860694880584 23.633063058785076,52.78592375366567 52.78592375366565 52.78592375366567c 29.152860694880584,5.3552936303961285e-15 52.78592375366567,-23.633063058785073 52.78592375366568 -52.78592375366566Z" /></g></g></g><g fill="rgb(0,0,0)" fill-opacity="1.0" font-size="52.78592375366567em"><g fill="rgb(0,0,0)" fill-opacity="1.0"><text transform="matrix(0.9999999999999999,0.0,0.0,0.9999999999999999,300.0,300.0)" dominant-baseline="middle" text-anchor="middle" stroke="none">&#39;A&#39;</text></g></g></g></g></g></g></g></svg>