<?xml version="1.0" encoding="UTF-8"?>
<!DOCTYPE svg PUBLIC "-//W3C//DTD SVG 1.1//EN"
    "http://www.w3.org/Graphics/SVG/1.1/DTD/svg11.dtd">
<svg xmlns="http://www.w3.org/2000/svg" xmlns:xlink="http://www.w3.org/1999/xlink" version="1.1" width="600.0" height="600.0" font-size="1" viewBox="0 0 600 600" stroke="rgb(0,0,0)" stroke-opacity="1"><g><g fill="rgb(0,0,0)" fill-opacity="0.0"><g stroke="rgb(0,0,0)" stroke-opacity="1.0" stroke-width="2.4" stroke-linecap="butt" stroke-linejoin="miter" font-size="1.0em" stroke-miterlimit="10.0"><g><path d="M 299.99999999999994,300.00000000000006 l -149.60460841590822,-149.60460841590827 " /><path d="M 299.99999999999994,300.00000000000006 l 149.60460841590827,-149.60460841590822 " /><path d="M 299.99999999999994,300.00000000000006 l 149.60460841590825,149.60460841590825 " /><path d="M 299.99999999999994,300.00000000000006 l -149.60460841590825,149.60460841590825 " /><path d="M 150.39539158409173,150.39539158409178 l -97.73392036552914,-40.482715319294286 " /><path d="M 150.39539158409173,150.39539158409178 l -40.48271531929419,-97.73392036552922 " /><path d="M 150.39539158409173,150.39539158409178 l 40.482715319294265,-97.73392036552917 " /><path d="M 150.39539158409173,150.39539158409178 l 97.7339203655292,-40.482715319294215 " /><path d="M 150.39539158409173,150.39539158409178 l 97.73392036552919,40.482715319294265 " /><path d="M 150.39539158409173,150.39539158409178 l 40.482715319294215,97.7339203655292 " /><path d="M 150.39539158409173,150.39539158409178 l -40.482715319294236,97.73392036552919 " /><path d="M 150.39539158409173,150.39539158409178 l -97.73392036552919,40.482715319294236 " /><g><g fill="rgb(255,255,255)" fill-opacity="1.0"><g fill="rgb(255,255,255)" fill-opacity="1.0"><g fill="rgb(255,255,255)" fill-opacity="1.0"><path d="M 78.0502151643978,109.91267626479748 c 0.0,-14.021816098643676 -11.36692784719154,-25.38874394583522 -25.388743945835213 -25.38874394583522c -14.021816098643676,-8.585886101718403e-16 -25.38874394583522,11.366927847191539 -25.38874394583522 25.388743945835213c -1.7171772203436806e-15,14.021816098643676 11.366927847191539,25.38874394583522 25.38874394583521 25.38874394583522c 14.021816098643676,2.5757658305155206e-15 25.38874394583522,-11.366927847191537 25.388743945835223 -25.388743945835213Z" /></g></g></g><g fill="rgb(0,0,0)" fill-opacity="1.0" font-size="25.38874394583522em"><g fill="rgb(0,0,0)" fill-opacity="1.0"><text transform="matrix(1.0,0.0,0.0,1.0,52.66147121856258,109.91267626479748)" dominant-baseline="middle" text-anchor="middle" stroke="none">&#39;K&#39;</text></g></g></g><g><g fill="rgb(255,255,255)" fill-opacity="1.0"><g fill="rgb(255,255,255)" fill-opacity="1.0"><g fill="rgb(255,255,255)" fill-opacity="1.0"><path d="M 135.30142021063276,52.66147121856255 c 0.0,-14.021816098643676 -11.36692784719154,-25.38874394583522 -25.388743945835213 -25.38874394583522c -14.021816098643676,-8.585886101718403e-16 -25.38874394583522,11.366927847191539 -25.38874394583522 25.388743945835213c -1.7171772203436806e-15,14.021816098643676 11.366927847191539,25.38874394583522 25.38874394583521 25.38874394583522c 14.021816098643676,2.5757658305155206e-15 25.38874394583522,-11.366927847191537 25.388743945835223 -25.388743945835213Z" /></g></g></g><g fill="rgb(0,0,0)" fill-opacity="1.0" font-size="25.38874394583522em"><g fill="rgb(0,0,0)" fill-opacity="1.0"><text transform="matrix(1.0,0.0,0.0,1.0,109.91267626479754,52.66147121856255)" dominant-baseline="middle" text-anchor="middle" stroke="none">&#39;K&#39;</text></g></g></g><g><g fill="rgb(255,255,255)" fill-opacity="1.0"><g fill="rgb(255,255,255)" fill-opacity="1.0"><g fill="rgb(255,255,255)" fill-opacity="1.0"><path d="M 216.2668508492212,52.66147121856261 c 0.0,-14.021816098643676 -11.36692784719154,-25.38874394583522 -25.388743945835213 -25.38874394583522c -14.021816098643676,-8.585886101718403e-16 -25.38874394583522,11.366927847191539 -25.38874394583522 25.388743945835213c -1.7171772203436806e-15,14.021816098643676 11.366927847191539,25.38874394583522 25.38874394583521 25.38874394583522c 14.021816098643676,2.5757658305155206e-15 25.38874394583522,-11.366927847191537 25.388743945835223 -25.388743945835213Z" /></g></g></g><g fill="rgb(0,0,0)" fill-opacity="1.0" font-size="25.38874394583522em"><g fill="rgb(0,0,0)" fill-opacity="1.0"><text transform="matrix(1.0,0.0,0.0,1.0,190.878106903386,52.66147121856261)" dominant-baseline="middle" text-anchor="middle" stroke="none">&#39;H&#39;</text></g></g></g><g><g fill="rgb(255,255,255)" fill-opacity="1.0"><g fill="rgb(255,255,255)" fill-opacity="1.0"><g fill="rgb(255,255,255)" fill-opacity="1.0"><path d="M 273.5180558954562,109.91267626479757 c 0.0,-14.021816098643676 -11.36692784719154,-25.38874394583522 -25.388743945835213 -25.38874394583522c -14.021816098643676,-8.585886101718403e-16 -25.38874394583522,11.366927847191539 -25.38874394583522 25.388743945835213c -1.7171772203436806e-15,14.021816098643676 11.366927847191539,25.38874394583522 25.38874394583521 25.38874394583522c 14.021816098643676,2.5757658305155206e-15 25.38874394583522,-11.366927847191537 25.388743945835223 -25.388743945835213Z" /></g></g></g><g fill="rgb(0,0,0)" fill-opacity="1.0" font-size="25.38874394583522em"><g fill="rgb(0,0,0)" fill-opacity="1.0"><text transform="matrix(1.0,0.0,0.0,1.0,248.12931194962096,109.91267626479757)" dominant-baseline="middle" text-anchor="middle" stroke="none">&#39;G&#39;</text></g></g></g><g><g fill="rgb(255,255,255)" fill-opacity="1.0"><g fill="rgb(255,255,255)" fill-opacity="1.0"><g fill="rgb(255,255,255)" fill-opacity="1.0"><path d="M 273.51805589545614,190.87810690338603 c 0.0,-14.021816098643676 -11.36692784719154,-25.38874394583522 -25.388743945835213 -25.38874394583522c -14.021816098643676,-8.585886101718403e-16 -25.38874394583522,11.366927847191539 -25.38874394583522 25.388743945835213c -1.7171772203436806e-15,14.021816098643676 11.366927847191539,25.38874394583522 25.38874394583521 25.38874394583522c 14.021816098643676,2.5757658305155206e-15 25.38874394583522,-11.366927847191537 25.388743945835223 -25.388743945835213Z" /></g></g></g><g fill="rgb(0,0,0)" fill-opacity="1.0" font-size="25.38874394583522em"><g fill="rgb(0,0,0)" fill-opacity="1.0"><text transform="matrix(1.0,0.0,0.0,1.0,248.1293119496209,190.87810690338603)" dominant-baseline="middle" text-anchor="middle" stroke="none">&#39;F&#39;</text></g></g></g><g><g fill="rgb(255,255,255)" fill-opacity="1.0"><g fill="rgb(255,255,255)" fill-opacity="1.0"><g fill="rgb(255,255,255)" fill-opacity="1.0"><path d="M 216.26685084922119,248.12931194962098 c 0.0,-14.021816098643676 -11.36692784719154,-25.38874394583522 -25.388743945835213 -25.38874394583522c -14.021816098643676,-8.585886101718403e-16 -25.38874394583522,11.366927847191539 -25.38874394583522 25.388743945835213c -1.7171772203436806e-15,14.021816098643676 11.366927847191539,25.38874394583522 25.38874394583521 25.38874394583522c 14.021816098643676,2.5757658305155206e-15 25.38874394583522,-11.366927847191537 25.388743945835223 -25.388743945835213Z" /></g></g></g><g fill="rgb(0,0,0)" fill-opacity="1.0" font-size="25.38874394583522em"><g fill="rgb(0,0,0)" fill-opacity="1.0"><text transform="matrix(1.0,0.0,0.0,1.0,190.87810690338597,248.12931194962098)" dominant-baseline="middle" text-anchor="middle" stroke="none">&#39;E&#39;</text></g></g></g><g><g fill="rgb(255,255,255)" fill-opacity="1.0"><g fill="rgb(255,255,255)" fill-opacity="1.0"><g fill="rgb(255,255,255)" fill-opacity="1.0"><path d="M 135.3014202106327,248.12931194962096 c 0.0,-14.021816098643676 -11.36692784719154,-25.38874394583522 -25.388743945835213 -25.38874394583522c -14.021816098643676,-8.585886101718403e-16 -25.38874394583522,11.366927847191539 -25.38874394583522 25.388743945835213c -1.7171772203436806e-15,14.021816098643676 11.366927847191539,25.38874394583522 25.38874394583521 25.38874394583522c 14.021816098643676,2.5757658305155206e-15 25.38874394583522,-11.366927847191537 25.388743945835223 -25.388743945835213Z" /></g></g></g><g fill="rgb(0,0,0)" fill-opacity="1.0" font-size="25.38874394583522em"><g fill="rgb(0,0,0)" fill-opacity="1.0"><text transform="matrix(1.0,0.0,0.0,1.0,109.91267626479748,248.12931194962096)" dominant-baseline="middle" text-anchor="middle" stroke="none">&#39;D&#39;</text></g></g></g><g><g fill="rgb(255,255,255)" fill-opacity="1.0"><g fill="rgb(255,255,255)" fill-opacity="1.0"><g fill="rgb(255,255,255)" fill-opacity="1.0"><path d="M 78.05021516439777,190.87810690338603 c 0.0,-14.021816098643676 -11.36692784719154,-25.38874394583522 -25.388743945835213 -25.38874394583522c -14.021816098643676,-8.585886101718403e-16 -25.38874394583522,11.366927847191539 -25.38874394583522 25.388743945835213c -1.7171772203436806e-15,14.021816098643676 11.366927847191539,25.38874394583522 25.38874394583521 25.38874394583522c 14.021816098643676,2.5757658305155206e-15 25.38874394583522,-11.366927847191537 25.388743945835223 -25.388743945835213Z" /></g></g></g><g fill="rgb(0,0,0)" fill-opacity="1.0" font-size="25.38874394583522em"><g fill="rgb(0,0,0)" fill-opacity="1.0"><text transform="matrix(1.0,0.0,0.0,1.0,52.66147121856255,190.87810690338603)" dominant-baseline="middle" text-anchor="middle" stroke="none">&#39;C&#39;</text></g></g></g><g><g fill="rgb(255,255,255)" fill-opacity="1.0"><g fill="rgb(255,255,255)" fill-opacity="1.0"><g fill="rgb(255,255,255)" fill-opacity="1.0"><path d="M 175.78413552992694,150.39539158409178 c 0.0,-14.021816098643676 -11.36692784719154,-25.38874394583522 -25.388743945835213 -25.38874394583522c -14.021816098643676,-8.585886101718403e-16 -25.38874394583522,11.366927847191539 -25.38874394583522 25.388743945835213c -1.7171772203436806e-15,14.021816098643676 11.366927847191539,25.38874394583522 25.38874394583521 25.38874394583522c 14.021816098643676,2.5757658305155206e-15 25.38874394583522,-11.366927847191537 25.388743945835223 -25.388743945835213Z" /></g></g></g><g fill="rgb(0,0,0)" fill-opacity="1.0" font-size="25.38874394583522em"><g fill="rgb(0,0,0)" fill-opacity="1.0"><text transform="matrix(1.0,0.0,0.0,1.0,150.39539158409173,150.39539158409178)" dominant-baseline="middle" text-anchor="middle" stroke="none">&#39;B&#39;</text></g></g></g><path d="M 449.6046084159082,150.39539158409184 l -97.73392036552917,-40.482715319294286 " /><path d="M 449.6046084159082,150.39539158409184 l -40.48271531929419,-97.73392036552924 " /><path d="M 449.6046084159082,150.39539158409184 l 40.482715319294265,-97.73392036552914 " /><path d="M 449.6046084159082,150.39539158409184 l 97.73392036552922,-40.48271531929419 " /><path d="M 449.6046084159082,150.39539158409184 l 97.73392036552917,40.482715319294236 " /><path d="M 449.6046084159082,150.39539158409184 l 40.482715319294215,97.7339203655292 " /><path d="M 449.6046084159082,150.39539158409184 l -40.482715319294236,97.73392036552919 " /><path d="M 449.6046084159082,150.39539158409184 l -97.73392036552919,40.482715319294236 " /><g><g fill="rgb(255,255,255)" fill-opacity="1.0"><g fill="rgb(255,255,255)" fill-opacity="1.0"><g fill="rgb(255,255,255)" fill-opacity="1.0"><path d="M 377.2594319962143,109.91267626479757 c 0.0,-14.021816098643676 -11.36692784719154,-25.38874394583522 -25.388743945835213 -25.38874394583522c -14.021816098643676,-8.585886101718403e-16 -25.38874394583522,11.366927847191539 -25.38874394583522 25.388743945835213c -1.7171772203436806e-15,14.021816098643676 11.366927847191539,25.38874394583522 25.38874394583521 25.38874394583522c 14.021816098643676,2.5757658305155206e-15 25.38874394583522,-11.366927847191537 25.388743945835223 -25.388743945835213Z" /></g></g></g><g fill="rgb(0,0,0)" fill-opacity="1.0" font-size="25.38874394583522em"><g fill="rgb(0,0,0)" fill-opacity="1.0"><text transform="matrix(1.0,0.0,0.0,1.0,351.87068805037904,109.91267626479757)" dominant-baseline="middle" text-anchor="middle" stroke="none">&#39;K&#39;</text></g></g></g><g><g fill="rgb(255,255,255)" fill-opacity="1.0"><g fill="rgb(255,255,255)" fill-opacity="1.0"><g fill="rgb(255,255,255)" fill-opacity="1.0"><path d="M 434.5106370424493,52.66147121856261 c 0.0,-14.021816098643676 -11.36692784719154,-25.38874394583522 -25.388743945835213 -25.38874394583522c -14.021816098643676,-8.585886101718403e-16 -25.38874394583522,11.366927847191539 -25.38874394583522 25.388743945835213c -1.7171772203436806e-15,14.021816098643676 11.366927847191539,25.38874394583522 25.38874394583521 25.38874394583522c 14.021816098643676,2.5757658305155206e-15 25.38874394583522,-11.366927847191537 25.388743945835223 -25.388743945835213Z" /></g></g></g><g fill="rgb(0,0,0)" fill-opacity="1.0" font-size="25.38874394583522em"><g fill="rgb(0,0,0)" fill-opacity="1.0"><text transform="matrix(1.0,0.0,0.0,1.0,409.12189309661403,52.66147121856261)" dominant-baseline="middle" text-anchor="middle" stroke="none">&#39;K&#39;</text></g></g></g><g><g fill="rgb(255,255,255)" fill-opacity="1.0"><g fill="rgb(255,255,255)" fill-opacity="1.0"><g fill="rgb(255,255,255)" fill-opacity="1.0"><path d="M 515.4760676810378,52.661471218562696 c 0.0,-14.021816098643676 -11.36692784719154,-25.38874394583522 -25.388743945835213 -25.38874394583522c -14.021816098643676,-8.585886101718403e-16 -25.38874394583522,11.366927847191539 -25.38874394583522 25.388743945835213c -1.7171772203436806e-15,14.021816098643676 11.366927847191539,25.38874394583522 25.38874394583521 25.38874394583522c 14.021816098643676,2.5757658305155206e-15 25.38874394583522,-11.366927847191537 25.388743945835223 -25.388743945835213Z" /></g></g></g><g fill="rgb(0,0,0)" fill-opacity="1.0" font-size="25.38874394583522em"><g fill="rgb(0,0,0)" fill-opacity="1.0"><text transform="matrix(1.0,0.0,0.0,1.0,490.0873237352025,52.661471218562696)" dominant-baseline="middle" text-anchor="middle" stroke="none">&#39;H&#39;</text></g></g></g><g><g fill="rgb(255,255,255)" fill-opacity="1.0"><g fill="rgb(255,255,255)" fill-opacity="1.0"><g fill="rgb(255,255,255)" fill-opacity="1.0"><path d="M 572.7272727272726,109.91267626479765 c 0.0,-14.021816098643676 -11.36692784719154,-25.38874394583522 -25.388743945835213 -25.38874394583522c -14.021816098643676,-8.585886101718403e-16 -25.38874394583522,11.366927847191539 -25.38874394583522 25.388743945835213c -1.7171772203436806e-15,14.021816098643676 11.366927847191539,25.38874394583522 25.38874394583521 25.38874394583522c 14.021816098643676,2.5757658305155206e-15 25.38874394583522,-11.366927847191537 25.388743945835223 -25.388743945835213Z" /></g></g></g><g fill="rgb(0,0,0)" fill-opacity="1.0" font-size="25.38874394583522em"><g fill="rgb(0,0,0)" fill-opacity="1.0"><text transform="matrix(1.0,0.0,0.0,1.0,547.3385287814374,109.91267626479765)" dominant-baseline="middle" text-anchor="middle" stroke="none">&#39;G&#39;</text></g></g></g><g><g fill="rgb(255,255,255)" fill-opacity="1.0"><g fill="rgb(255,255,255)" fill-opacity="1.0"><g fill="rgb(255,255,255)" fill-opacity="1.0"><path d="M 572.7272727272726,190.87810690338608 c 0.0,-14.021816098643676 -11.36692784719154,-25.38874394583522 -25.388743945835213 -25.38874394583522c -14.021816098643676,-8.585886101718403e-16 -25.38874394583522,11.366927847191539 -25.38874394583522 25.388743945835213c -1.7171772203436806e-15,14.021816098643676 11.366927847191539,25.38874394583522 25.38874394583521 25.38874394583522c 14.021816098643676,2.5757658305155206e-15 25.38874394583522,-11.366927847191537 25.388743945835223 -25.388743945835213Z" /></g></g></g><g fill="rgb(0,0,0)" fill-opacity="1.0" font-size="25.38874394583522em"><g fill="rgb(0,0,0)" fill-opacity="1.0"><text transform="matrix(1.0,0.0,0.0,1.0,547.3385287814374,190.87810690338608)" dominant-baseline="middle" text-anchor="middle" stroke="none">&#39;F&#39;</text></g></g></g><g><g fill="rgb(255,255,255)" fill-opacity="1.0"><g fill="rgb(255,255,255)" fill-opacity="1.0"><g fill="rgb(255,255,255)" fill-opacity="1.0"><path d="M 515.4760676810376,248.12931194962107 c 0.0,-14.021816098643676 -11.36692784719154,-25.38874394583522 -25.388743945835213 -25.38874394583522c -14.021816098643676,-8.585886101718403e-16 -25.38874394583522,11.366927847191539 -25.38874394583522 25.388743945835213c -1.7171772203436806e-15,14.021816098643676 11.366927847191539,25.38874394583522 25.38874394583521 25.38874394583522c 14.021816098643676,2.5757658305155206e-15 25.38874394583522,-11.366927847191537 25.388743945835223 -25.388743945835213Z" /></g></g></g><g fill="rgb(0,0,0)" fill-opacity="1.0" font-size="25.38874394583522em"><g fill="rgb(0,0,0)" fill-opacity="1.0"><text transform="matrix(1.0,0.0,0.0,1.0,490.0873237352024,248.12931194962107)" dominant-baseline="middle" text-anchor="middle" stroke="none">&#39;N&#39;</text></g></g></g><g><g fill="rgb(255,255,255)" fill-opacity="1.0"><g fill="rgb(255,255,255)" fill-opacity="1.0"><g fill="rgb(255,255,255)" fill-opacity="1.0"><path d="M 434.5106370424492,248.12931194962104 c 0.0,-14.021816098643676 -11.36692784719154,-25.38874394583522 -25.388743945835213 -25.38874394583522c -14.021816098643676,-8.585886101718403e-16 -25.38874394583522,11.366927847191539 -25.38874394583522 25.388743945835213c -1.7171772203436806e-15,14.021816098643676 11.366927847191539,25.38874394583522 25.38874394583521 25.38874394583522c 14.021816098643676,2.5757658305155206e-15 25.38874394583522,-11.366927847191537 25.388743945835223 -25.388743945835213Z" /></g></g></g><g fill="rgb(0,0,0)" fill-opacity="1.0" font-size="25.38874394583522em"><g fill="rgb(0,0,0)" fill-opacity="1.0"><text transform="matrix(1.0,0.0,0.0,1.0,409.121893096614,248.12931194962104)" dominant-baseline="middle" text-anchor="middle" stroke="none">&#39;M&#39;</text></g></g></g><g><g fill="rgb(255,255,255)" fill-opacity="1.0"><g fill="rgb(255,255,255)" fill-opacity="1.0"><g fill="rgb(255,255,255)" fill-opacity="1.0"><path d="M 377.2594319962143,190.87810690338608 c 0.0,-14.021816098643676 -11.36692784719154,-25.38874394583522 -25.388743945835213 -25.38874394583522c -14.021816098643676,-8.585886101718403e-16 -25.38874394583522,11.366927847191539 -25.38874394583522 25.388743945835213c -1.7171772203436806e-15,14.021816098643676 11.366927847191539,25.38874394583522 25.38874394583521 25.38874394583522c 14.021816098643676,2.5757658305155206e-15 25.38874394583522,-11.366927847191537 25.388743945835223 -25.388743945835213Z" /></g></g></g><g fill="rgb(0,0,0)" fill-opacity="1.0" font-size="25.38874394583522em"><g fill="rgb(0,0,0)" fill-opacity="1.0"><text transform="matrix(1.0,0.0,0.0,1.0,351.87068805037904,190.87810690338608)" dominant-baseline="middle" text-anchor="middle" stroke="none">&#39;L&#39;</text></g></g></g><g><g fill="rgb(255,255,255)" fill-opacity="1.0"><g fill="rgb(255,255,255)" fill-opacity="1.0"><g fill="rgb(255,255,255)" fill-opacity="1.0"><path d="M 474.99335236174346,150.39539158409184 c 0.0,-14.021816098643676 -11.36692784719154,-25.38874394583522 -25.388743945835213 -25.38874394583522c -14.021816098643676,-8.585886101718403e-16 -25.38874394583522,11.366927847191539 -25.38874394583522 25.388743945835213c -1.7171772203436806e-15,14.021816098643676 11.366927847191539,25.38874394583522 25.38874394583521 25.38874394583522c 14.021816098643676,2.5757658305155206e-15 25.38874394583522,-11.366927847191537 25.388743945835223 -25.388743945835213Z" /></g></g></g><g fill="rgb(0,0,0)" fill-opacity="1.0" font-size="25.38874394583522em"><g fill="rgb(0,0,0)" fill-opacity="1.0"><text transform="matrix(1.0,0.0,0.0,1.0,449.6046084159082,150.39539158409184)" dominant-baseline="middle" text-anchor="middle" stroke="none">&#39;K&#39;</text></g></g></g><path d="M 449.60460841590816,449.6046084159083 l -97.73392036552917,-40.482715319294286 " /><path d="M 449.60460841590816,449.6046084159083 l -40.48271531929419,-97.73392036552922 " /><path d="M 449.60460841590816,449.6046084159083 l 40.482715319294265,-97.73392036552917 " /><path d="M 449.60460841590816,449.6046084159083 l 97.73392036552922,-40.48271531929419 " /><path d="M 449.60460841590816,449.6046084159083 l 97.73392036552917,40.482715319294236 " /><path d="M 449.60460841590816,449.6046084159083 l 40.482715319294215,97.73392036552919 " /><path d="M 449.60460841590816,449.6046084159083 l -40.482715319294236,97.73392036552919 " /><path d="M 449.60460841590816,449.6046084159083 l -97.73392036552919,40.482715319294236 " /><g><g fill="rgb(255,255,255)" fill-opacity="1.0"><g fill="rgb(255,255,255)" fill-opacity="1.0"><g fill="rgb(255,255,255)" fill-opacity="1.0"><path d="M 377.25943199621423,409.12189309661403 c 0.0,-14.021816098643676 -11.36692784719154,-25.38874394583522 -25.388743945835213 -25.38874394583522c -14.021816098643676,-8.585886101718403e-16 -25.38874394583522,11.366927847191539 -25.38874394583522 25.388743945835213c -1.7171772203436806e-15,14.021816098643676 11.366927847191539,25.38874394583522 25.38874394583521 25.38874394583522c 14.021816098643676,2.5757658305155206e-15 25.38874394583522,-11.366927847191537 25.388743945835223 -25.388743945835213Z" /></g></g></g><g fill="rgb(0,0,0)" fill-opacity="1.0" font-size="25.38874394583522em"><g fill="rgb(0,0,0)" fill-opacity="1.0"><text transform="matrix(1.0,0.0,0.0,1.0,351.870688050379,409.12189309661403)" dominant-baseline="middle" text-anchor="middle" stroke="none">&#39;K&#39;</text></g></g></g><g><g fill="rgb(255,255,255)" fill-opacity="1.0"><g fill="rgb(255,255,255)" fill-opacity="1.0"><g fill="rgb(255,255,255)" fill-opacity="1.0"><path d="M 434.5106370424492,351.8706880503791 c 0.0,-14.021816098643676 -11.36692784719154,-25.38874394583522 -25.388743945835213 -25.38874394583522c -14.021816098643676,-8.585886101718403e-16 -25.38874394583522,11.366927847191539 -25.38874394583522 25.388743945835213c -1.7171772203436806e-15,14.021816098643676 11.366927847191539,25.38874394583522 25.38874394583521 25.38874394583522c 14.021816098643676,2.5757658305155206e-15 25.38874394583522,-11.366927847191537 25.388743945835223 -25.388743945835213Z" /></g></g></g><g fill="rgb(0,0,0)" fill-opacity="1.0" font-size="25.38874394583522em"><g fill="rgb(0,0,0)" fill-opacity="1.0"><text transform="matrix(1.0,0.0,0.0,1.0,409.121893096614,351.8706880503791)" dominant-baseline="middle" text-anchor="middle" stroke="none">&#39;K&#39;</text></g></g></g><g><g fill="rgb(255,255,255)" fill-opacity="1.0"><g fill="rgb(255,255,255)" fill-opacity="1.0"><g fill="rgb(255,255,255)" fill-opacity="1.0"><path d="M 515.4760676810376,351.87068805037916 c 0.0,-14.021816098643676 -11.36692784719154,-25.38874394583522 -25.388743945835213 -25.38874394583522c -14.021816098643676,-8.585886101718403e-16 -25.38874394583522,11.366927847191539 -25.38874394583522 25.388743945835213c -1.7171772203436806e-15,14.021816098643676 11.366927847191539,25.38874394583522 25.38874394583521 25.38874394583522c 14.021816098643676,2.5757658305155206e-15 25.38874394583522,-11.366927847191537 25.388743945835223 -25.388743945835213Z" /></g></g></g><g fill="rgb(0,0,0)" fill-opacity="1.0" font-size="25.38874394583522em"><g fill="rgb(0,0,0)" fill-opacity="1.0"><text transform="matrix(1.0,0.0,0.0,1.0,490.0873237352024,351.87068805037916)" dominant-baseline="middle" text-anchor="middle" stroke="none">&#39;K&#39;</text></g></g></g><g><g fill="rgb(255,255,255)" fill-opacity="1.0"><g fill="rgb(255,255,255)" fill-opacity="1.0"><g fill="rgb(255,255,255)" fill-opacity="1.0"><path d="M 572.7272727272726,409.12189309661414 c 0.0,-14.021816098643676 -11.36692784719154,-25.38874394583522 -25.388743945835213 -25.38874394583522c -14.021816098643676,-8.585886101718403e-16 -25.38874394583522,11.366927847191539 -25.38874394583522 25.388743945835213c -1.7171772203436806e-15,14.021816098643676 11.366927847191539,25.38874394583522 25.38874394583521 25.38874394583522c 14.021816098643676,2.5757658305155206e-15 25.38874394583522,-11.366927847191537 25.388743945835223 -25.388743945835213Z" /></g></g></g><g fill="rgb(0,0,0)" fill-opacity="1.0" font-size="25.38874394583522em"><g fill="rgb(0,0,0)" fill-opacity="1.0"><text transform="matrix(1.0,0.0,0.0,1.0,547.3385287814374,409.12189309661414)" dominant-baseline="middle" text-anchor="middle" stroke="none">&#39;G&#39;</text></g></g></g><g><g fill="rgb(255,255,255)" fill-opacity="1.0"><g fill="rgb(255,255,255)" fill-opacity="1.0"><g fill="rgb(255,255,255)" fill-opacity="1.0"><path d="M 572.7272727272726,490.0873237352025 c 0.0,-14.021816098643676 -11.36692784719154,-25.38874394583522 -25.388743945835213 -25.38874394583522c -14.021816098643676,-8.585886101718403e-16 -25.38874394583522,11.366927847191539 -25.38874394583522 25.388743945835213c -1.7171772203436806e-15,14.021816098643676 11.366927847191539,25.38874394583522 25.38874394583521 25.38874394583522c 14.021816098643676,2.5757658305155206e-15 25.38874394583522,-11.366927847191537 25.388743945835223 -25.388743945835213Z" /></g></g></g><g fill="rgb(0,0,0)" fill-opacity="1.0" font-size="25.38874394583522em"><g fill="rgb(0,0,0)" fill-opacity="1.0"><text transform="matrix(1.0,0.0,0.0,1.0,547.3385287814374,490.0873237352025)" dominant-baseline="middle" text-anchor="middle" stroke="none">&#39;F&#39;</text></g></g></g><g><g fill="rgb(255,255,255)" fill-opacity="1.0"><g fill="rgb(255,255,255)" fill-opacity="1.0"><g fill="rgb(255,255,255)" fill-opacity="1.0"><path d="M 515.4760676810376,547.3385287814375 c 0.0,-14.021816098643676 -11.36692784719154,-25.38874394583522 -25.388743945835213 -25.38874394583522c -14.021816098643676,-8.585886101718403e-16 -25.38874394583522,11.366927847191539 -25.38874394583522 25.388743945835213c -1.7171772203436806e-15,14.021816098643676 11.366927847191539,25.38874394583522 25.38874394583521 25.38874394583522c 14.021816098643676,2.5757658305155206e-15 25.38874394583522,-11.366927847191537 25.388743945835223 -25.388743945835213Z" /></g></g></g><g fill="rgb(0,0,0)" fill-opacity="1.0" font-size="25.38874394583522em"><g fill="rgb(0,0,0)" fill-opacity="1.0"><text transform="matrix(1.0,0.0,0.0,1.0,490.0873237352024,547.3385287814375)" dominant-baseline="middle" text-anchor="middle" stroke="none">&#39;J&#39;</text></g></g></g><g><g fill="rgb(255,255,255)" fill-opacity="1.0"><g fill="rgb(255,255,255)" fill-opacity="1.0"><g fill="rgb(255,255,255)" fill-opacity="1.0"><path d="M 434.51063704244916,547.3385287814375 c 0.0,-14.021816098643676 -11.36692784719154,-25.38874394583522 -25.388743945835213 -25.38874394583522c -14.021816098643676,-8.585886101718403e-16 -25.38874394583522,11.366927847191539 -25.38874394583522 25.388743945835213c -1.7171772203436806e-15,14.021816098643676 11.366927847191539,25.38874394583522 25.38874394583521 25.38874394583522c 14.021816098643676,2.5757658305155206e-15 25.38874394583522,-11.366927847191537 25.388743945835223 -25.388743945835213Z" /></g></g></g><g fill="rgb(0,0,0)" fill-opacity="1.0" font-size="25.38874394583522em"><g fill="rgb(0,0,0)" fill-opacity="1.0"><text transform="matrix(1.0,0.0,0.0,1.0,409.1218930966139,547.3385287814375)" dominant-baseline="middle" text-anchor="middle" stroke="none">&#39;I&#39;</text></g></g></g><g><g fill="rgb(255,255,255)" fill-opacity="1.0"><g fill="rgb(255,255,255)" fill-opacity="1.0"><g fill="rgb(255,255,255)" fill-opacity="1.0"><path d="M 377.25943199621423,490.0873237352025 c 0.0,-14.021816098643676 -11.36692784719154,-25.38874394583522 -25.388743945835213 -25.38874394583522c -14.021816098643676,-8.585886101718403e-16 -25.38874394583522,11.366927847191539 -25.38874394583522 25.388743945835213c -1.7171772203436806e-15,14.021816098643676 11.366927847191539,25.38874394583522 25.38874394583521 25.38874394583522c 14.021816098643676,2.5757658305155206e-15 25.38874394583522,-11.366927847191537 25.388743945835223 -25.388743945835213Z" /></g></g></g><g fill="rgb(0,0,0)" fill-opacity="1.0" font-size="25.38874394583522em"><g fill="rgb(0,0,0)" fill-opacity="1.0"><text transform="matrix(1.0,0.0,0.0,1.0,351.870688050379,490.0873237352025)" dominant-baseline="middle" text-anchor="middle" stroke="none">&#39;H&#39;</text></g></g></g><g><g fill="rgb(255,255,255)" fill-opacity="1.0"><g fill="rgb(255,255,255)" fill-opacity="1.0"><g fill="rgb(255,255,255)" fill-opacity="1.0"><path d="M 474.9933523617434,449.6046084159083 c 0.0,-14.021816098643676 -11.36692784719154,-25.38874394583522 -25.388743945835213 -25.38874394583522c -14.021816098643676,-8.585886101718403e-16 -25.38874394583522,11.366927847191539 -25.38874394583522 25.388743945835213c -1.7171772203436806e-15,14.021816098643676 11.366927847191539,25.38874394583522 25.38874394583521 25.38874394583522c 14.021816098643676,2.5757658305155206e-15 25.38874394583522,-11.366927847191537 25.388743945835223 -25.388743945835213Z" /></g></g></g><g fill="rgb(0,0,0)" fill-opacity="1.0" font-size="25.38874394583522em"><g fill="rgb(0,0,0)" fill-opacity="1.0"><text transform="matrix(1.0,0.0,0.0,1.0,449.60460841590816,449.6046084159083)" dominant-baseline="middle" text-anchor="middle" stroke="none">&#39;G&#39;</text></g></g></g><path d="M 150.3953915840917,449.6046084159083 l -97.73392036552919,-40.482715319294286 " /><path d="M 150.3953915840917,449.6046084159083 l -40.48271531929419,-97.73392036552922 " /><path d="M 150.3953915840917,449.6046084159083 l 40.482715319294265,-97.73392036552917 " /><path d="M 150.3953915840917,449.6046084159083 l 97.7339203655292,-40.482715319294215 " /><path d="M 150.3953915840917,449.6046084159083 l 97.73392036552919,40.482715319294265 " /><path d="M 150.3953915840917,449.6046084159083 l 40.482715319294215,97.73392036552922 " /><path d="M 150.3953915840917,449.6046084159083 l -40.482715319294236,97.73392036552922 " /><path d="M 150.3953915840917,449.6046084159083 l -97.73392036552919,40.482715319294236 " /><g><g fill="rgb(255,255,255)" fill-opacity="1.0"><g fill="rgb(255,255,255)" fill-opacity="1.0"><g fill="rgb(255,255,255)" fill-opacity="1.0"><path d="M 78.05021516439771,409.12189309661403 c 0.0,-14.021816098643676 -11.36692784719154,-25.38874394583522 -25.388743945835213 -25.38874394583522c -14.021816098643676,-8.585886101718403e-16 -25.38874394583522,11.366927847191539 -25.38874394583522 25.388743945835213c -1.7171772203436806e-15,14.021816098643676 11.366927847191539,25.38874394583522 25.38874394583521 25.38874394583522c 14.021816098643676,2.5757658305155206e-15 25.38874394583522,-11.366927847191537 25.388743945835223 -25.388743945835213Z" /></g></g></g><g fill="rgb(0,0,0)" fill-opacity="1.0" font-size="25.38874394583522em"><g fill="rgb(0,0,0)" fill-opacity="1.0"><text transform="matrix(1.0,0.0,0.0,1.0,52.6614712185625,409.12189309661403)" dominant-baseline="middle" text-anchor="middle" stroke="none">&#39;K&#39;</text></g></g></g><g><g fill="rgb(255,255,255)" fill-opacity="1.0"><g fill="rgb(255,255,255)" fill-opacity="1.0"><g fill="rgb(255,255,255)" fill-opacity="1.0"><path d="M 135.3014202106327,351.87068805037904 c 0.0,-14.021816098643676 -11.36692784719154,-25.38874394583522 -25.388743945835213 -25.38874394583522c -14.021816098643676,-8.585886101718403e-16 -25.38874394583522,11.366927847191539 -25.38874394583522 25.388743945835213c -1.7171772203436806e-15,14.021816098643676 11.366927847191539,25.38874394583522 25.38874394583521 25.38874394583522c 14.021816098643676,2.5757658305155206e-15 25.38874394583522,-11.366927847191537 25.388743945835223 -25.388743945835213Z" /></g></g></g><g fill="rgb(0,0,0)" fill-opacity="1.0" font-size="25.38874394583522em"><g fill="rgb(0,0,0)" fill-opacity="1.0"><text transform="matrix(1.0,0.0,0.0,1.0,109.91267626479748,351.87068805037904)" dominant-baseline="middle" text-anchor="middle" stroke="none">&#39;K&#39;</text></g></g></g><g><g fill="rgb(255,255,255)" fill-opacity="1.0"><g fill="rgb(255,255,255)" fill-opacity="1.0"><g fill="rgb(255,255,255)" fill-opacity="1.0"><path d="M 216.26685084922119,351.8706880503791 c 0.0,-14.021816098643676 -11.36692784719154,-25.38874394583522 -25.388743945835213 -25.38874394583522c -14.021816098643676,-8.585886101718403e-16 -25.38874394583522,11.366927847191539 -25.38874394583522 25.388743945835213c -1.7171772203436806e-15,14.021816098643676 11.366927847191539,25.38874394583522 25.38874394583521 25.38874394583522c 14.021816098643676,2.5757658305155206e-15 25.38874394583522,-11.366927847191537 25.388743945835223 -25.388743945835213Z" /></g></g></g><g fill="rgb(0,0,0)" fill-opacity="1.0" font-size="25.38874394583522em"><g fill="rgb(0,0,0)" fill-opacity="1.0"><text transform="matrix(1.0,0.0,0.0,1.0,190.87810690338597,351.8706880503791)" dominant-baseline="middle" text-anchor="middle" stroke="none">&#39;H&#39;</text></g></g></g><g><g fill="rgb(255,255,255)" fill-opacity="1.0"><g fill="rgb(255,255,255)" fill-opacity="1.0"><g fill="rgb(255,255,255)" fill-opacity="1.0"><path d="M 273.51805589545614,409.1218930966141 c 0.0,-14.021816098643676 -11.36692784719154,-25.38874394583522 -25.388743945835213 -25.38874394583522c -14.021816098643676,-8.585886101718403e-16 -25.38874394583522,11.366927847191539 -25.38874394583522 25.388743945835213c -1.7171772203436806e-15,14.021816098643676 11.366927847191539,25.38874394583522 25.38874394583521 25.38874394583522c 14.021816098643676,2.5757658305155206e-15 25.38874394583522,-11.366927847191537 25.388743945835223 -25.388743945835213Z" /></g></g></g><g fill="rgb(0,0,0)" fill-opacity="1.0" font-size="25.38874394583522em"><g fill="rgb(0,0,0)" fill-opacity="1.0"><text transform="matrix(1.0,0.0,0.0,1.0,248.1293119496209,409.1218930966141)" dominant-baseline="middle" text-anchor="middle" stroke="none">&#39;G&#39;</text></g></g></g><g><g fill="rgb(255,255,255)" fill-opacity="1.0"><g fill="rgb(255,255,255)" fill-opacity="1.0"><g fill="rgb(255,255,255)" fill-opacity="1.0"><path d="M 273.5180558954561,490.0873237352025 c 0.0,-14.021816098643676 -11.36692784719154,-25.38874394583522 -25.388743945835213 -25.38874394583522c -14.021816098643676,-8.585886101718403e-16 -25.38874394583522,11.366927847191539 -25.38874394583522 25.388743945835213c -1.7171772203436806e-15,14.021816098643676 11.366927847191539,25.38874394583522 25.38874394583521 25.38874394583522c 14.021816098643676,2.5757658305155206e-15 25.38874394583522,-11.366927847191537 25.388743945835223 -25.388743945835213Z" /></g></g></g><g fill="rgb(0,0,0)" fill-opacity="1.0" font-size="25.38874394583522em"><g fill="rgb(0,0,0)" fill-opacity="1.0"><text transform="matrix(1.0,0.0,0.0,1.0,248.12931194962087,490.0873237352025)" dominant-baseline="middle" text-anchor="middle" stroke="none">&#39;F&#39;</text></g></g></g><g><g fill="rgb(255,255,255)" fill-opacity="1.0"><g fill="rgb(255,255,255)" fill-opacity="1.0"><g fill="rgb(255,255,255)" fill-opacity="1.0"><path d="M 216.26685084922113,547.3385287814375 c 0.0,-14.021816098643676 -11.36692784719154,-25.38874394583522 -25.388743945835213 -25.38874394583522c -14.021816098643676,-8.585886101718403e-16 -25.38874394583522,11.366927847191539 -25.38874394583522 25.388743945835213c -1.7171772203436806e-15,14.021816098643676 11.366927847191539,25.38874394583522 25.38874394583521 25.38874394583522c 14.021816098643676,2.5757658305155206e-15 25.38874394583522,-11.366927847191537 25.388743945835223 -25.388743945835213Z" /></g></g></g><g fill="rgb(0,0,0)" fill-opacity="1.0" font-size="25.38874394583522em"><g fill="rgb(0,0,0)" fill-opacity="1.0"><text transform="matrix(1.0,0.0,0.0,1.0,190.8781069033859,547.3385287814375)" dominant-baseline="middle" text-anchor="middle" stroke="none">&#39;E&#39;</text></g></g></g><g><g fill="rgb(255,255,255)" fill-opacity="1.0"><g fill="rgb(255,255,255)" fill-opacity="1.0"><g fill="rgb(255,255,255)" fill-opacity="1.0"><path d="M 135.30142021063267,547.3385287814375 c 0.0,-14.021816098643676 -11.36692784719154,-25.38874394583522 -25.388743945835213 -25.38874394583522c -14.021816098643676,-8.585886101718403e-16 -25.38874394583522,11.366927847191539 -25.38874394583522 25.388743945835213c -1.7171772203436806e-15,14.021816098643676 11.366927847191539,25.38874394583522 25.38874394583521 25.38874394583522c 14.021816098643676,2.5757658305155206e-15 25.38874394583522,-11.366927847191537 25.388743945835223 -25.388743945835213Z" /></g></g></g><g fill="rgb(0,0,0)" fill-opacity="1.0" font-size="25.38874394583522em"><g fill="rgb(0,0,0)" fill-opacity="1.0"><text transform="matrix(1.0,0.0,0.0,1.0,109.91267626479745,547.3385287814375)" dominant-baseline="middle" text-anchor="middle" stroke="none">&#39;D&#39;</text></g></g></g><g><g fill="rgb(255,255,255)" fill-opacity="1.0"><g fill="rgb(255,255,255)" fill-opacity="1.0"><g fill="rgb(255,255,255)" fill-opacity="1.0"><path d="M 78.05021516439771,490.0873237352025 c 0.0,-14.021816098643676 -11.36692784719154,-25.38874394583522 -25.388743945835213 -25.38874394583522c -14.021816098643676,-8.585886101718403e-16 -25.38874394583522,11.366927847191539 -25.38874394583522 25.388743945835213c -1.7171772203436806e-15,14.021816098643676 11.366927847191539,25.38874394583522 25.38874394583521 25.38874394583522c 14.021816098643676,2.5757658305155206e-15 25.38874394583522,-11.366927847191537 25.388743945835223 -25.388743945835213Z" /></g></g></g><g fill="rgb(0,0,0)" fill-opacity="1.0" font-size="25.38874394583522em"><g fill="rgb(0,0,0)" fill-opacity="1.0"><text transform="matrix(1.0,0.0,0.0,1.0,52.6614712185625,490.0873237352025)" dominant-baseline="middle" text-anchor="middle" stroke="none">&#39;C&#39;</text></g></g></g><g><g fill="rgb(255,255,255)" fill-opacity="1.0"><g fill="rgb(255,255,255)" fill-opacity="1.0"><g fill="rgb(255,255,255)" fill-opacity="1.0"><path d="M 175.7841355299269,449.6046084159083 c 0.0,-14.021816098643676 -11.36692784719154,-25.38874394583522 -25.388743945835213 -25.38874394583522c -14.021816098643676,-8.585886101718403e-16 -25.38874394583522,11.366927847191539 -25.38874394583522 25.388743945835213c -1.7171772203436806e-15,14.021816098643676 11.366927847191539,25.38874394583522 25.38874394583521 25.38874394583522c 14.021816098643676,2.5757658305155206e-15 25.38874394583522,-11.366927847191537 25.388743945835223 -25.388743945835213Z" /></g></g></g><g fill="rgb(0,0,0)" fill-opacity="1.0" font-size="25.38874394583522em"><g fill="rgb(0,0,0)" fill-opacity="1.0"><text transform="matrix(1.0,0.0,0.0,1.0,150.3953915840917,449.6046084159083)" dominant-baseline="middle" text-anchor="middle" stroke="none">&#39;B&#39;</text></g></g></g><g><g fill="rgb(255,255,255)" fill-opacity="1.0"><g fill="rgb(255,255,255)" fill-opacity="1.0"><g fill="rgb(255,255,255)" fill-opacity="1.0"><path d="M 325.3887439458352,300.00000000000006 c 0.0,-14.021816098643676 -11.36692784719154,-25.38874394583522 -25.388743945835213 -25.38874394583522c -14.021816098643676,-8.585886101718403e-16 -25.38874394583522,11.366927847191539 -25.38874394583522 25.388743945835213c -1.7171772203436806e-15,14.021816098643676 11.366927847191539,25.38874394583522 25.38874394583521 25.38874394583522c 14.021816098643676,2.5757658305155206e-15 25.38874394583522,-11.366927847191537 25.388743945835223 -25.388743945835213Z" /></g></g></g><g fill="rgb(0,0,0)" fill-opacity="1.0" font-size="25.38874394583522em"><g fill="rgb(0,0,0)" fill-opacity="1.0"><text transform="matrix(1.0,0.0,0.0,1.0,299.99999999999994,300.00000000000006)" dominant-baseline="middle" text-anchor="middle" stroke="none">&#39;A&#39;</text></g></g></g></g></g></g></g></svg>