<?xml version="1.0" encoding="UTF-8"?>
<!DOCTYPE svg PUBLIC "-//W3C//DTD SVG 1.1//EN"
    "http://www.w3.org/Graphics/SVG/1.1/DTD/svg11.dtd">
<svg xmlns="http://www.w3.org/2000/svg" xmlns:xlink="http://www.w3.org/1999/xlink" version="1.1" width="600.0" height="686.2580718732127" font-size="1" viewBox="0 0 600 686" stroke="rgb(0,0,0)" stroke-opacity="1"><g><g fill="rgb(0,0,0)" fill-opacity="0.0"><g stroke="rgb(0,0,0)" stroke-opacity="1.0" stroke-width="2.5667250514971096" stroke-linecap="butt" stroke-linejoin="miter" font-size="1.0em" stroke-miterlimit="10.0"><g><path d="M 246.44058297260358,343.12903593660633 l -107.11883405479294,-185.5352630304408 " /><path d="M 246.44058297260358,343.12903593660633 l 214.23766810958602,7.135547756317952e-14 " /><path d="M 246.44058297260358,343.12903593660633 l -107.11883405479308,185.5352630304408 " /><path d="M 139.32174891781062,157.59377290616555 l -92.76763151522033,-53.55941702739661 " /><path d="M 139.32174891781062,157.59377290616555 l 7.135547756317952e-14,-107.11883405479308 " /><path d="M 139.32174891781062,157.59377290616555 l 92.76763151522047,-53.55941702739647 " /><path d="M 139.32174891781062,157.59377290616555 l 92.7676315152204,53.55941702739661 " /><path d="M 139.32174891781062,157.59377290616555 v 107.11883405479308 " /><path d="M 139.32174891781062,157.59377290616555 l -92.7676315152204,53.55941702739647 " /><g><g fill="rgb(255,255,255)" fill-opacity="1.0"><g fill="rgb(255,255,255)" fill-opacity="1.0"><g fill="rgb(255,255,255)" fill-opacity="1.0"><path d="M 65.83550753245304,104.0343558787689 c 0.0,-10.648817724261177 -8.632572405601568,-19.281390129862746 -19.281390129862743 -19.281390129862746c -10.648817724261177,-6.520520270360026e-16 -19.281390129862746,8.632572405601566 -19.281390129862746 19.28139012986274c -1.3041040540720052e-15,10.648817724261177 8.632572405601564,19.281390129862746 19.28139012986274 19.281390129862746c 10.648817724261177,1.9561560811080077e-15 19.281390129862746,-8.632572405601564 19.281390129862746 -19.28139012986274Z" /></g></g></g><g fill="rgb(0,0,0)" fill-opacity="1.0" font-size="19.281390129862746em"><g fill="rgb(0,0,0)" fill-opacity="1.0"><text transform="matrix(1.0,0.0,0.0,1.0,46.55411740259029,104.0343558787689)" dominant-baseline="middle" text-anchor="middle" stroke="none">&#39;H&#39;</text></g></g></g><g><g fill="rgb(255,255,255)" fill-opacity="1.0"><g fill="rgb(255,255,255)" fill-opacity="1.0"><g fill="rgb(255,255,255)" fill-opacity="1.0"><path d="M 158.6031390476735,50.474938851372485 c 0.0,-10.648817724261177 -8.632572405601568,-19.281390129862746 -19.281390129862743 -19.281390129862746c -10.648817724261177,-6.520520270360026e-16 -19.281390129862746,8.632572405601566 -19.281390129862746 19.28139012986274c -1.3041040540720052e-15,10.648817724261177 8.632572405601564,19.281390129862746 19.28139012986274 19.281390129862746c 10.648817724261177,1.9561560811080077e-15 19.281390129862746,-8.632572405601564 19.281390129862746 -19.28139012986274Z" /></g></g></g><g fill="rgb(0,0,0)" fill-opacity="1.0" font-size="19.281390129862746em"><g fill="rgb(0,0,0)" fill-opacity="1.0"><text transform="matrix(1.0,0.0,0.0,1.0,139.32174891781074,50.474938851372485)" dominant-baseline="middle" text-anchor="middle" stroke="none">&#39;G&#39;</text></g></g></g><g><g fill="rgb(255,255,255)" fill-opacity="1.0"><g fill="rgb(255,255,255)" fill-opacity="1.0"><g fill="rgb(255,255,255)" fill-opacity="1.0"><path d="M 251.37077056289388,104.03435587876902 c 0.0,-10.648817724261177 -8.632572405601568,-19.281390129862746 -19.281390129862743 -19.281390129862746c -10.648817724261177,-6.520520270360026e-16 -19.281390129862746,8.632572405601566 -19.281390129862746 19.28139012986274c -1.3041040540720052e-15,10.648817724261177 8.632572405601564,19.281390129862746 19.28139012986274 19.281390129862746c 10.648817724261177,1.9561560811080077e-15 19.281390129862746,-8.632572405601564 19.281390129862746 -19.28139012986274Z" /></g></g></g><g fill="rgb(0,0,0)" fill-opacity="1.0" font-size="19.281390129862746em"><g fill="rgb(0,0,0)" fill-opacity="1.0"><text transform="matrix(1.0,0.0,0.0,1.0,232.08938043303112,104.03435587876902)" dominant-baseline="middle" text-anchor="middle" stroke="none">&#39;F&#39;</text></g></g></g><g><g fill="rgb(255,255,255)" fill-opacity="1.0"><g fill="rgb(255,255,255)" fill-opacity="1.0"><g fill="rgb(255,255,255)" fill-opacity="1.0"><path d="M 251.37077056289377,211.1531899335621 c 0.0,-10.648817724261177 -8.632572405601568,-19.281390129862746 -19.281390129862743 -19.281390129862746c -10.648817724261177,-6.520520270360026e-16 -19.281390129862746,8.632572405601566 -19.281390129862746 19.28139012986274c -1.3041040540720052e-15,10.648817724261177 8.632572405601564,19.281390129862746 19.28139012986274 19.281390129862746c 10.648817724261177,1.9561560811080077e-15 19.281390129862746,-8.632572405601564 19.281390129862746 -19.28139012986274Z" /></g></g></g><g fill="rgb(0,0,0)" fill-opacity="1.0" font-size="19.281390129862746em"><g fill="rgb(0,0,0)" fill-opacity="1.0"><text transform="matrix(1.0,0.0,0.0,1.0,232.089380433031,211.1531899335621)" dominant-baseline="middle" text-anchor="middle" stroke="none">&#39;N&#39;</text></g></g></g><g><g fill="rgb(255,255,255)" fill-opacity="1.0"><g fill="rgb(255,255,255)" fill-opacity="1.0"><g fill="rgb(255,255,255)" fill-opacity="1.0"><path d="M 158.60313904767338,264.7126069609586 c 0.0,-10.648817724261177 -8.632572405601568,-19.281390129862746 -19.281390129862743 -19.281390129862746c -10.648817724261177,-6.520520270360026e-16 -19.281390129862746,8.632572405601566 -19.281390129862746 19.28139012986274c -1.3041040540720052e-15,10.648817724261177 8.632572405601564,19.281390129862746 19.28139012986274 19.281390129862746c 10.648817724261177,1.9561560811080077e-15 19.281390129862746,-8.632572405601564 19.281390129862746 -19.28139012986274Z" /></g></g></g><g fill="rgb(0,0,0)" fill-opacity="1.0" font-size="19.281390129862746em"><g fill="rgb(0,0,0)" fill-opacity="1.0"><text transform="matrix(1.0,0.0,0.0,1.0,139.32174891781062,264.7126069609586)" dominant-baseline="middle" text-anchor="middle" stroke="none">&#39;M&#39;</text></g></g></g><g><g fill="rgb(255,255,255)" fill-opacity="1.0"><g fill="rgb(255,255,255)" fill-opacity="1.0"><g fill="rgb(255,255,255)" fill-opacity="1.0"><path d="M 65.83550753245298,211.15318993356198 c 0.0,-10.648817724261177 -8.632572405601568,-19.281390129862746 -19.281390129862743 -19.281390129862746c -10.648817724261177,-6.520520270360026e-16 -19.281390129862746,8.632572405601566 -19.281390129862746 19.28139012986274c -1.3041040540720052e-15,10.648817724261177 8.632572405601564,19.281390129862746 19.28139012986274 19.281390129862746c 10.648817724261177,1.9561560811080077e-15 19.281390129862746,-8.632572405601564 19.281390129862746 -19.28139012986274Z" /></g></g></g><g fill="rgb(0,0,0)" fill-opacity="1.0" font-size="19.281390129862746em"><g fill="rgb(0,0,0)" fill-opacity="1.0"><text transform="matrix(1.0,0.0,0.0,1.0,46.55411740259024,211.15318993356198)" dominant-baseline="middle" text-anchor="middle" stroke="none">&#39;L&#39;</text></g></g></g><g><g fill="rgb(255,255,255)" fill-opacity="1.0"><g fill="rgb(255,255,255)" fill-opacity="1.0"><g fill="rgb(255,255,255)" fill-opacity="1.0"><path d="M 158.60313904767338,157.59377290616555 c 0.0,-10.648817724261177 -8.632572405601568,-19.281390129862746 -19.281390129862743 -19.281390129862746c -10.648817724261177,-6.520520270360026e-16 -19.281390129862746,8.632572405601566 -19.281390129862746 19.28139012986274c -1.3041040540720052e-15,10.648817724261177 8.632572405601564,19.281390129862746 19.28139012986274 19.281390129862746c 10.648817724261177,1.9561560811080077e-15 19.281390129862746,-8.632572405601564 19.281390129862746 -19.28139012986274Z" /></g></g></g><g fill="rgb(0,0,0)" fill-opacity="1.0" font-size="19.281390129862746em"><g fill="rgb(0,0,0)" fill-opacity="1.0"><text transform="matrix(1.0,0.0,0.0,1.0,139.32174891781062,157.59377290616555)" dominant-baseline="middle" text-anchor="middle" stroke="none">&#39;K&#39;</text></g></g></g><path d="M 460.6782510821896,343.12903593660644 l -92.76763151522033,-53.55941702739654 " /><path d="M 460.6782510821896,343.12903593660644 v -107.11883405479301 " /><path d="M 460.6782510821896,343.12903593660644 l 92.76763151522047,-53.5594170273964 " /><path d="M 460.6782510821896,343.12903593660644 l 92.76763151522033,53.55941702739654 " /><path d="M 460.6782510821896,343.12903593660644 v 107.11883405479301 " /><path d="M 460.6782510821896,343.12903593660644 l -92.76763151522033,53.55941702739654 " /><g><g fill="rgb(255,255,255)" fill-opacity="1.0"><g fill="rgb(255,255,255)" fill-opacity="1.0"><g fill="rgb(255,255,255)" fill-opacity="1.0"><path d="M 387.192009696832,289.5696189092099 c 0.0,-10.648817724261177 -8.632572405601568,-19.281390129862746 -19.281390129862743 -19.281390129862746c -10.648817724261177,-6.520520270360026e-16 -19.281390129862746,8.632572405601566 -19.281390129862746 19.28139012986274c -1.3041040540720052e-15,10.648817724261177 8.632572405601564,19.281390129862746 19.28139012986274 19.281390129862746c 10.648817724261177,1.9561560811080077e-15 19.281390129862746,-8.632572405601564 19.281390129862746 -19.28139012986274Z" /></g></g></g><g fill="rgb(0,0,0)" fill-opacity="1.0" font-size="19.281390129862746em"><g fill="rgb(0,0,0)" fill-opacity="1.0"><text transform="matrix(1.0,0.0,0.0,1.0,367.9106195669692,289.5696189092099)" dominant-baseline="middle" text-anchor="middle" stroke="none">&#39;K&#39;</text></g></g></g><g><g fill="rgb(255,255,255)" fill-opacity="1.0"><g fill="rgb(255,255,255)" fill-opacity="1.0"><g fill="rgb(255,255,255)" fill-opacity="1.0"><path d="M 479.95964121205236,236.01020188181337 c 0.0,-10.648817724261177 -8.632572405601568,-19.281390129862746 -19.281390129862743 -19.281390129862746c -10.648817724261177,-6.520520270360026e-16 -19.281390129862746,8.632572405601566 -19.281390129862746 19.28139012986274c -1.3041040540720052e-15,10.648817724261177 8.632572405601564,19.281390129862746 19.28139012986274 19.281390129862746c 10.648817724261177,1.9561560811080077e-15 19.281390129862746,-8.632572405601564 19.281390129862746 -19.28139012986274Z" /></g></g></g><g fill="rgb(0,0,0)" fill-opacity="1.0" font-size="19.281390129862746em"><g fill="rgb(0,0,0)" fill-opacity="1.0"><text transform="matrix(1.0,0.0,0.0,1.0,460.6782510821896,236.01020188181337)" dominant-baseline="middle" text-anchor="middle" stroke="none">&#39;G&#39;</text></g></g></g><g><g fill="rgb(255,255,255)" fill-opacity="1.0"><g fill="rgb(255,255,255)" fill-opacity="1.0"><g fill="rgb(255,255,255)" fill-opacity="1.0"><path d="M 572.7272727272729,289.56961890921 c 0.0,-10.648817724261177 -8.632572405601568,-19.281390129862746 -19.281390129862743 -19.281390129862746c -10.648817724261177,-6.520520270360026e-16 -19.281390129862746,8.632572405601566 -19.281390129862746 19.28139012986274c -1.3041040540720052e-15,10.648817724261177 8.632572405601564,19.281390129862746 19.28139012986274 19.281390129862746c 10.648817724261177,1.9561560811080077e-15 19.281390129862746,-8.632572405601564 19.281390129862746 -19.28139012986274Z" /></g></g></g><g fill="rgb(0,0,0)" fill-opacity="1.0" font-size="19.281390129862746em"><g fill="rgb(0,0,0)" fill-opacity="1.0"><text transform="matrix(1.0,0.0,0.0,1.0,553.4458825974101,289.56961890921)" dominant-baseline="middle" text-anchor="middle" stroke="none">&#39;F&#39;</text></g></g></g><g><g fill="rgb(255,255,255)" fill-opacity="1.0"><g fill="rgb(255,255,255)" fill-opacity="1.0"><g fill="rgb(255,255,255)" fill-opacity="1.0"><path d="M 572.7272727272726,396.688452964003 c 0.0,-10.648817724261177 -8.632572405601568,-19.281390129862746 -19.281390129862743 -19.281390129862746c -10.648817724261177,-6.520520270360026e-16 -19.281390129862746,8.632572405601566 -19.281390129862746 19.28139012986274c -1.3041040540720052e-15,10.648817724261177 8.632572405601564,19.281390129862746 19.28139012986274 19.281390129862746c 10.648817724261177,1.9561560811080077e-15 19.281390129862746,-8.632572405601564 19.281390129862746 -19.28139012986274Z" /></g></g></g><g fill="rgb(0,0,0)" fill-opacity="1.0" font-size="19.281390129862746em"><g fill="rgb(0,0,0)" fill-opacity="1.0"><text transform="matrix(1.0,0.0,0.0,1.0,553.4458825974099,396.688452964003)" dominant-baseline="middle" text-anchor="middle" stroke="none">&#39;J&#39;</text></g></g></g><g><g fill="rgb(255,255,255)" fill-opacity="1.0"><g fill="rgb(255,255,255)" fill-opacity="1.0"><g fill="rgb(255,255,255)" fill-opacity="1.0"><path d="M 479.95964121205236,450.2478699913994 c 0.0,-10.648817724261177 -8.632572405601568,-19.281390129862746 -19.281390129862743 -19.281390129862746c -10.648817724261177,-6.520520270360026e-16 -19.281390129862746,8.632572405601566 -19.281390129862746 19.28139012986274c -1.3041040540720052e-15,10.648817724261177 8.632572405601564,19.281390129862746 19.28139012986274 19.281390129862746c 10.648817724261177,1.9561560811080077e-15 19.281390129862746,-8.632572405601564 19.281390129862746 -19.28139012986274Z" /></g></g></g><g fill="rgb(0,0,0)" fill-opacity="1.0" font-size="19.281390129862746em"><g fill="rgb(0,0,0)" fill-opacity="1.0"><text transform="matrix(1.0,0.0,0.0,1.0,460.6782510821896,450.2478699913994)" dominant-baseline="middle" text-anchor="middle" stroke="none">&#39;I&#39;</text></g></g></g><g><g fill="rgb(255,255,255)" fill-opacity="1.0"><g fill="rgb(255,255,255)" fill-opacity="1.0"><g fill="rgb(255,255,255)" fill-opacity="1.0"><path d="M 387.192009696832,396.688452964003 c 0.0,-10.648817724261177 -8.632572405601568,-19.281390129862746 -19.281390129862743 -19.281390129862746c -10.648817724261177,-6.520520270360026e-16 -19.281390129862746,8.632572405601566 -19.281390129862746 19.28139012986274c -1.3041040540720052e-15,10.648817724261177 8.632572405601564,19.281390129862746 19.28139012986274 19.281390129862746c 10.648817724261177,1.9561560811080077e-15 19.281390129862746,-8.632572405601564 19.281390129862746 -19.28139012986274Z" /></g></g></g><g fill="rgb(0,0,0)" fill-opacity="1.0" font-size="19.281390129862746em"><g fill="rgb(0,0,0)" fill-opacity="1.0"><text transform="matrix(1.0,0.0,0.0,1.0,367.9106195669692,396.688452964003)" dominant-baseline="middle" text-anchor="middle" stroke="none">&#39;H&#39;</text></g></g></g><g><g fill="rgb(255,255,255)" fill-opacity="1.0"><g fill="rgb(255,255,255)" fill-opacity="1.0"><g fill="rgb(255,255,255)" fill-opacity="1.0"><path d="M 479.95964121205236,343.12903593660644 c 0.0,-10.648817724261177 -8.632572405601568,-19.281390129862746 -19.281390129862743 -19.281390129862746c -10.648817724261177,-6.520520270360026e-16 -19.281390129862746,8.632572405601566 -19.281390129862746 19.28139012986274c -1.3041040540720052e-15,10.648817724261177 8.632572405601564,19.281390129862746 19.28139012986274 19.281390129862746c 10.648817724261177,1.9561560811080077e-15 19.281390129862746,-8.632572405601564 19.281390129862746 -19.28139012986274Z" /></g></g></g><g fill="rgb(0,0,0)" fill-opacity="1.0" font-size="19.281390129862746em"><g fill="rgb(0,0,0)" fill-opacity="1.0"><text transform="matrix(1.0,0.0,0.0,1.0,460.6782510821896,343.12903593660644)" dominant-baseline="middle" text-anchor="middle" stroke="none">&#39;G&#39;</text></g></g></g><path d="M 139.3217489178105,528.6642989670472 l -92.76763151522033,-53.55941702739661 " /><path d="M 139.3217489178105,528.6642989670472 l 7.135547756317952e-14,-107.11883405479301 " /><path d="M 139.3217489178105,528.6642989670472 l 92.76763151522047,-53.55941702739647 " /><path d="M 139.3217489178105,528.6642989670472 l 92.7676315152204,53.55941702739654 " /><path d="M 139.3217489178105,528.6642989670472 v 107.11883405479301 " /><path d="M 139.3217489178105,528.6642989670472 l -92.7676315152204,53.55941702739647 " /><g><g fill="rgb(255,255,255)" fill-opacity="1.0"><g fill="rgb(255,255,255)" fill-opacity="1.0"><g fill="rgb(255,255,255)" fill-opacity="1.0"><path d="M 65.83550753245292,475.1048819396505 c 0.0,-10.648817724261177 -8.632572405601568,-19.281390129862746 -19.281390129862743 -19.281390129862746c -10.648817724261177,-6.520520270360026e-16 -19.281390129862746,8.632572405601566 -19.281390129862746 19.28139012986274c -1.3041040540720052e-15,10.648817724261177 8.632572405601564,19.281390129862746 19.28139012986274 19.281390129862746c 10.648817724261177,1.9561560811080077e-15 19.281390129862746,-8.632572405601564 19.281390129862746 -19.28139012986274Z" /></g></g></g><g fill="rgb(0,0,0)" fill-opacity="1.0" font-size="19.281390129862746em"><g fill="rgb(0,0,0)" fill-opacity="1.0"><text transform="matrix(1.0,0.0,0.0,1.0,46.55411740259018,475.1048819396505)" dominant-baseline="middle" text-anchor="middle" stroke="none">&#39;H&#39;</text></g></g></g><g><g fill="rgb(255,255,255)" fill-opacity="1.0"><g fill="rgb(255,255,255)" fill-opacity="1.0"><g fill="rgb(255,255,255)" fill-opacity="1.0"><path d="M 158.60313904767338,421.54546491225415 c 0.0,-10.648817724261177 -8.632572405601568,-19.281390129862746 -19.281390129862743 -19.281390129862746c -10.648817724261177,-6.520520270360026e-16 -19.281390129862746,8.632572405601566 -19.281390129862746 19.28139012986274c -1.3041040540720052e-15,10.648817724261177 8.632572405601564,19.281390129862746 19.28139012986274 19.281390129862746c 10.648817724261177,1.9561560811080077e-15 19.281390129862746,-8.632572405601564 19.281390129862746 -19.28139012986274Z" /></g></g></g><g fill="rgb(0,0,0)" fill-opacity="1.0" font-size="19.281390129862746em"><g fill="rgb(0,0,0)" fill-opacity="1.0"><text transform="matrix(1.0,0.0,0.0,1.0,139.32174891781062,421.54546491225415)" dominant-baseline="middle" text-anchor="middle" stroke="none">&#39;G&#39;</text></g></g></g><g><g fill="rgb(255,255,255)" fill-opacity="1.0"><g fill="rgb(255,255,255)" fill-opacity="1.0"><g fill="rgb(255,255,255)" fill-opacity="1.0"><path d="M 251.37077056289377,475.1048819396507 c 0.0,-10.648817724261177 -8.632572405601568,-19.281390129862746 -19.281390129862743 -19.281390129862746c -10.648817724261177,-6.520520270360026e-16 -19.281390129862746,8.632572405601566 -19.281390129862746 19.28139012986274c -1.3041040540720052e-15,10.648817724261177 8.632572405601564,19.281390129862746 19.28139012986274 19.281390129862746c 10.648817724261177,1.9561560811080077e-15 19.281390129862746,-8.632572405601564 19.281390129862746 -19.28139012986274Z" /></g></g></g><g fill="rgb(0,0,0)" fill-opacity="1.0" font-size="19.281390129862746em"><g fill="rgb(0,0,0)" fill-opacity="1.0"><text transform="matrix(1.0,0.0,0.0,1.0,232.089380433031,475.1048819396507)" dominant-baseline="middle" text-anchor="middle" stroke="none">&#39;F&#39;</text></g></g></g><g><g fill="rgb(255,255,255)" fill-opacity="1.0"><g fill="rgb(255,255,255)" fill-opacity="1.0"><g fill="rgb(255,255,255)" fill-opacity="1.0"><path d="M 251.37077056289365,582.2237159944436 c 0.0,-10.648817724261177 -8.632572405601568,-19.281390129862746 -19.281390129862743 -19.281390129862746c -10.648817724261177,-6.520520270360026e-16 -19.281390129862746,8.632572405601566 -19.281390129862746 19.28139012986274c -1.3041040540720052e-15,10.648817724261177 8.632572405601564,19.281390129862746 19.28139012986274 19.281390129862746c 10.648817724261177,1.9561560811080077e-15 19.281390129862746,-8.632572405601564 19.281390129862746 -19.28139012986274Z" /></g></g></g><g fill="rgb(0,0,0)" fill-opacity="1.0" font-size="19.281390129862746em"><g fill="rgb(0,0,0)" fill-opacity="1.0"><text transform="matrix(1.0,0.0,0.0,1.0,232.0893804330309,582.2237159944436)" dominant-baseline="middle" text-anchor="middle" stroke="none">&#39;E&#39;</text></g></g></g><g><g fill="rgb(255,255,255)" fill-opacity="1.0"><g fill="rgb(255,255,255)" fill-opacity="1.0"><g fill="rgb(255,255,255)" fill-opacity="1.0"><path d="M 158.60313904767327,635.7831330218402 c 0.0,-10.648817724261177 -8.632572405601568,-19.281390129862746 -19.281390129862743 -19.281390129862746c -10.648817724261177,-6.520520270360026e-16 -19.281390129862746,8.632572405601566 -19.281390129862746 19.28139012986274c -1.3041040540720052e-15,10.648817724261177 8.632572405601564,19.281390129862746 19.28139012986274 19.281390129862746c 10.648817724261177,1.9561560811080077e-15 19.281390129862746,-8.632572405601564 19.281390129862746 -19.28139012986274Z" /></g></g></g><g fill="rgb(0,0,0)" fill-opacity="1.0" font-size="19.281390129862746em"><g fill="rgb(0,0,0)" fill-opacity="1.0"><text transform="matrix(1.0,0.0,0.0,1.0,139.3217489178105,635.7831330218402)" dominant-baseline="middle" text-anchor="middle" stroke="none">&#39;D&#39;</text></g></g></g><g><g fill="rgb(255,255,255)" fill-opacity="1.0"><g fill="rgb(255,255,255)" fill-opacity="1.0"><g fill="rgb(255,255,255)" fill-opacity="1.0"><path d="M 65.83550753245281,582.2237159944436 c 0.0,-10.648817724261177 -8.632572405601568,-19.281390129862746 -19.281390129862743 -19.281390129862746c -10.648817724261177,-6.520520270360026e-16 -19.281390129862746,8.632572405601566 -19.281390129862746 19.28139012986274c -1.3041040540720052e-15,10.648817724261177 8.632572405601564,19.281390129862746 19.28139012986274 19.281390129862746c 10.648817724261177,1.9561560811080077e-15 19.281390129862746,-8.632572405601564 19.281390129862746 -19.28139012986274Z" /></g></g></g><g fill="rgb(0,0,0)" fill-opacity="1.0" font-size="19.281390129862746em"><g fill="rgb(0,0,0)" fill-opacity="1.0"><text transform="matrix(1.0,0.0,0.0,1.0,46.554117402590066,582.2237159944436)" dominant-baseline="middle" text-anchor="middle" stroke="none">&#39;C&#39;</text></g></g></g><g><g fill="rgb(255,255,255)" fill-opacity="1.0"><g fill="rgb(255,255,255)" fill-opacity="1.0"><g fill="rgb(255,255,255)" fill-opacity="1.0"><path d="M 158.60313904767327,528.6642989670472 c 0.0,-10.648817724261177 -8.632572405601568,-19.281390129862746 -19.281390129862743 -19.281390129862746c -10.648817724261177,-6.520520270360026e-16 -19.281390129862746,8.632572405601566 -19.281390129862746 19.28139012986274c -1.3041040540720052e-15,10.648817724261177 8.632572405601564,19.281390129862746 19.28139012986274 19.281390129862746c 10.648817724261177,1.9561560811080077e-15 19.281390129862746,-8.632572405601564 19.281390129862746 -19.28139012986274Z" /></g></g></g><g fill="rgb(0,0,0)" fill-opacity="1.0" font-size="19.281390129862746em"><g fill="rgb(0,0,0)" fill-opacity="1.0"><text transform="matrix(1.0,0.0,0.0,1.0,139.3217489178105,528.6642989670472)" dominant-baseline="middle" text-anchor="middle" stroke="none">&#39;B&#39;</text></g></g></g><g><g fill="rgb(255,255,255)" fill-opacity="1.0"><g fill="rgb(255,255,255)" fill-opacity="1.0"><g fill="rgb(255,255,255)" fill-opacity="1.0"><path d="M 265.72197310246634,343.12903593660633 c 0.0,-10.648817724261177 -8.632572405601568,-19.281390129862746 -19.281390129862743 -19.281390129862746c -10.648817724261177,-6.520520270360026e-16 -19.281390129862746,8.632572405601566 -19.281390129862746 19.28139012986274c -1.3041040540720052e-15,10.648817724261177 8.632572405601564,19.281390129862746 19.28139012986274 19.281390129862746c 10.648817724261177,1.9561560811080077e-15 19.281390129862746,-8.632572405601564 19.281390129862746 -19.28139012986274Z" /></g></g></g><g fill="rgb(0,0,0)" fill-opacity="1.0" font-size="19.281390129862746em"><g fill="rgb(0,0,0)" fill-opacity="1.0"><text transform="matrix(1.0,0.0,0.0,1.0,246.44058297260358,343.12903593660633)" dominant-baseline="middle" text-anchor="middle" stroke="none">&#39;A&#39;</text></g></g></g></g></g></g></g></svg>