<?xml version="1.0" encoding="UTF-8"?>
<!DOCTYPE svg PUBLIC "-//W3C//DTD SVG 1.1//EN"
    "http://www.w3.org/Graphics/SVG/1.1/DTD/svg11.dtd">
<svg xmlns="http://www.w3.org/2000/svg" xmlns:xlink="http://www.w3.org/1999/xlink" version="1.1" width="600.0" height="660.4970574981999" font-size="1" viewBox="0 0 600 660" stroke="rgb(0,0,0)" stroke-opacity="1"><g><g fill="rgb(0,0,0)" fill-opacity="0.0"><g stroke="rgb(0,0,0)" stroke-opacity="1.0" stroke-width="2.5180889086731466" stroke-linecap="butt" stroke-linejoin="miter" font-size="1.0em" stroke-miterlimit="10.0"><g><path d="M 264.0654715525369,330.24852874909993 l -34.544067017465125,-139.3456954792248 " /><path d="M 264.0654715525369,330.24852874909993 h 143.56362845336548 " /><path d="M 264.0654715525369,330.24852874909993 l -34.544067017465125,139.3456954792248 " /><path d="M 229.52140453507178,190.90283326987515 l -180.71413299433974,-50.67001173063119 " /><path d="M 229.52140453507178,190.90283326987515 l -34.544067017465125,-139.3456954792248 " /><path d="M 229.52140453507178,190.90283326987515 l 136.12055337802485,-129.21394236203182 " /><g><g fill="rgb(255,255,255)" fill-opacity="1.0"><g fill="rgb(255,255,255)" fill-opacity="1.0"><g fill="rgb(255,255,255)" fill-opacity="1.0"><path d="M 70.3418158087369,140.23282153924396 c 0.0,-11.893200393775192 -9.641343874229632,-21.534544268004826 -21.534544268004822 -21.534544268004826c -11.893200393775192,-7.282484896927415e-16 -21.534544268004826,9.64134387422963 -21.534544268004826 21.53454426800482c -1.456496979385483e-15,11.893200393775192 9.641343874229628,21.534544268004826 21.534544268004815 21.534544268004826c 11.893200393775192,2.1847454690782246e-15 21.534544268004826,-9.641343874229628 21.53454426800483 -21.53454426800482Z" /></g></g></g><g fill="rgb(0,0,0)" fill-opacity="1.0" font-size="14.356362845336552em"><g fill="rgb(0,0,0)" fill-opacity="1.0"><text transform="matrix(1.0,0.0,0.0,1.0,48.807271540732074,140.23282153924396)" dominant-baseline="middle" text-anchor="middle" stroke="none">&#39;G&#39;</text></g></g></g><g><g fill="rgb(255,255,255)" fill-opacity="1.0"><g fill="rgb(255,255,255)" fill-opacity="1.0"><g fill="rgb(255,255,255)" fill-opacity="1.0"><path d="M 216.51188178561148,51.55713779065036 c 0.0,-11.893200393775192 -9.641343874229632,-21.534544268004826 -21.534544268004822 -21.534544268004826c -11.893200393775192,-7.282484896927415e-16 -21.534544268004826,9.64134387422963 -21.534544268004826 21.53454426800482c -1.456496979385483e-15,11.893200393775192 9.641343874229628,21.534544268004826 21.534544268004815 21.534544268004826c 11.893200393775192,2.1847454690782246e-15 21.534544268004826,-9.641343874229628 21.53454426800483 -21.53454426800482Z" /></g></g></g><g fill="rgb(0,0,0)" fill-opacity="1.0" font-size="14.356362845336552em"><g fill="rgb(0,0,0)" fill-opacity="1.0"><text transform="matrix(1.0,0.0,0.0,1.0,194.97733751760666,51.55713779065036)" dominant-baseline="middle" text-anchor="middle" stroke="none">&#39;M&#39;</text></g></g></g><g><g fill="rgb(255,255,255)" fill-opacity="1.0"><g fill="rgb(255,255,255)" fill-opacity="1.0"><g fill="rgb(255,255,255)" fill-opacity="1.0"><path d="M 387.17650218110145,61.6888909078433 c 0.0,-11.893200393775192 -9.641343874229632,-21.534544268004826 -21.534544268004822 -21.534544268004826c -11.893200393775192,-7.282484896927415e-16 -21.534544268004826,9.64134387422963 -21.534544268004826 21.53454426800482c -1.456496979385483e-15,11.893200393775192 9.641343874229628,21.534544268004826 21.534544268004815 21.534544268004826c 11.893200393775192,2.1847454690782246e-15 21.534544268004826,-9.641343874229628 21.53454426800483 -21.53454426800482Z" /></g></g></g><g fill="rgb(0,0,0)" fill-opacity="1.0" font-size="14.356362845336552em"><g fill="rgb(0,0,0)" fill-opacity="1.0"><text transform="matrix(1.0,0.0,0.0,1.0,365.64195791309663,61.6888909078433)" dominant-baseline="middle" text-anchor="middle" stroke="none">&#39;L&#39;</text></g></g></g><g><g fill="rgb(255,255,255)" fill-opacity="1.0"><g fill="rgb(255,255,255)" fill-opacity="1.0"><g fill="rgb(255,255,255)" fill-opacity="1.0"><path d="M 251.0559488030766,190.90283326987515 c 0.0,-11.893200393775192 -9.641343874229632,-21.534544268004826 -21.534544268004822 -21.534544268004826c -11.893200393775192,-7.282484896927415e-16 -21.534544268004826,9.64134387422963 -21.534544268004826 21.53454426800482c -1.456496979385483e-15,11.893200393775192 9.641343874229628,21.534544268004826 21.534544268004815 21.534544268004826c 11.893200393775192,2.1847454690782246e-15 21.534544268004826,-9.641343874229628 21.53454426800483 -21.53454426800482Z" /></g></g></g><g fill="rgb(0,0,0)" fill-opacity="1.0" font-size="14.356362845336552em"><g fill="rgb(0,0,0)" fill-opacity="1.0"><text transform="matrix(1.0,0.0,0.0,1.0,229.52140453507178,190.90283326987515)" dominant-baseline="middle" text-anchor="middle" stroke="none">&#39;K&#39;</text></g></g></g><path d="M 407.6291000059024,330.24852874909993 l 92.66448117133112,-163.21256655639667 " /><path d="M 407.6291000059024,330.24852874909993 h 143.56362845336548 " /><path d="M 407.6291000059024,330.24852874909993 l 92.66448117133112,163.21256655639667 " /><g><g fill="rgb(255,255,255)" fill-opacity="1.0"><g fill="rgb(255,255,255)" fill-opacity="1.0"><g fill="rgb(255,255,255)" fill-opacity="1.0"><path d="M 521.8281254452384,167.03596219270327 c 0.0,-11.893200393775192 -9.641343874229632,-21.534544268004826 -21.534544268004822 -21.534544268004826c -11.893200393775192,-7.282484896927415e-16 -21.534544268004826,9.64134387422963 -21.534544268004826 21.53454426800482c -1.456496979385483e-15,11.893200393775192 9.641343874229628,21.534544268004826 21.534544268004815 21.534544268004826c 11.893200393775192,2.1847454690782246e-15 21.534544268004826,-9.641343874229628 21.53454426800483 -21.53454426800482Z" /></g></g></g><g fill="rgb(0,0,0)" fill-opacity="1.0" font-size="14.356362845336552em"><g fill="rgb(0,0,0)" fill-opacity="1.0"><text transform="matrix(1.0,0.0,0.0,1.0,500.29358117723353,167.03596219270327)" dominant-baseline="middle" text-anchor="middle" stroke="none">&#39;F&#39;</text></g></g></g><g><g fill="rgb(255,255,255)" fill-opacity="1.0"><g fill="rgb(255,255,255)" fill-opacity="1.0"><g fill="rgb(255,255,255)" fill-opacity="1.0"><path d="M 572.7272727272727,330.24852874909993 c 0.0,-11.893200393775192 -9.641343874229632,-21.534544268004826 -21.534544268004822 -21.534544268004826c -11.893200393775192,-7.282484896927415e-16 -21.534544268004826,9.64134387422963 -21.534544268004826 21.53454426800482c -1.456496979385483e-15,11.893200393775192 9.641343874229628,21.534544268004826 21.534544268004815 21.534544268004826c 11.893200393775192,2.1847454690782246e-15 21.534544268004826,-9.641343874229628 21.53454426800483 -21.53454426800482Z" /></g></g></g><g fill="rgb(0,0,0)" fill-opacity="1.0" font-size="14.356362845336552em"><g fill="rgb(0,0,0)" fill-opacity="1.0"><text transform="matrix(1.0,0.0,0.0,1.0,551.1927284592679,330.24852874909993)" dominant-baseline="middle" text-anchor="middle" stroke="none">&#39;I&#39;</text></g></g></g><g><g fill="rgb(255,255,255)" fill-opacity="1.0"><g fill="rgb(255,255,255)" fill-opacity="1.0"><g fill="rgb(255,255,255)" fill-opacity="1.0"><path d="M 521.8281254452384,493.4610953054966 c 0.0,-11.893200393775192 -9.641343874229632,-21.534544268004826 -21.534544268004822 -21.534544268004826c -11.893200393775192,-7.282484896927415e-16 -21.534544268004826,9.64134387422963 -21.534544268004826 21.53454426800482c -1.456496979385483e-15,11.893200393775192 9.641343874229628,21.534544268004826 21.534544268004815 21.534544268004826c 11.893200393775192,2.1847454690782246e-15 21.534544268004826,-9.641343874229628 21.53454426800483 -21.53454426800482Z" /></g></g></g><g fill="rgb(0,0,0)" fill-opacity="1.0" font-size="14.356362845336552em"><g fill="rgb(0,0,0)" fill-opacity="1.0"><text transform="matrix(1.0,0.0,0.0,1.0,500.29358117723353,493.4610953054966)" dominant-baseline="middle" text-anchor="middle" stroke="none">&#39;H&#39;</text></g></g></g><g><g fill="rgb(255,255,255)" fill-opacity="1.0"><g fill="rgb(255,255,255)" fill-opacity="1.0"><g fill="rgb(255,255,255)" fill-opacity="1.0"><path d="M 429.1636442739072,330.24852874909993 c 0.0,-11.893200393775192 -9.641343874229632,-21.534544268004826 -21.534544268004822 -21.534544268004826c -11.893200393775192,-7.282484896927415e-16 -21.534544268004826,9.64134387422963 -21.534544268004826 21.53454426800482c -1.456496979385483e-15,11.893200393775192 9.641343874229628,21.534544268004826 21.534544268004815 21.534544268004826c 11.893200393775192,2.1847454690782246e-15 21.534544268004826,-9.641343874229628 21.53454426800483 -21.53454426800482Z" /></g></g></g><g fill="rgb(0,0,0)" fill-opacity="1.0" font-size="14.356362845336552em"><g fill="rgb(0,0,0)" fill-opacity="1.0"><text transform="matrix(1.0,0.0,0.0,1.0,407.6291000059024,330.24852874909993)" dominant-baseline="middle" text-anchor="middle" stroke="none">&#39;G&#39;</text></g></g></g><path d="M 229.52140453507178,469.5942242283247 l 136.12055337802485,129.21394236203182 " /><path d="M 229.52140453507178,469.5942242283247 l -34.544067017465125,139.3456954792248 " /><path d="M 229.52140453507178,469.5942242283247 l -180.71413299433974,50.67001173063119 " /><g><g fill="rgb(255,255,255)" fill-opacity="1.0"><g fill="rgb(255,255,255)" fill-opacity="1.0"><g fill="rgb(255,255,255)" fill-opacity="1.0"><path d="M 387.17650218110145,598.8081665903566 c 0.0,-11.893200393775192 -9.641343874229632,-21.534544268004826 -21.534544268004822 -21.534544268004826c -11.893200393775192,-7.282484896927415e-16 -21.534544268004826,9.64134387422963 -21.534544268004826 21.53454426800482c -1.456496979385483e-15,11.893200393775192 9.641343874229628,21.534544268004826 21.534544268004815 21.534544268004826c 11.893200393775192,2.1847454690782246e-15 21.534544268004826,-9.641343874229628 21.53454426800483 -21.53454426800482Z" /></g></g></g><g fill="rgb(0,0,0)" fill-opacity="1.0" font-size="14.356362845336552em"><g fill="rgb(0,0,0)" fill-opacity="1.0"><text transform="matrix(1.0,0.0,0.0,1.0,365.64195791309663,598.8081665903566)" dominant-baseline="middle" text-anchor="middle" stroke="none">&#39;E&#39;</text></g></g></g><g><g fill="rgb(255,255,255)" fill-opacity="1.0"><g fill="rgb(255,255,255)" fill-opacity="1.0"><g fill="rgb(255,255,255)" fill-opacity="1.0"><path d="M 216.51188178561148,608.9399197075495 c 0.0,-11.893200393775192 -9.641343874229632,-21.534544268004826 -21.534544268004822 -21.534544268004826c -11.893200393775192,-7.282484896927415e-16 -21.534544268004826,9.64134387422963 -21.534544268004826 21.53454426800482c -1.456496979385483e-15,11.893200393775192 9.641343874229628,21.534544268004826 21.534544268004815 21.534544268004826c 11.893200393775192,2.1847454690782246e-15 21.534544268004826,-9.641343874229628 21.53454426800483 -21.53454426800482Z" /></g></g></g><g fill="rgb(0,0,0)" fill-opacity="1.0" font-size="14.356362845336552em"><g fill="rgb(0,0,0)" fill-opacity="1.0"><text transform="matrix(1.0,0.0,0.0,1.0,194.97733751760666,608.9399197075495)" dominant-baseline="middle" text-anchor="middle" stroke="none">&#39;D&#39;</text></g></g></g><g><g fill="rgb(255,255,255)" fill-opacity="1.0"><g fill="rgb(255,255,255)" fill-opacity="1.0"><g fill="rgb(255,255,255)" fill-opacity="1.0"><path d="M 70.3418158087369,520.2642359589559 c 0.0,-11.893200393775192 -9.641343874229632,-21.534544268004826 -21.534544268004822 -21.534544268004826c -11.893200393775192,-7.282484896927415e-16 -21.534544268004826,9.64134387422963 -21.534544268004826 21.53454426800482c -1.456496979385483e-15,11.893200393775192 9.641343874229628,21.534544268004826 21.534544268004815 21.534544268004826c 11.893200393775192,2.1847454690782246e-15 21.534544268004826,-9.641343874229628 21.53454426800483 -21.53454426800482Z" /></g></g></g><g fill="rgb(0,0,0)" fill-opacity="1.0" font-size="14.356362845336552em"><g fill="rgb(0,0,0)" fill-opacity="1.0"><text transform="matrix(1.0,0.0,0.0,1.0,48.807271540732074,520.2642359589559)" dominant-baseline="middle" text-anchor="middle" stroke="none">&#39;C&#39;</text></g></g></g><g><g fill="rgb(255,255,255)" fill-opacity="1.0"><g fill="rgb(255,255,255)" fill-opacity="1.0"><g fill="rgb(255,255,255)" fill-opacity="1.0"><path d="M 251.0559488030766,469.5942242283247 c 0.0,-11.893200393775192 -9.641343874229632,-21.534544268004826 -21.534544268004822 -21.534544268004826c -11.893200393775192,-7.282484896927415e-16 -21.534544268004826,9.64134387422963 -21.534544268004826 21.53454426800482c -1.456496979385483e-15,11.893200393775192 9.641343874229628,21.534544268004826 21.534544268004815 21.534544268004826c 11.893200393775192,2.1847454690782246e-15 21.534544268004826,-9.641343874229628 21.53454426800483 -21.53454426800482Z" /></g></g></g><g fill="rgb(0,0,0)" fill-opacity="1.0" font-size="14.356362845336552em"><g fill="rgb(0,0,0)" fill-opacity="1.0"><text transform="matrix(1.0,0.0,0.0,1.0,229.52140453507178,469.5942242283247)" dominant-baseline="middle" text-anchor="middle" stroke="none">&#39;B&#39;</text></g></g></g><g><g fill="rgb(255,255,255)" fill-opacity="1.0"><g fill="rgb(255,255,255)" fill-opacity="1.0"><g fill="rgb(255,255,255)" fill-opacity="1.0"><path d="M 285.6000158205417,330.24852874909993 c 0.0,-11.893200393775192 -9.641343874229632,-21.534544268004826 -21.534544268004822 -21.534544268004826c -11.893200393775192,-7.282484896927415e-16 -21.534544268004826,9.64134387422963 -21.534544268004826 21.53454426800482c -1.456496979385483e-15,11.893200393775192 9.641343874229628,21.534544268004826 21.534544268004815 21.534544268004826c 11.893200393775192,2.1847454690782246e-15 21.534544268004826,-9.641343874229628 21.53454426800483 -21.53454426800482Z" /></g></g></g><g fill="rgb(0,0,0)" fill-opacity="1.0" font-size="14.356362845336552em"><g fill="rgb(0,0,0)" fill-opacity="1.0"><text transform="matrix(1.0,0.0,0.0,1.0,264.0654715525369,330.24852874909993)" dominant-baseline="middle" text-anchor="middle" stroke="none">&#39;A&#39;</text></g></g></g></g></g></g></g></svg>