<?xml version="1.0" encoding="UTF-8"?>
<!DOCTYPE svg PUBLIC "-//W3C//DTD SVG 1.1//EN"
    "http://www.w3.org/Graphics/SVG/1.1/DTD/svg11.dtd">
<svg xmlns="http://www.w3.org/2000/svg" xmlns:xlink="http://www.w3.org/1999/xlink" version="1.1" width="600.0" height="655.6577667934441" font-size="1" viewBox="0 0 600 656" stroke="rgb(0,0,0)" stroke-opacity="1"><g><g fill="rgb(0,0,0)" fill-opacity="0.0"><g stroke="rgb(0,0,0)" stroke-opacity="1.0" stroke-width="2.5088472574505336" stroke-linecap="butt" stroke-linejoin="miter" font-size="1.0em" stroke-miterlimit="10.0"><g><path d="M 278.47607024994807,327.82888339672206 l -62.791722449728944,-123.6973796028282 " /><path d="M 278.47607024994807,327.82888339672206 l 107.85133391445396,-87.246386181222 " /><path d="M 278.47607024994807,327.82888339672206 l 107.85133391445396,87.246386181222 " /><path d="M 278.47607024994807,327.82888339672206 l -62.791722449728944,123.6973796028282 " /><path d="M 215.68434780021911,204.13150379389384 l -167.60329411957952,-30.877860507831016 " /><path d="M 215.68434780021911,204.13150379389384 l -102.84595886650203,-98.87738770789501 " /><path d="M 215.68434780021911,204.13150379389384 l -19.114999999408695,-141.38120748575545 " /><path d="M 215.68434780021911,204.13150379389384 l 73.99828848530714,-153.52055162264307 " /><g><g fill="rgb(255,255,255)" fill-opacity="1.0"><g fill="rgb(255,255,255)" fill-opacity="1.0"><g fill="rgb(255,255,255)" fill-opacity="1.0"><path d="M 68.889380088552,173.25364328606284 c 0.0,-11.492121344591391 -9.316205063321004,-20.808326407912396 -20.808326407912393 -20.808326407912396c -11.492121344591391,-7.036894810033411e-16 -20.808326407912396,9.316205063321002 -20.808326407912396 20.80832640791239c -1.4073789620066823e-15,11.492121344591391 9.316205063321002,20.808326407912396 20.808326407912386 20.808326407912396c 11.492121344591391,2.1110684430100235e-15 20.808326407912396,-9.316205063321 20.808326407912407 -20.80832640791239Z" /></g></g></g><g fill="rgb(0,0,0)" fill-opacity="1.0" font-size="13.872217605274933em"><g fill="rgb(0,0,0)" fill-opacity="1.0"><text transform="matrix(1.0,0.0,0.0,1.0,48.0810536806396,173.25364328606284)" dominant-baseline="middle" text-anchor="middle" stroke="none">&#39;U&#39;</text></g></g></g><g><g fill="rgb(255,255,255)" fill-opacity="1.0"><g fill="rgb(255,255,255)" fill-opacity="1.0"><g fill="rgb(255,255,255)" fill-opacity="1.0"><path d="M 133.6467153416295,105.25411608599885 c 0.0,-11.492121344591391 -9.316205063321004,-20.808326407912396 -20.808326407912393 -20.808326407912396c -11.492121344591391,-7.036894810033411e-16 -20.808326407912396,9.316205063321002 -20.808326407912396 20.80832640791239c -1.4073789620066823e-15,11.492121344591391 9.316205063321002,20.808326407912396 20.808326407912386 20.808326407912396c 11.492121344591391,2.1110684430100235e-15 20.808326407912396,-9.316205063321 20.808326407912407 -20.80832640791239Z" /></g></g></g><g fill="rgb(0,0,0)" fill-opacity="1.0" font-size="13.872217605274933em"><g fill="rgb(0,0,0)" fill-opacity="1.0"><text transform="matrix(1.0,0.0,0.0,1.0,112.83838893371708,105.25411608599885)" dominant-baseline="middle" text-anchor="middle" stroke="none">&#39;T&#39;</text></g></g></g><g><g fill="rgb(255,255,255)" fill-opacity="1.0"><g fill="rgb(255,255,255)" fill-opacity="1.0"><g fill="rgb(255,255,255)" fill-opacity="1.0"><path d="M 217.37767420872282,62.75029630813839 c 0.0,-11.492121344591391 -9.316205063321004,-20.808326407912396 -20.808326407912393 -20.808326407912396c -11.492121344591391,-7.036894810033411e-16 -20.808326407912396,9.316205063321002 -20.808326407912396 20.80832640791239c -1.4073789620066823e-15,11.492121344591391 9.316205063321002,20.808326407912396 20.808326407912386 20.808326407912396c 11.492121344591391,2.1110684430100235e-15 20.808326407912396,-9.316205063321 20.808326407912407 -20.80832640791239Z" /></g></g></g><g fill="rgb(0,0,0)" fill-opacity="1.0" font-size="13.872217605274933em"><g fill="rgb(0,0,0)" fill-opacity="1.0"><text transform="matrix(1.0,0.0,0.0,1.0,196.56934780081042,62.75029630813839)" dominant-baseline="middle" text-anchor="middle" stroke="none">&#39;S&#39;</text></g></g></g><g><g fill="rgb(255,255,255)" fill-opacity="1.0"><g fill="rgb(255,255,255)" fill-opacity="1.0"><g fill="rgb(255,255,255)" fill-opacity="1.0"><path d="M 310.49096269343863,50.6109521712508 c 0.0,-11.492121344591391 -9.316205063321004,-20.808326407912396 -20.808326407912393 -20.808326407912396c -11.492121344591391,-7.036894810033411e-16 -20.808326407912396,9.316205063321002 -20.808326407912396 20.80832640791239c -1.4073789620066823e-15,11.492121344591391 9.316205063321002,20.808326407912396 20.808326407912386 20.808326407912396c 11.492121344591391,2.1110684430100235e-15 20.808326407912396,-9.316205063321 20.808326407912407 -20.80832640791239Z" /></g></g></g><g fill="rgb(0,0,0)" fill-opacity="1.0" font-size="13.872217605274933em"><g fill="rgb(0,0,0)" fill-opacity="1.0"><text transform="matrix(1.0,0.0,0.0,1.0,289.68263628552626,50.6109521712508)" dominant-baseline="middle" text-anchor="middle" stroke="none">&#39;R&#39;</text></g></g></g><g><g fill="rgb(255,255,255)" fill-opacity="1.0"><g fill="rgb(255,255,255)" fill-opacity="1.0"><g fill="rgb(255,255,255)" fill-opacity="1.0"><path d="M 236.49267420813152,204.13150379389384 c 0.0,-11.492121344591391 -9.316205063321004,-20.808326407912396 -20.808326407912393 -20.808326407912396c -11.492121344591391,-7.036894810033411e-16 -20.808326407912396,9.316205063321002 -20.808326407912396 20.80832640791239c -1.4073789620066823e-15,11.492121344591391 9.316205063321002,20.808326407912396 20.808326407912386 20.808326407912396c 11.492121344591391,2.1110684430100235e-15 20.808326407912396,-9.316205063321 20.808326407912407 -20.80832640791239Z" /></g></g></g><g fill="rgb(0,0,0)" fill-opacity="1.0" font-size="13.872217605274933em"><g fill="rgb(0,0,0)" fill-opacity="1.0"><text transform="matrix(1.0,0.0,0.0,1.0,215.68434780021911,204.13150379389384)" dominant-baseline="middle" text-anchor="middle" stroke="none">&#39;Q&#39;</text></g></g></g><path d="M 386.327404164402,240.58249721550007 l -4.81517984368944,-170.3558643321335 " /><path d="M 386.327404164402,240.58249721550007 l 75.21172422224923,-121.23211453498593 " /><path d="M 386.327404164402,240.58249721550007 l 134.26894593622816,-48.22736994987251 " /><path d="M 386.327404164402,240.58249721550007 l 165.59154215495832,40.295752084035094 " /><g><g fill="rgb(255,255,255)" fill-opacity="1.0"><g fill="rgb(255,255,255)" fill-opacity="1.0"><g fill="rgb(255,255,255)" fill-opacity="1.0"><path d="M 402.32055072862494,70.22663288336656 c 0.0,-11.492121344591391 -9.316205063321004,-20.808326407912396 -20.808326407912393 -20.808326407912396c -11.492121344591391,-7.036894810033411e-16 -20.808326407912396,9.316205063321002 -20.808326407912396 20.80832640791239c -1.4073789620066823e-15,11.492121344591391 9.316205063321002,20.808326407912396 20.808326407912386 20.808326407912396c 11.492121344591391,2.1110684430100235e-15 20.808326407912396,-9.316205063321 20.808326407912407 -20.80832640791239Z" /></g></g></g><g fill="rgb(0,0,0)" fill-opacity="1.0" font-size="13.872217605274933em"><g fill="rgb(0,0,0)" fill-opacity="1.0"><text transform="matrix(1.0,0.0,0.0,1.0,381.51222432071256,70.22663288336656)" dominant-baseline="middle" text-anchor="middle" stroke="none">&#39;P&#39;</text></g></g></g><g><g fill="rgb(255,255,255)" fill-opacity="1.0"><g fill="rgb(255,255,255)" fill-opacity="1.0"><g fill="rgb(255,255,255)" fill-opacity="1.0"><path d="M 482.34745479456365,119.35038268051414 c 0.0,-11.492121344591391 -9.316205063321004,-20.808326407912396 -20.808326407912393 -20.808326407912396c -11.492121344591391,-7.036894810033411e-16 -20.808326407912396,9.316205063321002 -20.808326407912396 20.80832640791239c -1.4073789620066823e-15,11.492121344591391 9.316205063321002,20.808326407912396 20.808326407912386 20.808326407912396c 11.492121344591391,2.1110684430100235e-15 20.808326407912396,-9.316205063321 20.808326407912407 -20.80832640791239Z" /></g></g></g><g fill="rgb(0,0,0)" fill-opacity="1.0" font-size="13.872217605274933em"><g fill="rgb(0,0,0)" fill-opacity="1.0"><text transform="matrix(1.0,0.0,0.0,1.0,461.53912838665127,119.35038268051414)" dominant-baseline="middle" text-anchor="middle" stroke="none">&#39;O&#39;</text></g></g></g><g><g fill="rgb(255,255,255)" fill-opacity="1.0"><g fill="rgb(255,255,255)" fill-opacity="1.0"><g fill="rgb(255,255,255)" fill-opacity="1.0"><path d="M 541.4046765085426,192.35512726562757 c 0.0,-11.492121344591391 -9.316205063321004,-20.808326407912396 -20.808326407912393 -20.808326407912396c -11.492121344591391,-7.036894810033411e-16 -20.808326407912396,9.316205063321002 -20.808326407912396 20.80832640791239c -1.4073789620066823e-15,11.492121344591391 9.316205063321002,20.808326407912396 20.808326407912386 20.808326407912396c 11.492121344591391,2.1110684430100235e-15 20.808326407912396,-9.316205063321 20.808326407912407 -20.80832640791239Z" /></g></g></g><g fill="rgb(0,0,0)" fill-opacity="1.0" font-size="13.872217605274933em"><g fill="rgb(0,0,0)" fill-opacity="1.0"><text transform="matrix(1.0,0.0,0.0,1.0,520.5963501006302,192.35512726562757)" dominant-baseline="middle" text-anchor="middle" stroke="none">&#39;N&#39;</text></g></g></g><g><g fill="rgb(255,255,255)" fill-opacity="1.0"><g fill="rgb(255,255,255)" fill-opacity="1.0"><g fill="rgb(255,255,255)" fill-opacity="1.0"><path d="M 572.7272727272727,280.8782492995352 c 0.0,-11.492121344591391 -9.316205063321004,-20.808326407912396 -20.808326407912393 -20.808326407912396c -11.492121344591391,-7.036894810033411e-16 -20.808326407912396,9.316205063321002 -20.808326407912396 20.80832640791239c -1.4073789620066823e-15,11.492121344591391 9.316205063321002,20.808326407912396 20.808326407912386 20.808326407912396c 11.492121344591391,2.1110684430100235e-15 20.808326407912396,-9.316205063321 20.808326407912407 -20.80832640791239Z" /></g></g></g><g fill="rgb(0,0,0)" fill-opacity="1.0" font-size="13.872217605274933em"><g fill="rgb(0,0,0)" fill-opacity="1.0"><text transform="matrix(1.0,0.0,0.0,1.0,551.9189463193603,280.8782492995352)" dominant-baseline="middle" text-anchor="middle" stroke="none">&#39;M&#39;</text></g></g></g><g><g fill="rgb(255,255,255)" fill-opacity="1.0"><g fill="rgb(255,255,255)" fill-opacity="1.0"><g fill="rgb(255,255,255)" fill-opacity="1.0"><path d="M 407.1357305723144,240.58249721550007 c 0.0,-11.492121344591391 -9.316205063321004,-20.808326407912396 -20.808326407912393 -20.808326407912396c -11.492121344591391,-7.036894810033411e-16 -20.808326407912396,9.316205063321002 -20.808326407912396 20.80832640791239c -1.4073789620066823e-15,11.492121344591391 9.316205063321002,20.808326407912396 20.808326407912386 20.808326407912396c 11.492121344591391,2.1110684430100235e-15 20.808326407912396,-9.316205063321 20.808326407912407 -20.80832640791239Z" /></g></g></g><g fill="rgb(0,0,0)" fill-opacity="1.0" font-size="13.872217605274933em"><g fill="rgb(0,0,0)" fill-opacity="1.0"><text transform="matrix(1.0,0.0,0.0,1.0,386.327404164402,240.58249721550007)" dominant-baseline="middle" text-anchor="middle" stroke="none">&#39;L&#39;</text></g></g></g><path d="M 386.327404164402,415.075269577944 l 165.59154215495832,-40.295752084035094 " /><path d="M 386.327404164402,415.075269577944 l 134.26894593622816,48.22736994987251 " /><path d="M 386.327404164402,415.075269577944 l 75.21172422224923,121.23211453498593 " /><path d="M 386.327404164402,415.075269577944 l -4.81517984368944,170.3558643321335 " /><g><g fill="rgb(255,255,255)" fill-opacity="1.0"><g fill="rgb(255,255,255)" fill-opacity="1.0"><g fill="rgb(255,255,255)" fill-opacity="1.0"><path d="M 572.7272727272727,374.77951749390894 c 0.0,-11.492121344591391 -9.316205063321004,-20.808326407912396 -20.808326407912393 -20.808326407912396c -11.492121344591391,-7.036894810033411e-16 -20.808326407912396,9.316205063321002 -20.808326407912396 20.80832640791239c -1.4073789620066823e-15,11.492121344591391 9.316205063321002,20.808326407912396 20.808326407912386 20.808326407912396c 11.492121344591391,2.1110684430100235e-15 20.808326407912396,-9.316205063321 20.808326407912407 -20.80832640791239Z" /></g></g></g><g fill="rgb(0,0,0)" fill-opacity="1.0" font-size="13.872217605274933em"><g fill="rgb(0,0,0)" fill-opacity="1.0"><text transform="matrix(1.0,0.0,0.0,1.0,551.9189463193603,374.77951749390894)" dominant-baseline="middle" text-anchor="middle" stroke="none">&#39;K&#39;</text></g></g></g><g><g fill="rgb(255,255,255)" fill-opacity="1.0"><g fill="rgb(255,255,255)" fill-opacity="1.0"><g fill="rgb(255,255,255)" fill-opacity="1.0"><path d="M 541.4046765085426,463.30263952781655 c 0.0,-11.492121344591391 -9.316205063321004,-20.808326407912396 -20.808326407912393 -20.808326407912396c -11.492121344591391,-7.036894810033411e-16 -20.808326407912396,9.316205063321002 -20.808326407912396 20.80832640791239c -1.4073789620066823e-15,11.492121344591391 9.316205063321002,20.808326407912396 20.808326407912386 20.808326407912396c 11.492121344591391,2.1110684430100235e-15 20.808326407912396,-9.316205063321 20.808326407912407 -20.80832640791239Z" /></g></g></g><g fill="rgb(0,0,0)" fill-opacity="1.0" font-size="13.872217605274933em"><g fill="rgb(0,0,0)" fill-opacity="1.0"><text transform="matrix(1.0,0.0,0.0,1.0,520.5963501006302,463.30263952781655)" dominant-baseline="middle" text-anchor="middle" stroke="none">&#39;J&#39;</text></g></g></g><g><g fill="rgb(255,255,255)" fill-opacity="1.0"><g fill="rgb(255,255,255)" fill-opacity="1.0"><g fill="rgb(255,255,255)" fill-opacity="1.0"><path d="M 482.34745479456365,536.30738411293 c 0.0,-11.492121344591391 -9.316205063321004,-20.808326407912396 -20.808326407912393 -20.808326407912396c -11.492121344591391,-7.036894810033411e-16 -20.808326407912396,9.316205063321002 -20.808326407912396 20.80832640791239c -1.4073789620066823e-15,11.492121344591391 9.316205063321002,20.808326407912396 20.808326407912386 20.808326407912396c 11.492121344591391,2.1110684430100235e-15 20.808326407912396,-9.316205063321 20.808326407912407 -20.80832640791239Z" /></g></g></g><g fill="rgb(0,0,0)" fill-opacity="1.0" font-size="13.872217605274933em"><g fill="rgb(0,0,0)" fill-opacity="1.0"><text transform="matrix(1.0,0.0,0.0,1.0,461.53912838665127,536.30738411293)" dominant-baseline="middle" text-anchor="middle" stroke="none">&#39;I&#39;</text></g></g></g><g><g fill="rgb(255,255,255)" fill-opacity="1.0"><g fill="rgb(255,255,255)" fill-opacity="1.0"><g fill="rgb(255,255,255)" fill-opacity="1.0"><path d="M 402.32055072862494,585.4311339100775 c 0.0,-11.492121344591391 -9.316205063321004,-20.808326407912396 -20.808326407912393 -20.808326407912396c -11.492121344591391,-7.036894810033411e-16 -20.808326407912396,9.316205063321002 -20.808326407912396 20.80832640791239c -1.4073789620066823e-15,11.492121344591391 9.316205063321002,20.808326407912396 20.808326407912386 20.808326407912396c 11.492121344591391,2.1110684430100235e-15 20.808326407912396,-9.316205063321 20.808326407912407 -20.80832640791239Z" /></g></g></g><g fill="rgb(0,0,0)" fill-opacity="1.0" font-size="13.872217605274933em"><g fill="rgb(0,0,0)" fill-opacity="1.0"><text transform="matrix(1.0,0.0,0.0,1.0,381.51222432071256,585.4311339100775)" dominant-baseline="middle" text-anchor="middle" stroke="none">&#39;H&#39;</text></g></g></g><g><g fill="rgb(255,255,255)" fill-opacity="1.0"><g fill="rgb(255,255,255)" fill-opacity="1.0"><g fill="rgb(255,255,255)" fill-opacity="1.0"><path d="M 407.1357305723144,415.075269577944 c 0.0,-11.492121344591391 -9.316205063321004,-20.808326407912396 -20.808326407912393 -20.808326407912396c -11.492121344591391,-7.036894810033411e-16 -20.808326407912396,9.316205063321002 -20.808326407912396 20.80832640791239c -1.4073789620066823e-15,11.492121344591391 9.316205063321002,20.808326407912396 20.808326407912386 20.808326407912396c 11.492121344591391,2.1110684430100235e-15 20.808326407912396,-9.316205063321 20.808326407912407 -20.80832640791239Z" /></g></g></g><g fill="rgb(0,0,0)" fill-opacity="1.0" font-size="13.872217605274933em"><g fill="rgb(0,0,0)" fill-opacity="1.0"><text transform="matrix(1.0,0.0,0.0,1.0,386.327404164402,415.075269577944)" dominant-baseline="middle" text-anchor="middle" stroke="none">&#39;G&#39;</text></g></g></g><path d="M 215.68434780021911,451.5262629995503 l 73.99828848530714,153.52055162264307 " /><path d="M 215.68434780021911,451.5262629995503 l -19.114999999408695,141.38120748575545 " /><path d="M 215.68434780021911,451.5262629995503 l -102.84595886650203,98.87738770789501 " /><path d="M 215.68434780021911,451.5262629995503 l -167.60329411957952,30.877860507831016 " /><g><g fill="rgb(255,255,255)" fill-opacity="1.0"><g fill="rgb(255,255,255)" fill-opacity="1.0"><g fill="rgb(255,255,255)" fill-opacity="1.0"><path d="M 310.49096269343863,605.0468146221933 c 0.0,-11.492121344591391 -9.316205063321004,-20.808326407912396 -20.808326407912393 -20.808326407912396c -11.492121344591391,-7.036894810033411e-16 -20.808326407912396,9.316205063321002 -20.808326407912396 20.80832640791239c -1.4073789620066823e-15,11.492121344591391 9.316205063321002,20.808326407912396 20.808326407912386 20.808326407912396c 11.492121344591391,2.1110684430100235e-15 20.808326407912396,-9.316205063321 20.808326407912407 -20.80832640791239Z" /></g></g></g><g fill="rgb(0,0,0)" fill-opacity="1.0" font-size="13.872217605274933em"><g fill="rgb(0,0,0)" fill-opacity="1.0"><text transform="matrix(1.0,0.0,0.0,1.0,289.68263628552626,605.0468146221933)" dominant-baseline="middle" text-anchor="middle" stroke="none">&#39;F&#39;</text></g></g></g><g><g fill="rgb(255,255,255)" fill-opacity="1.0"><g fill="rgb(255,255,255)" fill-opacity="1.0"><g fill="rgb(255,255,255)" fill-opacity="1.0"><path d="M 217.37767420872282,592.9074704853058 c 0.0,-11.492121344591391 -9.316205063321004,-20.808326407912396 -20.808326407912393 -20.808326407912396c -11.492121344591391,-7.036894810033411e-16 -20.808326407912396,9.316205063321002 -20.808326407912396 20.80832640791239c -1.4073789620066823e-15,11.492121344591391 9.316205063321002,20.808326407912396 20.808326407912386 20.808326407912396c 11.492121344591391,2.1110684430100235e-15 20.808326407912396,-9.316205063321 20.808326407912407 -20.80832640791239Z" /></g></g></g><g fill="rgb(0,0,0)" fill-opacity="1.0" font-size="13.872217605274933em"><g fill="rgb(0,0,0)" fill-opacity="1.0"><text transform="matrix(1.0,0.0,0.0,1.0,196.56934780081042,592.9074704853058)" dominant-baseline="middle" text-anchor="middle" stroke="none">&#39;E&#39;</text></g></g></g><g><g fill="rgb(255,255,255)" fill-opacity="1.0"><g fill="rgb(255,255,255)" fill-opacity="1.0"><g fill="rgb(255,255,255)" fill-opacity="1.0"><path d="M 133.6467153416295,550.4036507074453 c 0.0,-11.492121344591391 -9.316205063321004,-20.808326407912396 -20.808326407912393 -20.808326407912396c -11.492121344591391,-7.036894810033411e-16 -20.808326407912396,9.316205063321002 -20.808326407912396 20.80832640791239c -1.4073789620066823e-15,11.492121344591391 9.316205063321002,20.808326407912396 20.808326407912386 20.808326407912396c 11.492121344591391,2.1110684430100235e-15 20.808326407912396,-9.316205063321 20.808326407912407 -20.80832640791239Z" /></g></g></g><g fill="rgb(0,0,0)" fill-opacity="1.0" font-size="13.872217605274933em"><g fill="rgb(0,0,0)" fill-opacity="1.0"><text transform="matrix(1.0,0.0,0.0,1.0,112.83838893371708,550.4036507074453)" dominant-baseline="middle" text-anchor="middle" stroke="none">&#39;D&#39;</text></g></g></g><g><g fill="rgb(255,255,255)" fill-opacity="1.0"><g fill="rgb(255,255,255)" fill-opacity="1.0"><g fill="rgb(255,255,255)" fill-opacity="1.0"><path d="M 68.889380088552,482.4041235073813 c 0.0,-11.492121344591391 -9.316205063321004,-20.808326407912396 -20.808326407912393 -20.808326407912396c -11.492121344591391,-7.036894810033411e-16 -20.808326407912396,9.316205063321002 -20.808326407912396 20.80832640791239c -1.4073789620066823e-15,11.492121344591391 9.316205063321002,20.808326407912396 20.808326407912386 20.808326407912396c 11.492121344591391,2.1110684430100235e-15 20.808326407912396,-9.316205063321 20.808326407912407 -20.80832640791239Z" /></g></g></g><g fill="rgb(0,0,0)" fill-opacity="1.0" font-size="13.872217605274933em"><g fill="rgb(0,0,0)" fill-opacity="1.0"><text transform="matrix(1.0,0.0,0.0,1.0,48.0810536806396,482.4041235073813)" dominant-baseline="middle" text-anchor="middle" stroke="none">&#39;C&#39;</text></g></g></g><g><g fill="rgb(255,255,255)" fill-opacity="1.0"><g fill="rgb(255,255,255)" fill-opacity="1.0"><g fill="rgb(255,255,255)" fill-opacity="1.0"><path d="M 236.49267420813152,451.5262629995503 c 0.0,-11.492121344591391 -9.316205063321004,-20.808326407912396 -20.808326407912393 -20.808326407912396c -11.492121344591391,-7.036894810033411e-16 -20.808326407912396,9.316205063321002 -20.808326407912396 20.80832640791239c -1.4073789620066823e-15,11.492121344591391 9.316205063321002,20.808326407912396 20.808326407912386 20.808326407912396c 11.492121344591391,2.1110684430100235e-15 20.808326407912396,-9.316205063321 20.808326407912407 -20.80832640791239Z" /></g></g></g><g fill="rgb(0,0,0)" fill-opacity="1.0" font-size="13.872217605274933em"><g fill="rgb(0,0,0)" fill-opacity="1.0"><text transform="matrix(1.0,0.0,0.0,1.0,215.68434780021911,451.5262629995503)" dominant-baseline="middle" text-anchor="middle" stroke="none">&#39;B&#39;</text></g></g></g><g><g fill="rgb(255,255,255)" fill-opacity="1.0"><g fill="rgb(255,255,255)" fill-opacity="1.0"><g fill="rgb(255,255,255)" fill-opacity="1.0"><path d="M 299.28439665786044,327.82888339672206 c 0.0,-11.492121344591391 -9.316205063321004,-20.808326407912396 -20.808326407912393 -20.808326407912396c -11.492121344591391,-7.036894810033411e-16 -20.808326407912396,9.316205063321002 -20.808326407912396 20.80832640791239c -1.4073789620066823e-15,11.492121344591391 9.316205063321002,20.808326407912396 20.808326407912386 20.808326407912396c 11.492121344591391,2.1110684430100235e-15 20.808326407912396,-9.316205063321 20.808326407912407 -20.80832640791239Z" /></g></g></g><g fill="rgb(0,0,0)" fill-opacity="1.0" font-size="13.872217605274933em"><g fill="rgb(0,0,0)" fill-opacity="1.0"><text transform="matrix(1.0,0.0,0.0,1.0,278.47607024994807,327.82888339672206)" dominant-baseline="middle" text-anchor="middle" stroke="none">&#39;A&#39;</text></g></g></g></g></g></g></g></svg>