<?xml version="1.0" encoding="UTF-8"?>
<!DOCTYPE svg PUBLIC "-//W3C//DTD SVG 1.1//EN"
    "http://www.w3.org/Graphics/SVG/1.1/DTD/svg11.dtd">
<svg xmlns="http://www.w3.org/2000/svg" xmlns:xlink="http://www.w3.org/1999/xlink" version="1.1" width="300.0" height="227.71084337349396" font-size="1" viewBox="0 0 300 228" stroke="rgb(0,0,0)" stroke-opacity="1"><g><g fill="rgb(0,0,0)" fill-opacity="0.0"><g stroke="rgb(0,0,0)" stroke-opacity="1.0" stroke-width="1.0454721651927281" stroke-linecap="butt" stroke-linejoin="miter" font-size="1.0em" stroke-miterlimit="10.0"><path d="M 150.0,5.421686746987964 l 72.28915662650601,72.28915662650601 " /><path d="M 150.0,5.421686746987964 l -72.28915662650601,72.28915662650601 " /><path d="M 222.289156626506,77.71084337349397 v 72.28915662650601 " /><path d="M 222.289156626506,150.0 l 72.28915662650601,72.28915662650601 " /><path d="M 222.289156626506,150.0 v 72.28915662650601 " /><path d="M 222.289156626506,150.0 l -72.28915662650601,72.28915662650601 " /><g><g fill="rgb(255,255,255)" fill-opacity="1.0"><g fill="rgb(255,255,255)" fill-opacity="1.0"><g fill="rgb(255,255,255)" fill-opacity="1.0"><path d="M 300.0,222.289156626506 c 0.0,-2.9943149087211687 -2.4273718382667813,-5.421686746987951 -5.42168674698795 -5.421686746987951c -2.9943149087211687,-1.833489084302289e-16 -5.421686746987951,2.4273718382667813 -5.421686746987951 5.421686746987949c -3.666978168604578e-16,2.9943149087211687 2.427371838266781,5.421686746987951 5.421686746987948 5.421686746987951c 2.9943149087211687,5.500467252906868e-16 5.421686746987951,-2.4273718382667804 5.421686746987952 -5.421686746987949Z" /></g></g></g><g fill="rgb(0,0,0)" fill-opacity="1.0" font-size="9.036144578313252em"><g fill="rgb(0,0,0)" fill-opacity="1.0"><text transform="matrix(1.0,0.0,0.0,1.0,294.578313253012,222.289156626506)" dominant-baseline="middle" text-anchor="middle" stroke="none">&#39;J&#39;</text></g></g></g><g><g fill="rgb(255,255,255)" fill-opacity="1.0"><g fill="rgb(255,255,255)" fill-opacity="1.0"><g fill="rgb(255,255,255)" fill-opacity="1.0"><path d="M 227.71084337349396,222.289156626506 c 0.0,-2.9943149087211687 -2.4273718382667813,-5.421686746987951 -5.42168674698795 -5.421686746987951c -2.9943149087211687,-1.833489084302289e-16 -5.421686746987951,2.4273718382667813 -5.421686746987951 5.421686746987949c -3.666978168604578e-16,2.9943149087211687 2.427371838266781,5.421686746987951 5.421686746987948 5.421686746987951c 2.9943149087211687,5.500467252906868e-16 5.421686746987951,-2.4273718382667804 5.421686746987952 -5.421686746987949Z" /></g></g></g><g fill="rgb(0,0,0)" fill-opacity="1.0" font-size="9.036144578313252em"><g fill="rgb(0,0,0)" fill-opacity="1.0"><text transform="matrix(1.0,0.0,0.0,1.0,222.289156626506,222.289156626506)" dominant-baseline="middle" text-anchor="middle" stroke="none">&#39;I&#39;</text></g></g></g><g><g fill="rgb(255,255,255)" fill-opacity="1.0"><g fill="rgb(255,255,255)" fill-opacity="1.0"><g fill="rgb(255,255,255)" fill-opacity="1.0"><path d="M 155.42168674698794,222.289156626506 c 0.0,-2.9943149087211687 -2.4273718382667813,-5.421686746987951 -5.42168674698795 -5.421686746987951c -2.9943149087211687,-1.833489084302289e-16 -5.421686746987951,2.4273718382667813 -5.421686746987951 5.421686746987949c -3.666978168604578e-16,2.9943149087211687 2.427371838266781,5.421686746987951 5.421686746987948 5.421686746987951c 2.9943149087211687,5.500467252906868e-16 5.421686746987951,-2.4273718382667804 5.421686746987952 -5.421686746987949Z" /></g></g></g><g fill="rgb(0,0,0)" fill-opacity="1.0" font-size="9.036144578313252em"><g fill="rgb(0,0,0)" fill-opacity="1.0"><text transform="matrix(1.0,0.0,0.0,1.0,150.0,222.289156626506)" dominant-baseline="middle" text-anchor="middle" stroke="none">&#39;H&#39;</text></g></g></g><g><g fill="rgb(255,255,255)" fill-opacity="1.0"><g fill="rgb(255,255,255)" fill-opacity="1.0"><g fill="rgb(255,255,255)" fill-opacity="1.0"><path d="M 227.71084337349396,150.0 c 0.0,-2.9943149087211687 -2.4273718382667813,-5.421686746987951 -5.42168674698795 -5.421686746987951c -2.9943149087211687,-1.833489084302289e-16 -5.421686746987951,2.4273718382667813 -5.421686746987951 5.421686746987949c -3.666978168604578e-16,2.9943149087211687 2.427371838266781,5.421686746987951 5.421686746987948 5.421686746987951c 2.9943149087211687,5.500467252906868e-16 5.421686746987951,-2.4273718382667804 5.421686746987952 -5.421686746987949Z" /></g></g></g><g fill="rgb(0,0,0)" fill-opacity="1.0" font-size="9.036144578313252em"><g fill="rgb(0,0,0)" fill-opacity="1.0"><text transform="matrix(1.0,0.0,0.0,1.0,222.289156626506,150.0)" dominant-baseline="middle" text-anchor="middle" stroke="none">&#39;G&#39;</text></g></g></g><g><g fill="rgb(255,255,255)" fill-opacity="1.0"><g fill="rgb(255,255,255)" fill-opacity="1.0"><g fill="rgb(255,255,255)" fill-opacity="1.0"><path d="M 227.71084337349396,77.71084337349397 c 0.0,-2.9943149087211687 -2.4273718382667813,-5.421686746987951 -5.42168674698795 -5.421686746987951c -2.9943149087211687,-1.833489084302289e-16 -5.421686746987951,2.4273718382667813 -5.421686746987951 5.421686746987949c -3.666978168604578e-16,2.9943149087211687 2.427371838266781,5.421686746987951 5.421686746987948 5.421686746987951c 2.9943149087211687,5.500467252906868e-16 5.421686746987951,-2.4273718382667804 5.421686746987952 -5.421686746987949Z" /></g></g></g><g fill="rgb(0,0,0)" fill-opacity="1.0" font-size="9.036144578313252em"><g fill="rgb(0,0,0)" fill-opacity="1.0"><text transform="matrix(1.0,0.0,0.0,1.0,222.289156626506,77.71084337349397)" dominant-baseline="middle" text-anchor="middle" stroke="none">&#39;F&#39;</text></g></g></g><path d="M 77.71084337349399,77.71084337349397 l 72.28915662650601,72.28915662650601 " /><path d="M 77.71084337349399,77.71084337349397 v 72.28915662650601 " /><path d="M 77.71084337349399,77.71084337349397 l -72.28915662650601,72.28915662650601 " /><g><g fill="rgb(255,255,255)" fill-opacity="1.0"><g fill="rgb(255,255,255)" fill-opacity="1.0"><g fill="rgb(255,255,255)" fill-opacity="1.0"><path d="M 155.42168674698794,150.0 c 0.0,-2.9943149087211687 -2.4273718382667813,-5.421686746987951 -5.42168674698795 -5.421686746987951c -2.9943149087211687,-1.833489084302289e-16 -5.421686746987951,2.4273718382667813 -5.421686746987951 5.421686746987949c -3.666978168604578e-16,2.9943149087211687 2.427371838266781,5.421686746987951 5.421686746987948 5.421686746987951c 2.9943149087211687,5.500467252906868e-16 5.421686746987951,-2.4273718382667804 5.421686746987952 -5.421686746987949Z" /></g></g></g><g fill="rgb(0,0,0)" fill-opacity="1.0" font-size="9.036144578313252em"><g fill="rgb(0,0,0)" fill-opacity="1.0"><text transform="matrix(1.0,0.0,0.0,1.0,150.0,150.0)" dominant-baseline="middle" text-anchor="middle" stroke="none">&#39;E&#39;</text></g></g></g><g><g fill="rgb(255,255,255)" fill-opacity="1.0"><g fill="rgb(255,255,255)" fill-opacity="1.0"><g fill="rgb(255,255,255)" fill-opacity="1.0"><path d="M 83.13253012048193,150.0 c 0.0,-2.9943149087211687 -2.4273718382667813,-5.421686746987951 -5.42168674698795 -5.421686746987951c -2.9943149087211687,-1.833489084302289e-16 -5.421686746987951,2.4273718382667813 -5.421686746987951 5.421686746987949c -3.666978168604578e-16,2.9943149087211687 2.427371838266781,5.421686746987951 5.421686746987948 5.421686746987951c 2.9943149087211687,5.500467252906868e-16 5.421686746987951,-2.4273718382667804 5.421686746987952 -5.421686746987949Z" /></g></g></g><g fill="rgb(0,0,0)" fill-opacity="1.0" font-size="9.036144578313252em"><g fill="rgb(0,0,0)" fill-opacity="1.0"><text transform="matrix(1.0,0.0,0.0,1.0,77.71084337349399,150.0)" dominant-baseline="middle" text-anchor="middle" stroke="none">&#39;D&#39;</text></g></g></g><g><g fill="rgb(255,255,255)" fill-opacity="1.0"><g fill="rgb(255,255,255)" fill-opacity="1.0"><g fill="rgb(255,255,255)" fill-opacity="1.0"><path d="M 10.843373493975925,150.0 c 0.0,-2.9943149087211687 -2.4273718382667813,-5.421686746987951 -5.42168674698795 -5.421686746987951c -2.9943149087211687,-1.833489084302289e-16 -5.421686746987951,2.4273718382667813 -5.421686746987951 5.421686746987949c -3.666978168604578e-16,2.9943149087211687 2.427371838266781,5.421686746987951 5.421686746987948 5.421686746987951c 2.9943149087211687,5.500467252906868e-16 5.421686746987951,-2.4273718382667804 5.421686746987952 -5.421686746987949Z" /></g></g></g><g fill="rgb(0,0,0)" fill-opacity="1.0" font-size="9.036144578313252em"><g fill="rgb(0,0,0)" fill-opacity="1.0"><text transform="matrix(1.0,0.0,0.0,1.0,5.421686746987973,150.0)" dominant-baseline="middle" text-anchor="middle" stroke="none">&#39;C&#39;</text></g></g></g><g><g fill="rgb(255,255,255)" fill-opacity="1.0"><g fill="rgb(255,255,255)" fill-opacity="1.0"><g fill="rgb(255,255,255)" fill-opacity="1.0"><path d="M 83.13253012048193,77.71084337349397 c 0.0,-2.9943149087211687 -2.4273718382667813,-5.421686746987951 -5.42168674698795 -5.421686746987951c -2.9943149087211687,-1.833489084302289e-16 -5.421686746987951,2.4273718382667813 -5.421686746987951 5.421686746987949c -3.666978168604578e-16,2.9943149087211687 2.427371838266781,5.421686746987951 5.421686746987948 5.421686746987951c 2.9943149087211687,5.500467252906868e-16 5.421686746987951,-2.4273718382667804 5.421686746987952 -5.421686746987949Z" /></g></g></g><g fill="rgb(0,0,0)" fill-opacity="1.0" font-size="9.036144578313252em"><g fill="rgb(0,0,0)" fill-opacity="1.0"><text transform="matrix(1.0,0.0,0.0,1.0,77.71084337349399,77.71084337349397)" dominant-baseline="middle" text-anchor="middle" stroke="none">&#39;B&#39;</text></g></g></g><g><g fill="rgb(255,255,255)" fill-opacity="1.0"><g fill="rgb(255,255,255)" fill-opacity="1.0"><g fill="rgb(255,255,255)" fill-opacity="1.0"><path d="M 155.42168674698794,5.421686746987964 c 0.0,-2.9943149087211687 -2.4273718382667813,-5.421686746987951 -5.42168674698795 -5.421686746987951c -2.9943149087211687,-1.833489084302289e-16 -5.421686746987951,2.4273718382667813 -5.421686746987951 5.421686746987949c -3.666978168604578e-16,2.9943149087211687 2.427371838266781,5.421686746987951 5.421686746987948 5.421686746987951c 2.9943149087211687,5.500467252906868e-16 5.421686746987951,-2.4273718382667804 5.421686746987952 -5.421686746987949Z" /></g></g></g><g fill="rgb(0,0,0)" fill-opacity="1.0" font-size="9.036144578313252em"><g fill="rgb(0,0,0)" fill-opacity="1.0"><text transform="matrix(1.0,0.0,0.0,1.0,150.0,5.421686746987964)" dominant-baseline="middle" text-anchor="middle" stroke="none">&#39;A&#39;</text></g></g></g></g></g></g></svg>